%TF.GenerationSoftware,KiCad,Pcbnew,9.0.7*%
%TF.CreationDate,2026-04-01T14:38:09-04:00*%
%TF.ProjectId,triptech,74726970-7465-4636-982e-6b696361645f,1.0*%
%TF.SameCoordinates,Original*%
%TF.FileFunction,Legend,Bot*%
%TF.FilePolarity,Positive*%
%FSLAX46Y46*%
G04 Gerber Fmt 4.6, Leading zero omitted, Abs format (unit mm)*
G04 Created by KiCad (PCBNEW 9.0.7) date 2026-04-01 14:38:09*
%MOMM*%
%LPD*%
G01*
G04 APERTURE LIST*
%ADD10C,0.150000*%
%ADD11C,0.120000*%
G04 APERTURE END LIST*
D10*
X176974583Y-98996069D02*
X176974583Y-99710354D01*
X176974583Y-99710354D02*
X177022202Y-99853211D01*
X177022202Y-99853211D02*
X177117440Y-99948450D01*
X177117440Y-99948450D02*
X177260297Y-99996069D01*
X177260297Y-99996069D02*
X177355535Y-99996069D01*
X176498392Y-99996069D02*
X176498392Y-98996069D01*
X176498392Y-98996069D02*
X176117440Y-98996069D01*
X176117440Y-98996069D02*
X176022202Y-99043688D01*
X176022202Y-99043688D02*
X175974583Y-99091307D01*
X175974583Y-99091307D02*
X175926964Y-99186545D01*
X175926964Y-99186545D02*
X175926964Y-99329402D01*
X175926964Y-99329402D02*
X175974583Y-99424640D01*
X175974583Y-99424640D02*
X176022202Y-99472259D01*
X176022202Y-99472259D02*
X176117440Y-99519878D01*
X176117440Y-99519878D02*
X176498392Y-99519878D01*
X174974583Y-99996069D02*
X175546011Y-99996069D01*
X175260297Y-99996069D02*
X175260297Y-98996069D01*
X175260297Y-98996069D02*
X175355535Y-99138926D01*
X175355535Y-99138926D02*
X175450773Y-99234164D01*
X175450773Y-99234164D02*
X175546011Y-99281783D01*
D11*
%TO.C,JP1*%
X174641250Y-100291250D02*
X174641250Y-102291250D01*
X174641250Y-102291250D02*
X177441250Y-102291250D01*
X177441250Y-100291250D02*
X174641250Y-100291250D01*
X177441250Y-102291250D02*
X177441250Y-100291250D01*
%TD*%
M02*
