%TF.GenerationSoftware,KiCad,Pcbnew,9.0.7*%
%TF.CreationDate,2026-04-01T14:38:09-04:00*%
%TF.ProjectId,triptech,74726970-7465-4636-982e-6b696361645f,1.0*%
%TF.SameCoordinates,Original*%
%TF.FileFunction,Soldermask,Bot*%
%TF.FilePolarity,Negative*%
%FSLAX46Y46*%
G04 Gerber Fmt 4.6, Leading zero omitted, Abs format (unit mm)*
G04 Created by KiCad (PCBNEW 9.0.7) date 2026-04-01 14:38:09*
%MOMM*%
%LPD*%
G01*
G04 APERTURE LIST*
G04 Aperture macros list*
%AMRoundRect*
0 Rectangle with rounded corners*
0 $1 Rounding radius*
0 $2 $3 $4 $5 $6 $7 $8 $9 X,Y pos of 4 corners*
0 Add a 4 corners polygon primitive as box body*
4,1,4,$2,$3,$4,$5,$6,$7,$8,$9,$2,$3,0*
0 Add four circle primitives for the rounded corners*
1,1,$1+$1,$2,$3*
1,1,$1+$1,$4,$5*
1,1,$1+$1,$6,$7*
1,1,$1+$1,$8,$9*
0 Add four rect primitives between the rounded corners*
20,1,$1+$1,$2,$3,$4,$5,0*
20,1,$1+$1,$4,$5,$6,$7,0*
20,1,$1+$1,$6,$7,$8,$9,0*
20,1,$1+$1,$8,$9,$2,$3,0*%
G04 Aperture macros list end*
%ADD10C,1.600000*%
%ADD11C,2.200000*%
%ADD12C,3.200000*%
%ADD13R,1.700000X1.700000*%
%ADD14C,1.700000*%
%ADD15C,0.800000*%
%ADD16C,6.400000*%
%ADD17C,1.950000*%
%ADD18C,3.600000*%
%ADD19C,2.900000*%
%ADD20C,2.700000*%
%ADD21C,3.400000*%
%ADD22RoundRect,0.250001X-0.499999X-0.499999X0.499999X-0.499999X0.499999X0.499999X-0.499999X0.499999X0*%
%ADD23C,1.500000*%
%ADD24R,3.500000X3.500000*%
%ADD25RoundRect,0.750000X-1.000000X0.750000X-1.000000X-0.750000X1.000000X-0.750000X1.000000X0.750000X0*%
%ADD26RoundRect,0.875000X-0.875000X0.875000X-0.875000X-0.875000X0.875000X-0.875000X0.875000X0.875000X0*%
%ADD27R,1.000000X1.500000*%
G04 APERTURE END LIST*
%TO.C,JP1*%
G36*
X176191250Y-100541250D02*
G01*
X175891250Y-100541250D01*
X175891250Y-102041250D01*
X176191250Y-102041250D01*
X176191250Y-100541250D01*
G37*
%TD*%
D10*
%TO.C,J_OUT_ST1*%
X210703750Y-80691250D03*
X200703750Y-80691250D03*
X205703750Y-85691250D03*
D11*
X205703750Y-80691250D03*
X200703750Y-85691250D03*
X210703750Y-85691250D03*
%TD*%
D12*
%TO.C,H4*%
X319091250Y-137391250D03*
%TD*%
%TO.C,H3*%
X199241250Y-112341250D03*
%TD*%
D13*
%TO.C,J6*%
X205771250Y-96941250D03*
D14*
X203231250Y-96941250D03*
X200691250Y-96941250D03*
X198151250Y-96941250D03*
%TD*%
D15*
%TO.C,J7*%
X116691250Y-82391250D03*
X117394194Y-80694194D03*
X117394194Y-84088306D03*
X119091250Y-79991250D03*
D16*
X119091250Y-82391250D03*
D15*
X119091250Y-84791250D03*
X120788306Y-80694194D03*
X120788306Y-84088306D03*
X121491250Y-82391250D03*
%TD*%
D17*
%TO.C,J_MIDI_OUT_1*%
X239761250Y-90041250D03*
X247261250Y-90041250D03*
X254761250Y-90041250D03*
X242261250Y-92541250D03*
X252261250Y-92541250D03*
X244761250Y-80041250D03*
X249761250Y-80041250D03*
D18*
X239761250Y-85041250D03*
X254761250Y-85041250D03*
%TD*%
D12*
%TO.C,H2*%
X119091250Y-137441250D03*
%TD*%
D10*
%TO.C,J_IN_ST1*%
X197253750Y-80691250D03*
X187253750Y-80691250D03*
X192253750Y-85691250D03*
D11*
X192253750Y-80691250D03*
X187253750Y-85691250D03*
X197253750Y-85691250D03*
%TD*%
D10*
%TO.C,J4*%
X75706250Y-87191250D03*
X69991250Y-84016250D03*
X81421250Y-84016250D03*
D19*
X68721250Y-96081250D03*
X82691250Y-96716250D03*
D20*
X75706250Y-101161250D03*
D12*
X67451250Y-84651250D03*
D20*
X78563750Y-100526250D03*
X72848750Y-100526250D03*
D21*
X71261250Y-93541250D03*
X80151250Y-93541250D03*
%TD*%
D13*
%TO.C,J1*%
X309201250Y-135466250D03*
D14*
X309201250Y-138006250D03*
X306661250Y-135466250D03*
X306661250Y-138006250D03*
X304121250Y-135466250D03*
X304121250Y-138006250D03*
X301581250Y-135466250D03*
X301581250Y-138006250D03*
%TD*%
D17*
%TO.C,S1*%
X179097917Y-94241250D03*
X179097917Y-91041250D03*
X179097917Y-87841250D03*
X182097917Y-94241250D03*
X182097917Y-91041250D03*
X182097917Y-87841250D03*
X177597917Y-85341250D03*
X183597917Y-96741250D03*
%TD*%
D10*
%TO.C,J9*%
X162476250Y-87181250D03*
X156761250Y-84006250D03*
X168191250Y-84006250D03*
D19*
X155491250Y-96071250D03*
X169461250Y-96706250D03*
D20*
X162476250Y-101151250D03*
D12*
X154221250Y-84641250D03*
D20*
X165333750Y-100516250D03*
X159618750Y-100516250D03*
D21*
X158031250Y-93531250D03*
X166921250Y-93531250D03*
%TD*%
D10*
%TO.C,J5*%
X102412917Y-87166250D03*
X96697917Y-83991250D03*
X108127917Y-83991250D03*
D19*
X95427917Y-96056250D03*
X109397917Y-96691250D03*
D20*
X102412917Y-101136250D03*
D12*
X94157917Y-84626250D03*
D20*
X105270417Y-100501250D03*
X99555417Y-100501250D03*
D21*
X97967917Y-93516250D03*
X106857917Y-93516250D03*
%TD*%
D10*
%TO.C,J8*%
X135746250Y-87181250D03*
X130031250Y-84006250D03*
X141461250Y-84006250D03*
D19*
X128761250Y-96071250D03*
X142731250Y-96706250D03*
D20*
X135746250Y-101151250D03*
D12*
X127491250Y-84641250D03*
D20*
X138603750Y-100516250D03*
X132888750Y-100516250D03*
D21*
X131301250Y-93531250D03*
X140191250Y-93531250D03*
%TD*%
D17*
%TO.C,J_MIDI_THRU1*%
X217061250Y-90041250D03*
X224561250Y-90041250D03*
X232061250Y-90041250D03*
X219561250Y-92541250D03*
X229561250Y-92541250D03*
X222061250Y-80041250D03*
X227061250Y-80041250D03*
D18*
X217061250Y-85041250D03*
X232061250Y-85041250D03*
%TD*%
D12*
%TO.C,H5*%
X319091250Y-82391250D03*
%TD*%
D22*
%TO.C,U1*%
X316846250Y-108541250D03*
D23*
X316846250Y-111081250D03*
X316846250Y-116161250D03*
X316846250Y-118701250D03*
X316846250Y-121241250D03*
%TD*%
D12*
%TO.C,H1*%
X59091250Y-137391250D03*
%TD*%
D15*
%TO.C,J10*%
X56691250Y-82391250D03*
X57394194Y-80694194D03*
X57394194Y-84088306D03*
X59091250Y-79991250D03*
D16*
X59091250Y-82391250D03*
D15*
X59091250Y-84791250D03*
X60788306Y-80694194D03*
X60788306Y-84088306D03*
X61491250Y-82391250D03*
%TD*%
D17*
%TO.C,J_MIDI_IN_1*%
X262461250Y-90041250D03*
X269961250Y-90041250D03*
X277461250Y-90041250D03*
X264961250Y-92541250D03*
X274961250Y-92541250D03*
X267461250Y-80041250D03*
X272461250Y-80041250D03*
D18*
X262461250Y-85041250D03*
X277461250Y-85041250D03*
%TD*%
D24*
%TO.C,J_DC1*%
X310741250Y-91341250D03*
D25*
X310741250Y-85341250D03*
D26*
X306041250Y-88341250D03*
%TD*%
D27*
%TO.C,JP1*%
X176691250Y-101291250D03*
X175391250Y-101291250D03*
%TD*%
M02*
