%TF.GenerationSoftware,KiCad,Pcbnew,9.0.7*%
%TF.CreationDate,2026-04-01T14:38:09-04:00*%
%TF.ProjectId,triptech,74726970-7465-4636-982e-6b696361645f,1.0*%
%TF.SameCoordinates,Original*%
%TF.FileFunction,Legend,Top*%
%TF.FilePolarity,Positive*%
%FSLAX46Y46*%
G04 Gerber Fmt 4.6, Leading zero omitted, Abs format (unit mm)*
G04 Created by KiCad (PCBNEW 9.0.7) date 2026-04-01 14:38:09*
%MOMM*%
%LPD*%
G01*
G04 APERTURE LIST*
%ADD10C,0.150000*%
%ADD11C,0.254000*%
%ADD12C,0.142240*%
%ADD13C,0.081280*%
%ADD14C,0.120000*%
%ADD15C,0.200000*%
%ADD16C,0.100000*%
%ADD17C,0.406400*%
%ADD18C,0.152400*%
G04 APERTURE END LIST*
D10*
X300696069Y-95179344D02*
X299696069Y-95179344D01*
X299696069Y-95179344D02*
X299696069Y-94941249D01*
X299696069Y-94941249D02*
X299743688Y-94798392D01*
X299743688Y-94798392D02*
X299838926Y-94703154D01*
X299838926Y-94703154D02*
X299934164Y-94655535D01*
X299934164Y-94655535D02*
X300124640Y-94607916D01*
X300124640Y-94607916D02*
X300267497Y-94607916D01*
X300267497Y-94607916D02*
X300457973Y-94655535D01*
X300457973Y-94655535D02*
X300553211Y-94703154D01*
X300553211Y-94703154D02*
X300648450Y-94798392D01*
X300648450Y-94798392D02*
X300696069Y-94941249D01*
X300696069Y-94941249D02*
X300696069Y-95179344D01*
X300696069Y-93655535D02*
X300696069Y-94226963D01*
X300696069Y-93941249D02*
X299696069Y-93941249D01*
X299696069Y-93941249D02*
X299838926Y-94036487D01*
X299838926Y-94036487D02*
X299934164Y-94131725D01*
X299934164Y-94131725D02*
X299981783Y-94226963D01*
X251896069Y-115357916D02*
X251419878Y-115691249D01*
X251896069Y-115929344D02*
X250896069Y-115929344D01*
X250896069Y-115929344D02*
X250896069Y-115548392D01*
X250896069Y-115548392D02*
X250943688Y-115453154D01*
X250943688Y-115453154D02*
X250991307Y-115405535D01*
X250991307Y-115405535D02*
X251086545Y-115357916D01*
X251086545Y-115357916D02*
X251229402Y-115357916D01*
X251229402Y-115357916D02*
X251324640Y-115405535D01*
X251324640Y-115405535D02*
X251372259Y-115453154D01*
X251372259Y-115453154D02*
X251419878Y-115548392D01*
X251419878Y-115548392D02*
X251419878Y-115929344D01*
X251324640Y-114786487D02*
X251277021Y-114881725D01*
X251277021Y-114881725D02*
X251229402Y-114929344D01*
X251229402Y-114929344D02*
X251134164Y-114976963D01*
X251134164Y-114976963D02*
X251086545Y-114976963D01*
X251086545Y-114976963D02*
X250991307Y-114929344D01*
X250991307Y-114929344D02*
X250943688Y-114881725D01*
X250943688Y-114881725D02*
X250896069Y-114786487D01*
X250896069Y-114786487D02*
X250896069Y-114596011D01*
X250896069Y-114596011D02*
X250943688Y-114500773D01*
X250943688Y-114500773D02*
X250991307Y-114453154D01*
X250991307Y-114453154D02*
X251086545Y-114405535D01*
X251086545Y-114405535D02*
X251134164Y-114405535D01*
X251134164Y-114405535D02*
X251229402Y-114453154D01*
X251229402Y-114453154D02*
X251277021Y-114500773D01*
X251277021Y-114500773D02*
X251324640Y-114596011D01*
X251324640Y-114596011D02*
X251324640Y-114786487D01*
X251324640Y-114786487D02*
X251372259Y-114881725D01*
X251372259Y-114881725D02*
X251419878Y-114929344D01*
X251419878Y-114929344D02*
X251515116Y-114976963D01*
X251515116Y-114976963D02*
X251705592Y-114976963D01*
X251705592Y-114976963D02*
X251800830Y-114929344D01*
X251800830Y-114929344D02*
X251848450Y-114881725D01*
X251848450Y-114881725D02*
X251896069Y-114786487D01*
X251896069Y-114786487D02*
X251896069Y-114596011D01*
X251896069Y-114596011D02*
X251848450Y-114500773D01*
X251848450Y-114500773D02*
X251800830Y-114453154D01*
X251800830Y-114453154D02*
X251705592Y-114405535D01*
X251705592Y-114405535D02*
X251515116Y-114405535D01*
X251515116Y-114405535D02*
X251419878Y-114453154D01*
X251419878Y-114453154D02*
X251372259Y-114500773D01*
X251372259Y-114500773D02*
X251324640Y-114596011D01*
X146127155Y-123120069D02*
X146127155Y-122120069D01*
X146127155Y-122120069D02*
X146365250Y-122120069D01*
X146365250Y-122120069D02*
X146508107Y-122167688D01*
X146508107Y-122167688D02*
X146603345Y-122262926D01*
X146603345Y-122262926D02*
X146650964Y-122358164D01*
X146650964Y-122358164D02*
X146698583Y-122548640D01*
X146698583Y-122548640D02*
X146698583Y-122691497D01*
X146698583Y-122691497D02*
X146650964Y-122881973D01*
X146650964Y-122881973D02*
X146603345Y-122977211D01*
X146603345Y-122977211D02*
X146508107Y-123072450D01*
X146508107Y-123072450D02*
X146365250Y-123120069D01*
X146365250Y-123120069D02*
X146127155Y-123120069D01*
X147555726Y-122120069D02*
X147365250Y-122120069D01*
X147365250Y-122120069D02*
X147270012Y-122167688D01*
X147270012Y-122167688D02*
X147222393Y-122215307D01*
X147222393Y-122215307D02*
X147127155Y-122358164D01*
X147127155Y-122358164D02*
X147079536Y-122548640D01*
X147079536Y-122548640D02*
X147079536Y-122929592D01*
X147079536Y-122929592D02*
X147127155Y-123024830D01*
X147127155Y-123024830D02*
X147174774Y-123072450D01*
X147174774Y-123072450D02*
X147270012Y-123120069D01*
X147270012Y-123120069D02*
X147460488Y-123120069D01*
X147460488Y-123120069D02*
X147555726Y-123072450D01*
X147555726Y-123072450D02*
X147603345Y-123024830D01*
X147603345Y-123024830D02*
X147650964Y-122929592D01*
X147650964Y-122929592D02*
X147650964Y-122691497D01*
X147650964Y-122691497D02*
X147603345Y-122596259D01*
X147603345Y-122596259D02*
X147555726Y-122548640D01*
X147555726Y-122548640D02*
X147460488Y-122501021D01*
X147460488Y-122501021D02*
X147270012Y-122501021D01*
X147270012Y-122501021D02*
X147174774Y-122548640D01*
X147174774Y-122548640D02*
X147127155Y-122596259D01*
X147127155Y-122596259D02*
X147079536Y-122691497D01*
X296096069Y-128199583D02*
X296810354Y-128199583D01*
X296810354Y-128199583D02*
X296953211Y-128247202D01*
X296953211Y-128247202D02*
X297048450Y-128342440D01*
X297048450Y-128342440D02*
X297096069Y-128485297D01*
X297096069Y-128485297D02*
X297096069Y-128580535D01*
X296191307Y-127771011D02*
X296143688Y-127723392D01*
X296143688Y-127723392D02*
X296096069Y-127628154D01*
X296096069Y-127628154D02*
X296096069Y-127390059D01*
X296096069Y-127390059D02*
X296143688Y-127294821D01*
X296143688Y-127294821D02*
X296191307Y-127247202D01*
X296191307Y-127247202D02*
X296286545Y-127199583D01*
X296286545Y-127199583D02*
X296381783Y-127199583D01*
X296381783Y-127199583D02*
X296524640Y-127247202D01*
X296524640Y-127247202D02*
X297096069Y-127818630D01*
X297096069Y-127818630D02*
X297096069Y-127199583D01*
X202322797Y-89996069D02*
X202322797Y-90710354D01*
X202322797Y-90710354D02*
X202275178Y-90853211D01*
X202275178Y-90853211D02*
X202179940Y-90948450D01*
X202179940Y-90948450D02*
X202037083Y-90996069D01*
X202037083Y-90996069D02*
X201941845Y-90996069D01*
X202560893Y-91091307D02*
X203322797Y-91091307D01*
X203751369Y-89996069D02*
X203941845Y-89996069D01*
X203941845Y-89996069D02*
X204037083Y-90043688D01*
X204037083Y-90043688D02*
X204132321Y-90138926D01*
X204132321Y-90138926D02*
X204179940Y-90329402D01*
X204179940Y-90329402D02*
X204179940Y-90662735D01*
X204179940Y-90662735D02*
X204132321Y-90853211D01*
X204132321Y-90853211D02*
X204037083Y-90948450D01*
X204037083Y-90948450D02*
X203941845Y-90996069D01*
X203941845Y-90996069D02*
X203751369Y-90996069D01*
X203751369Y-90996069D02*
X203656131Y-90948450D01*
X203656131Y-90948450D02*
X203560893Y-90853211D01*
X203560893Y-90853211D02*
X203513274Y-90662735D01*
X203513274Y-90662735D02*
X203513274Y-90329402D01*
X203513274Y-90329402D02*
X203560893Y-90138926D01*
X203560893Y-90138926D02*
X203656131Y-90043688D01*
X203656131Y-90043688D02*
X203751369Y-89996069D01*
X204608512Y-89996069D02*
X204608512Y-90805592D01*
X204608512Y-90805592D02*
X204656131Y-90900830D01*
X204656131Y-90900830D02*
X204703750Y-90948450D01*
X204703750Y-90948450D02*
X204798988Y-90996069D01*
X204798988Y-90996069D02*
X204989464Y-90996069D01*
X204989464Y-90996069D02*
X205084702Y-90948450D01*
X205084702Y-90948450D02*
X205132321Y-90900830D01*
X205132321Y-90900830D02*
X205179940Y-90805592D01*
X205179940Y-90805592D02*
X205179940Y-89996069D01*
X205513274Y-89996069D02*
X206084702Y-89996069D01*
X205798988Y-90996069D02*
X205798988Y-89996069D01*
X206179941Y-91091307D02*
X206941845Y-91091307D01*
X207132322Y-90948450D02*
X207275179Y-90996069D01*
X207275179Y-90996069D02*
X207513274Y-90996069D01*
X207513274Y-90996069D02*
X207608512Y-90948450D01*
X207608512Y-90948450D02*
X207656131Y-90900830D01*
X207656131Y-90900830D02*
X207703750Y-90805592D01*
X207703750Y-90805592D02*
X207703750Y-90710354D01*
X207703750Y-90710354D02*
X207656131Y-90615116D01*
X207656131Y-90615116D02*
X207608512Y-90567497D01*
X207608512Y-90567497D02*
X207513274Y-90519878D01*
X207513274Y-90519878D02*
X207322798Y-90472259D01*
X207322798Y-90472259D02*
X207227560Y-90424640D01*
X207227560Y-90424640D02*
X207179941Y-90377021D01*
X207179941Y-90377021D02*
X207132322Y-90281783D01*
X207132322Y-90281783D02*
X207132322Y-90186545D01*
X207132322Y-90186545D02*
X207179941Y-90091307D01*
X207179941Y-90091307D02*
X207227560Y-90043688D01*
X207227560Y-90043688D02*
X207322798Y-89996069D01*
X207322798Y-89996069D02*
X207560893Y-89996069D01*
X207560893Y-89996069D02*
X207703750Y-90043688D01*
X207989465Y-89996069D02*
X208560893Y-89996069D01*
X208275179Y-90996069D02*
X208275179Y-89996069D01*
X209418036Y-90996069D02*
X208846608Y-90996069D01*
X209132322Y-90996069D02*
X209132322Y-89996069D01*
X209132322Y-89996069D02*
X209037084Y-90138926D01*
X209037084Y-90138926D02*
X208941846Y-90234164D01*
X208941846Y-90234164D02*
X208846608Y-90281783D01*
X153527155Y-123320069D02*
X153527155Y-122320069D01*
X153527155Y-122320069D02*
X153765250Y-122320069D01*
X153765250Y-122320069D02*
X153908107Y-122367688D01*
X153908107Y-122367688D02*
X154003345Y-122462926D01*
X154003345Y-122462926D02*
X154050964Y-122558164D01*
X154050964Y-122558164D02*
X154098583Y-122748640D01*
X154098583Y-122748640D02*
X154098583Y-122891497D01*
X154098583Y-122891497D02*
X154050964Y-123081973D01*
X154050964Y-123081973D02*
X154003345Y-123177211D01*
X154003345Y-123177211D02*
X153908107Y-123272450D01*
X153908107Y-123272450D02*
X153765250Y-123320069D01*
X153765250Y-123320069D02*
X153527155Y-123320069D01*
X154670012Y-122748640D02*
X154574774Y-122701021D01*
X154574774Y-122701021D02*
X154527155Y-122653402D01*
X154527155Y-122653402D02*
X154479536Y-122558164D01*
X154479536Y-122558164D02*
X154479536Y-122510545D01*
X154479536Y-122510545D02*
X154527155Y-122415307D01*
X154527155Y-122415307D02*
X154574774Y-122367688D01*
X154574774Y-122367688D02*
X154670012Y-122320069D01*
X154670012Y-122320069D02*
X154860488Y-122320069D01*
X154860488Y-122320069D02*
X154955726Y-122367688D01*
X154955726Y-122367688D02*
X155003345Y-122415307D01*
X155003345Y-122415307D02*
X155050964Y-122510545D01*
X155050964Y-122510545D02*
X155050964Y-122558164D01*
X155050964Y-122558164D02*
X155003345Y-122653402D01*
X155003345Y-122653402D02*
X154955726Y-122701021D01*
X154955726Y-122701021D02*
X154860488Y-122748640D01*
X154860488Y-122748640D02*
X154670012Y-122748640D01*
X154670012Y-122748640D02*
X154574774Y-122796259D01*
X154574774Y-122796259D02*
X154527155Y-122843878D01*
X154527155Y-122843878D02*
X154479536Y-122939116D01*
X154479536Y-122939116D02*
X154479536Y-123129592D01*
X154479536Y-123129592D02*
X154527155Y-123224830D01*
X154527155Y-123224830D02*
X154574774Y-123272450D01*
X154574774Y-123272450D02*
X154670012Y-123320069D01*
X154670012Y-123320069D02*
X154860488Y-123320069D01*
X154860488Y-123320069D02*
X154955726Y-123272450D01*
X154955726Y-123272450D02*
X155003345Y-123224830D01*
X155003345Y-123224830D02*
X155050964Y-123129592D01*
X155050964Y-123129592D02*
X155050964Y-122939116D01*
X155050964Y-122939116D02*
X155003345Y-122843878D01*
X155003345Y-122843878D02*
X154955726Y-122796259D01*
X154955726Y-122796259D02*
X154860488Y-122748640D01*
X103372392Y-119420069D02*
X103039059Y-118943878D01*
X102800964Y-119420069D02*
X102800964Y-118420069D01*
X102800964Y-118420069D02*
X103181916Y-118420069D01*
X103181916Y-118420069D02*
X103277154Y-118467688D01*
X103277154Y-118467688D02*
X103324773Y-118515307D01*
X103324773Y-118515307D02*
X103372392Y-118610545D01*
X103372392Y-118610545D02*
X103372392Y-118753402D01*
X103372392Y-118753402D02*
X103324773Y-118848640D01*
X103324773Y-118848640D02*
X103277154Y-118896259D01*
X103277154Y-118896259D02*
X103181916Y-118943878D01*
X103181916Y-118943878D02*
X102800964Y-118943878D01*
X103753345Y-118515307D02*
X103800964Y-118467688D01*
X103800964Y-118467688D02*
X103896202Y-118420069D01*
X103896202Y-118420069D02*
X104134297Y-118420069D01*
X104134297Y-118420069D02*
X104229535Y-118467688D01*
X104229535Y-118467688D02*
X104277154Y-118515307D01*
X104277154Y-118515307D02*
X104324773Y-118610545D01*
X104324773Y-118610545D02*
X104324773Y-118705783D01*
X104324773Y-118705783D02*
X104277154Y-118848640D01*
X104277154Y-118848640D02*
X103705726Y-119420069D01*
X103705726Y-119420069D02*
X104324773Y-119420069D01*
X104943821Y-118420069D02*
X105039059Y-118420069D01*
X105039059Y-118420069D02*
X105134297Y-118467688D01*
X105134297Y-118467688D02*
X105181916Y-118515307D01*
X105181916Y-118515307D02*
X105229535Y-118610545D01*
X105229535Y-118610545D02*
X105277154Y-118801021D01*
X105277154Y-118801021D02*
X105277154Y-119039116D01*
X105277154Y-119039116D02*
X105229535Y-119229592D01*
X105229535Y-119229592D02*
X105181916Y-119324830D01*
X105181916Y-119324830D02*
X105134297Y-119372450D01*
X105134297Y-119372450D02*
X105039059Y-119420069D01*
X105039059Y-119420069D02*
X104943821Y-119420069D01*
X104943821Y-119420069D02*
X104848583Y-119372450D01*
X104848583Y-119372450D02*
X104800964Y-119324830D01*
X104800964Y-119324830D02*
X104753345Y-119229592D01*
X104753345Y-119229592D02*
X104705726Y-119039116D01*
X104705726Y-119039116D02*
X104705726Y-118801021D01*
X104705726Y-118801021D02*
X104753345Y-118610545D01*
X104753345Y-118610545D02*
X104800964Y-118515307D01*
X104800964Y-118515307D02*
X104848583Y-118467688D01*
X104848583Y-118467688D02*
X104943821Y-118420069D01*
X318329345Y-133696069D02*
X318329345Y-132696069D01*
X318329345Y-133172259D02*
X318900773Y-133172259D01*
X318900773Y-133696069D02*
X318900773Y-132696069D01*
X319805535Y-133029402D02*
X319805535Y-133696069D01*
X319567440Y-132648450D02*
X319329345Y-133362735D01*
X319329345Y-133362735D02*
X319948392Y-133362735D01*
X318471069Y-120610416D02*
X318471069Y-121086606D01*
X318471069Y-121086606D02*
X317471069Y-121086606D01*
X317566307Y-120324701D02*
X317518688Y-120277082D01*
X317518688Y-120277082D02*
X317471069Y-120181844D01*
X317471069Y-120181844D02*
X317471069Y-119943749D01*
X317471069Y-119943749D02*
X317518688Y-119848511D01*
X317518688Y-119848511D02*
X317566307Y-119800892D01*
X317566307Y-119800892D02*
X317661545Y-119753273D01*
X317661545Y-119753273D02*
X317756783Y-119753273D01*
X317756783Y-119753273D02*
X317899640Y-119800892D01*
X317899640Y-119800892D02*
X318471069Y-120372320D01*
X318471069Y-120372320D02*
X318471069Y-119753273D01*
X100804830Y-120143107D02*
X100852450Y-120190726D01*
X100852450Y-120190726D02*
X100900069Y-120333583D01*
X100900069Y-120333583D02*
X100900069Y-120428821D01*
X100900069Y-120428821D02*
X100852450Y-120571678D01*
X100852450Y-120571678D02*
X100757211Y-120666916D01*
X100757211Y-120666916D02*
X100661973Y-120714535D01*
X100661973Y-120714535D02*
X100471497Y-120762154D01*
X100471497Y-120762154D02*
X100328640Y-120762154D01*
X100328640Y-120762154D02*
X100138164Y-120714535D01*
X100138164Y-120714535D02*
X100042926Y-120666916D01*
X100042926Y-120666916D02*
X99947688Y-120571678D01*
X99947688Y-120571678D02*
X99900069Y-120428821D01*
X99900069Y-120428821D02*
X99900069Y-120333583D01*
X99900069Y-120333583D02*
X99947688Y-120190726D01*
X99947688Y-120190726D02*
X99995307Y-120143107D01*
X100900069Y-119190726D02*
X100900069Y-119762154D01*
X100900069Y-119476440D02*
X99900069Y-119476440D01*
X99900069Y-119476440D02*
X100042926Y-119571678D01*
X100042926Y-119571678D02*
X100138164Y-119666916D01*
X100138164Y-119666916D02*
X100185783Y-119762154D01*
X100233402Y-118333583D02*
X100900069Y-118333583D01*
X99852450Y-118571678D02*
X100566735Y-118809773D01*
X100566735Y-118809773D02*
X100566735Y-118190726D01*
X175294830Y-123558107D02*
X175342450Y-123605726D01*
X175342450Y-123605726D02*
X175390069Y-123748583D01*
X175390069Y-123748583D02*
X175390069Y-123843821D01*
X175390069Y-123843821D02*
X175342450Y-123986678D01*
X175342450Y-123986678D02*
X175247211Y-124081916D01*
X175247211Y-124081916D02*
X175151973Y-124129535D01*
X175151973Y-124129535D02*
X174961497Y-124177154D01*
X174961497Y-124177154D02*
X174818640Y-124177154D01*
X174818640Y-124177154D02*
X174628164Y-124129535D01*
X174628164Y-124129535D02*
X174532926Y-124081916D01*
X174532926Y-124081916D02*
X174437688Y-123986678D01*
X174437688Y-123986678D02*
X174390069Y-123843821D01*
X174390069Y-123843821D02*
X174390069Y-123748583D01*
X174390069Y-123748583D02*
X174437688Y-123605726D01*
X174437688Y-123605726D02*
X174485307Y-123558107D01*
X174485307Y-123177154D02*
X174437688Y-123129535D01*
X174437688Y-123129535D02*
X174390069Y-123034297D01*
X174390069Y-123034297D02*
X174390069Y-122796202D01*
X174390069Y-122796202D02*
X174437688Y-122700964D01*
X174437688Y-122700964D02*
X174485307Y-122653345D01*
X174485307Y-122653345D02*
X174580545Y-122605726D01*
X174580545Y-122605726D02*
X174675783Y-122605726D01*
X174675783Y-122605726D02*
X174818640Y-122653345D01*
X174818640Y-122653345D02*
X175390069Y-123224773D01*
X175390069Y-123224773D02*
X175390069Y-122605726D01*
X174390069Y-121748583D02*
X174390069Y-121939059D01*
X174390069Y-121939059D02*
X174437688Y-122034297D01*
X174437688Y-122034297D02*
X174485307Y-122081916D01*
X174485307Y-122081916D02*
X174628164Y-122177154D01*
X174628164Y-122177154D02*
X174818640Y-122224773D01*
X174818640Y-122224773D02*
X175199592Y-122224773D01*
X175199592Y-122224773D02*
X175294830Y-122177154D01*
X175294830Y-122177154D02*
X175342450Y-122129535D01*
X175342450Y-122129535D02*
X175390069Y-122034297D01*
X175390069Y-122034297D02*
X175390069Y-121843821D01*
X175390069Y-121843821D02*
X175342450Y-121748583D01*
X175342450Y-121748583D02*
X175294830Y-121700964D01*
X175294830Y-121700964D02*
X175199592Y-121653345D01*
X175199592Y-121653345D02*
X174961497Y-121653345D01*
X174961497Y-121653345D02*
X174866259Y-121700964D01*
X174866259Y-121700964D02*
X174818640Y-121748583D01*
X174818640Y-121748583D02*
X174771021Y-121843821D01*
X174771021Y-121843821D02*
X174771021Y-122034297D01*
X174771021Y-122034297D02*
X174818640Y-122129535D01*
X174818640Y-122129535D02*
X174866259Y-122177154D01*
X174866259Y-122177154D02*
X174961497Y-122224773D01*
X70654830Y-116143107D02*
X70702450Y-116190726D01*
X70702450Y-116190726D02*
X70750069Y-116333583D01*
X70750069Y-116333583D02*
X70750069Y-116428821D01*
X70750069Y-116428821D02*
X70702450Y-116571678D01*
X70702450Y-116571678D02*
X70607211Y-116666916D01*
X70607211Y-116666916D02*
X70511973Y-116714535D01*
X70511973Y-116714535D02*
X70321497Y-116762154D01*
X70321497Y-116762154D02*
X70178640Y-116762154D01*
X70178640Y-116762154D02*
X69988164Y-116714535D01*
X69988164Y-116714535D02*
X69892926Y-116666916D01*
X69892926Y-116666916D02*
X69797688Y-116571678D01*
X69797688Y-116571678D02*
X69750069Y-116428821D01*
X69750069Y-116428821D02*
X69750069Y-116333583D01*
X69750069Y-116333583D02*
X69797688Y-116190726D01*
X69797688Y-116190726D02*
X69845307Y-116143107D01*
X70750069Y-115190726D02*
X70750069Y-115762154D01*
X70750069Y-115476440D02*
X69750069Y-115476440D01*
X69750069Y-115476440D02*
X69892926Y-115571678D01*
X69892926Y-115571678D02*
X69988164Y-115666916D01*
X69988164Y-115666916D02*
X70035783Y-115762154D01*
X69845307Y-114809773D02*
X69797688Y-114762154D01*
X69797688Y-114762154D02*
X69750069Y-114666916D01*
X69750069Y-114666916D02*
X69750069Y-114428821D01*
X69750069Y-114428821D02*
X69797688Y-114333583D01*
X69797688Y-114333583D02*
X69845307Y-114285964D01*
X69845307Y-114285964D02*
X69940545Y-114238345D01*
X69940545Y-114238345D02*
X70035783Y-114238345D01*
X70035783Y-114238345D02*
X70178640Y-114285964D01*
X70178640Y-114285964D02*
X70750069Y-114857392D01*
X70750069Y-114857392D02*
X70750069Y-114238345D01*
X110707155Y-121105069D02*
X110707155Y-120105069D01*
X110707155Y-120105069D02*
X110945250Y-120105069D01*
X110945250Y-120105069D02*
X111088107Y-120152688D01*
X111088107Y-120152688D02*
X111183345Y-120247926D01*
X111183345Y-120247926D02*
X111230964Y-120343164D01*
X111230964Y-120343164D02*
X111278583Y-120533640D01*
X111278583Y-120533640D02*
X111278583Y-120676497D01*
X111278583Y-120676497D02*
X111230964Y-120866973D01*
X111230964Y-120866973D02*
X111183345Y-120962211D01*
X111183345Y-120962211D02*
X111088107Y-121057450D01*
X111088107Y-121057450D02*
X110945250Y-121105069D01*
X110945250Y-121105069D02*
X110707155Y-121105069D01*
X112135726Y-120438402D02*
X112135726Y-121105069D01*
X111897631Y-120057450D02*
X111659536Y-120771735D01*
X111659536Y-120771735D02*
X112278583Y-120771735D01*
X301529345Y-106896069D02*
X301529345Y-107705592D01*
X301529345Y-107705592D02*
X301576964Y-107800830D01*
X301576964Y-107800830D02*
X301624583Y-107848450D01*
X301624583Y-107848450D02*
X301719821Y-107896069D01*
X301719821Y-107896069D02*
X301910297Y-107896069D01*
X301910297Y-107896069D02*
X302005535Y-107848450D01*
X302005535Y-107848450D02*
X302053154Y-107800830D01*
X302053154Y-107800830D02*
X302100773Y-107705592D01*
X302100773Y-107705592D02*
X302100773Y-106896069D01*
X302529345Y-106991307D02*
X302576964Y-106943688D01*
X302576964Y-106943688D02*
X302672202Y-106896069D01*
X302672202Y-106896069D02*
X302910297Y-106896069D01*
X302910297Y-106896069D02*
X303005535Y-106943688D01*
X303005535Y-106943688D02*
X303053154Y-106991307D01*
X303053154Y-106991307D02*
X303100773Y-107086545D01*
X303100773Y-107086545D02*
X303100773Y-107181783D01*
X303100773Y-107181783D02*
X303053154Y-107324640D01*
X303053154Y-107324640D02*
X302481726Y-107896069D01*
X302481726Y-107896069D02*
X303100773Y-107896069D01*
X138927155Y-123270069D02*
X138927155Y-122270069D01*
X138927155Y-122270069D02*
X139165250Y-122270069D01*
X139165250Y-122270069D02*
X139308107Y-122317688D01*
X139308107Y-122317688D02*
X139403345Y-122412926D01*
X139403345Y-122412926D02*
X139450964Y-122508164D01*
X139450964Y-122508164D02*
X139498583Y-122698640D01*
X139498583Y-122698640D02*
X139498583Y-122841497D01*
X139498583Y-122841497D02*
X139450964Y-123031973D01*
X139450964Y-123031973D02*
X139403345Y-123127211D01*
X139403345Y-123127211D02*
X139308107Y-123222450D01*
X139308107Y-123222450D02*
X139165250Y-123270069D01*
X139165250Y-123270069D02*
X138927155Y-123270069D01*
X139831917Y-122270069D02*
X140498583Y-122270069D01*
X140498583Y-122270069D02*
X140070012Y-123270069D01*
X198479345Y-108646069D02*
X198479345Y-107646069D01*
X198479345Y-108122259D02*
X199050773Y-108122259D01*
X199050773Y-108646069D02*
X199050773Y-107646069D01*
X199431726Y-107646069D02*
X200050773Y-107646069D01*
X200050773Y-107646069D02*
X199717440Y-108027021D01*
X199717440Y-108027021D02*
X199860297Y-108027021D01*
X199860297Y-108027021D02*
X199955535Y-108074640D01*
X199955535Y-108074640D02*
X200003154Y-108122259D01*
X200003154Y-108122259D02*
X200050773Y-108217497D01*
X200050773Y-108217497D02*
X200050773Y-108455592D01*
X200050773Y-108455592D02*
X200003154Y-108550830D01*
X200003154Y-108550830D02*
X199955535Y-108598450D01*
X199955535Y-108598450D02*
X199860297Y-108646069D01*
X199860297Y-108646069D02*
X199574583Y-108646069D01*
X199574583Y-108646069D02*
X199479345Y-108598450D01*
X199479345Y-108598450D02*
X199431726Y-108550830D01*
X195286069Y-97014583D02*
X196000354Y-97014583D01*
X196000354Y-97014583D02*
X196143211Y-97062202D01*
X196143211Y-97062202D02*
X196238450Y-97157440D01*
X196238450Y-97157440D02*
X196286069Y-97300297D01*
X196286069Y-97300297D02*
X196286069Y-97395535D01*
X195286069Y-96109821D02*
X195286069Y-96300297D01*
X195286069Y-96300297D02*
X195333688Y-96395535D01*
X195333688Y-96395535D02*
X195381307Y-96443154D01*
X195381307Y-96443154D02*
X195524164Y-96538392D01*
X195524164Y-96538392D02*
X195714640Y-96586011D01*
X195714640Y-96586011D02*
X196095592Y-96586011D01*
X196095592Y-96586011D02*
X196190830Y-96538392D01*
X196190830Y-96538392D02*
X196238450Y-96490773D01*
X196238450Y-96490773D02*
X196286069Y-96395535D01*
X196286069Y-96395535D02*
X196286069Y-96205059D01*
X196286069Y-96205059D02*
X196238450Y-96109821D01*
X196238450Y-96109821D02*
X196190830Y-96062202D01*
X196190830Y-96062202D02*
X196095592Y-96014583D01*
X196095592Y-96014583D02*
X195857497Y-96014583D01*
X195857497Y-96014583D02*
X195762259Y-96062202D01*
X195762259Y-96062202D02*
X195714640Y-96109821D01*
X195714640Y-96109821D02*
X195667021Y-96205059D01*
X195667021Y-96205059D02*
X195667021Y-96395535D01*
X195667021Y-96395535D02*
X195714640Y-96490773D01*
X195714640Y-96490773D02*
X195762259Y-96538392D01*
X195762259Y-96538392D02*
X195857497Y-96586011D01*
X76622392Y-119674830D02*
X76574773Y-119722450D01*
X76574773Y-119722450D02*
X76431916Y-119770069D01*
X76431916Y-119770069D02*
X76336678Y-119770069D01*
X76336678Y-119770069D02*
X76193821Y-119722450D01*
X76193821Y-119722450D02*
X76098583Y-119627211D01*
X76098583Y-119627211D02*
X76050964Y-119531973D01*
X76050964Y-119531973D02*
X76003345Y-119341497D01*
X76003345Y-119341497D02*
X76003345Y-119198640D01*
X76003345Y-119198640D02*
X76050964Y-119008164D01*
X76050964Y-119008164D02*
X76098583Y-118912926D01*
X76098583Y-118912926D02*
X76193821Y-118817688D01*
X76193821Y-118817688D02*
X76336678Y-118770069D01*
X76336678Y-118770069D02*
X76431916Y-118770069D01*
X76431916Y-118770069D02*
X76574773Y-118817688D01*
X76574773Y-118817688D02*
X76622392Y-118865307D01*
X77574773Y-119770069D02*
X77003345Y-119770069D01*
X77289059Y-119770069D02*
X77289059Y-118770069D01*
X77289059Y-118770069D02*
X77193821Y-118912926D01*
X77193821Y-118912926D02*
X77098583Y-119008164D01*
X77098583Y-119008164D02*
X77003345Y-119055783D01*
X77908107Y-118770069D02*
X78574773Y-118770069D01*
X78574773Y-118770069D02*
X78146202Y-119770069D01*
X279716069Y-101921607D02*
X279239878Y-102254940D01*
X279716069Y-102493035D02*
X278716069Y-102493035D01*
X278716069Y-102493035D02*
X278716069Y-102112083D01*
X278716069Y-102112083D02*
X278763688Y-102016845D01*
X278763688Y-102016845D02*
X278811307Y-101969226D01*
X278811307Y-101969226D02*
X278906545Y-101921607D01*
X278906545Y-101921607D02*
X279049402Y-101921607D01*
X279049402Y-101921607D02*
X279144640Y-101969226D01*
X279144640Y-101969226D02*
X279192259Y-102016845D01*
X279192259Y-102016845D02*
X279239878Y-102112083D01*
X279239878Y-102112083D02*
X279239878Y-102493035D01*
X279716069Y-100969226D02*
X279716069Y-101540654D01*
X279716069Y-101254940D02*
X278716069Y-101254940D01*
X278716069Y-101254940D02*
X278858926Y-101350178D01*
X278858926Y-101350178D02*
X278954164Y-101445416D01*
X278954164Y-101445416D02*
X279001783Y-101540654D01*
X278716069Y-100112083D02*
X278716069Y-100302559D01*
X278716069Y-100302559D02*
X278763688Y-100397797D01*
X278763688Y-100397797D02*
X278811307Y-100445416D01*
X278811307Y-100445416D02*
X278954164Y-100540654D01*
X278954164Y-100540654D02*
X279144640Y-100588273D01*
X279144640Y-100588273D02*
X279525592Y-100588273D01*
X279525592Y-100588273D02*
X279620830Y-100540654D01*
X279620830Y-100540654D02*
X279668450Y-100493035D01*
X279668450Y-100493035D02*
X279716069Y-100397797D01*
X279716069Y-100397797D02*
X279716069Y-100207321D01*
X279716069Y-100207321D02*
X279668450Y-100112083D01*
X279668450Y-100112083D02*
X279620830Y-100064464D01*
X279620830Y-100064464D02*
X279525592Y-100016845D01*
X279525592Y-100016845D02*
X279287497Y-100016845D01*
X279287497Y-100016845D02*
X279192259Y-100064464D01*
X279192259Y-100064464D02*
X279144640Y-100112083D01*
X279144640Y-100112083D02*
X279097021Y-100207321D01*
X279097021Y-100207321D02*
X279097021Y-100397797D01*
X279097021Y-100397797D02*
X279144640Y-100493035D01*
X279144640Y-100493035D02*
X279192259Y-100540654D01*
X279192259Y-100540654D02*
X279287497Y-100588273D01*
X321555830Y-113797916D02*
X321603450Y-113845535D01*
X321603450Y-113845535D02*
X321651069Y-113988392D01*
X321651069Y-113988392D02*
X321651069Y-114083630D01*
X321651069Y-114083630D02*
X321603450Y-114226487D01*
X321603450Y-114226487D02*
X321508211Y-114321725D01*
X321508211Y-114321725D02*
X321412973Y-114369344D01*
X321412973Y-114369344D02*
X321222497Y-114416963D01*
X321222497Y-114416963D02*
X321079640Y-114416963D01*
X321079640Y-114416963D02*
X320889164Y-114369344D01*
X320889164Y-114369344D02*
X320793926Y-114321725D01*
X320793926Y-114321725D02*
X320698688Y-114226487D01*
X320698688Y-114226487D02*
X320651069Y-114083630D01*
X320651069Y-114083630D02*
X320651069Y-113988392D01*
X320651069Y-113988392D02*
X320698688Y-113845535D01*
X320698688Y-113845535D02*
X320746307Y-113797916D01*
X321651069Y-112845535D02*
X321651069Y-113416963D01*
X321651069Y-113131249D02*
X320651069Y-113131249D01*
X320651069Y-113131249D02*
X320793926Y-113226487D01*
X320793926Y-113226487D02*
X320889164Y-113321725D01*
X320889164Y-113321725D02*
X320936783Y-113416963D01*
X309691307Y-95736488D02*
X309643688Y-95831726D01*
X309643688Y-95831726D02*
X309548450Y-95926964D01*
X309548450Y-95926964D02*
X309405592Y-96069821D01*
X309405592Y-96069821D02*
X309357973Y-96165059D01*
X309357973Y-96165059D02*
X309357973Y-96260297D01*
X309596069Y-96212678D02*
X309548450Y-96307916D01*
X309548450Y-96307916D02*
X309453211Y-96403154D01*
X309453211Y-96403154D02*
X309262735Y-96450773D01*
X309262735Y-96450773D02*
X308929402Y-96450773D01*
X308929402Y-96450773D02*
X308738926Y-96403154D01*
X308738926Y-96403154D02*
X308643688Y-96307916D01*
X308643688Y-96307916D02*
X308596069Y-96212678D01*
X308596069Y-96212678D02*
X308596069Y-96022202D01*
X308596069Y-96022202D02*
X308643688Y-95926964D01*
X308643688Y-95926964D02*
X308738926Y-95831726D01*
X308738926Y-95831726D02*
X308929402Y-95784107D01*
X308929402Y-95784107D02*
X309262735Y-95784107D01*
X309262735Y-95784107D02*
X309453211Y-95831726D01*
X309453211Y-95831726D02*
X309548450Y-95926964D01*
X309548450Y-95926964D02*
X309596069Y-96022202D01*
X309596069Y-96022202D02*
X309596069Y-96212678D01*
X309596069Y-94831726D02*
X309596069Y-95403154D01*
X309596069Y-95117440D02*
X308596069Y-95117440D01*
X308596069Y-95117440D02*
X308738926Y-95212678D01*
X308738926Y-95212678D02*
X308834164Y-95307916D01*
X308834164Y-95307916D02*
X308881783Y-95403154D01*
X145730964Y-121755069D02*
X145730964Y-120755069D01*
X145730964Y-120755069D02*
X145969059Y-120755069D01*
X145969059Y-120755069D02*
X146111916Y-120802688D01*
X146111916Y-120802688D02*
X146207154Y-120897926D01*
X146207154Y-120897926D02*
X146254773Y-120993164D01*
X146254773Y-120993164D02*
X146302392Y-121183640D01*
X146302392Y-121183640D02*
X146302392Y-121326497D01*
X146302392Y-121326497D02*
X146254773Y-121516973D01*
X146254773Y-121516973D02*
X146207154Y-121612211D01*
X146207154Y-121612211D02*
X146111916Y-121707450D01*
X146111916Y-121707450D02*
X145969059Y-121755069D01*
X145969059Y-121755069D02*
X145730964Y-121755069D01*
X147254773Y-121755069D02*
X146683345Y-121755069D01*
X146969059Y-121755069D02*
X146969059Y-120755069D01*
X146969059Y-120755069D02*
X146873821Y-120897926D01*
X146873821Y-120897926D02*
X146778583Y-120993164D01*
X146778583Y-120993164D02*
X146683345Y-121040783D01*
X147873821Y-120755069D02*
X147969059Y-120755069D01*
X147969059Y-120755069D02*
X148064297Y-120802688D01*
X148064297Y-120802688D02*
X148111916Y-120850307D01*
X148111916Y-120850307D02*
X148159535Y-120945545D01*
X148159535Y-120945545D02*
X148207154Y-121136021D01*
X148207154Y-121136021D02*
X148207154Y-121374116D01*
X148207154Y-121374116D02*
X148159535Y-121564592D01*
X148159535Y-121564592D02*
X148111916Y-121659830D01*
X148111916Y-121659830D02*
X148064297Y-121707450D01*
X148064297Y-121707450D02*
X147969059Y-121755069D01*
X147969059Y-121755069D02*
X147873821Y-121755069D01*
X147873821Y-121755069D02*
X147778583Y-121707450D01*
X147778583Y-121707450D02*
X147730964Y-121659830D01*
X147730964Y-121659830D02*
X147683345Y-121564592D01*
X147683345Y-121564592D02*
X147635726Y-121374116D01*
X147635726Y-121374116D02*
X147635726Y-121136021D01*
X147635726Y-121136021D02*
X147683345Y-120945545D01*
X147683345Y-120945545D02*
X147730964Y-120850307D01*
X147730964Y-120850307D02*
X147778583Y-120802688D01*
X147778583Y-120802688D02*
X147873821Y-120755069D01*
X173303345Y-112450069D02*
X173303345Y-113259592D01*
X173303345Y-113259592D02*
X173350964Y-113354830D01*
X173350964Y-113354830D02*
X173398583Y-113402450D01*
X173398583Y-113402450D02*
X173493821Y-113450069D01*
X173493821Y-113450069D02*
X173684297Y-113450069D01*
X173684297Y-113450069D02*
X173779535Y-113402450D01*
X173779535Y-113402450D02*
X173827154Y-113354830D01*
X173827154Y-113354830D02*
X173874773Y-113259592D01*
X173874773Y-113259592D02*
X173874773Y-112450069D01*
X174493821Y-112878640D02*
X174398583Y-112831021D01*
X174398583Y-112831021D02*
X174350964Y-112783402D01*
X174350964Y-112783402D02*
X174303345Y-112688164D01*
X174303345Y-112688164D02*
X174303345Y-112640545D01*
X174303345Y-112640545D02*
X174350964Y-112545307D01*
X174350964Y-112545307D02*
X174398583Y-112497688D01*
X174398583Y-112497688D02*
X174493821Y-112450069D01*
X174493821Y-112450069D02*
X174684297Y-112450069D01*
X174684297Y-112450069D02*
X174779535Y-112497688D01*
X174779535Y-112497688D02*
X174827154Y-112545307D01*
X174827154Y-112545307D02*
X174874773Y-112640545D01*
X174874773Y-112640545D02*
X174874773Y-112688164D01*
X174874773Y-112688164D02*
X174827154Y-112783402D01*
X174827154Y-112783402D02*
X174779535Y-112831021D01*
X174779535Y-112831021D02*
X174684297Y-112878640D01*
X174684297Y-112878640D02*
X174493821Y-112878640D01*
X174493821Y-112878640D02*
X174398583Y-112926259D01*
X174398583Y-112926259D02*
X174350964Y-112973878D01*
X174350964Y-112973878D02*
X174303345Y-113069116D01*
X174303345Y-113069116D02*
X174303345Y-113259592D01*
X174303345Y-113259592D02*
X174350964Y-113354830D01*
X174350964Y-113354830D02*
X174398583Y-113402450D01*
X174398583Y-113402450D02*
X174493821Y-113450069D01*
X174493821Y-113450069D02*
X174684297Y-113450069D01*
X174684297Y-113450069D02*
X174779535Y-113402450D01*
X174779535Y-113402450D02*
X174827154Y-113354830D01*
X174827154Y-113354830D02*
X174874773Y-113259592D01*
X174874773Y-113259592D02*
X174874773Y-113069116D01*
X174874773Y-113069116D02*
X174827154Y-112973878D01*
X174827154Y-112973878D02*
X174779535Y-112926259D01*
X174779535Y-112926259D02*
X174684297Y-112878640D01*
X244896069Y-116384107D02*
X244419878Y-116717440D01*
X244896069Y-116955535D02*
X243896069Y-116955535D01*
X243896069Y-116955535D02*
X243896069Y-116574583D01*
X243896069Y-116574583D02*
X243943688Y-116479345D01*
X243943688Y-116479345D02*
X243991307Y-116431726D01*
X243991307Y-116431726D02*
X244086545Y-116384107D01*
X244086545Y-116384107D02*
X244229402Y-116384107D01*
X244229402Y-116384107D02*
X244324640Y-116431726D01*
X244324640Y-116431726D02*
X244372259Y-116479345D01*
X244372259Y-116479345D02*
X244419878Y-116574583D01*
X244419878Y-116574583D02*
X244419878Y-116955535D01*
X244896069Y-115431726D02*
X244896069Y-116003154D01*
X244896069Y-115717440D02*
X243896069Y-115717440D01*
X243896069Y-115717440D02*
X244038926Y-115812678D01*
X244038926Y-115812678D02*
X244134164Y-115907916D01*
X244134164Y-115907916D02*
X244181783Y-116003154D01*
X243896069Y-114812678D02*
X243896069Y-114717440D01*
X243896069Y-114717440D02*
X243943688Y-114622202D01*
X243943688Y-114622202D02*
X243991307Y-114574583D01*
X243991307Y-114574583D02*
X244086545Y-114526964D01*
X244086545Y-114526964D02*
X244277021Y-114479345D01*
X244277021Y-114479345D02*
X244515116Y-114479345D01*
X244515116Y-114479345D02*
X244705592Y-114526964D01*
X244705592Y-114526964D02*
X244800830Y-114574583D01*
X244800830Y-114574583D02*
X244848450Y-114622202D01*
X244848450Y-114622202D02*
X244896069Y-114717440D01*
X244896069Y-114717440D02*
X244896069Y-114812678D01*
X244896069Y-114812678D02*
X244848450Y-114907916D01*
X244848450Y-114907916D02*
X244800830Y-114955535D01*
X244800830Y-114955535D02*
X244705592Y-115003154D01*
X244705592Y-115003154D02*
X244515116Y-115050773D01*
X244515116Y-115050773D02*
X244277021Y-115050773D01*
X244277021Y-115050773D02*
X244086545Y-115003154D01*
X244086545Y-115003154D02*
X243991307Y-114955535D01*
X243991307Y-114955535D02*
X243943688Y-114907916D01*
X243943688Y-114907916D02*
X243896069Y-114812678D01*
X70654830Y-120143107D02*
X70702450Y-120190726D01*
X70702450Y-120190726D02*
X70750069Y-120333583D01*
X70750069Y-120333583D02*
X70750069Y-120428821D01*
X70750069Y-120428821D02*
X70702450Y-120571678D01*
X70702450Y-120571678D02*
X70607211Y-120666916D01*
X70607211Y-120666916D02*
X70511973Y-120714535D01*
X70511973Y-120714535D02*
X70321497Y-120762154D01*
X70321497Y-120762154D02*
X70178640Y-120762154D01*
X70178640Y-120762154D02*
X69988164Y-120714535D01*
X69988164Y-120714535D02*
X69892926Y-120666916D01*
X69892926Y-120666916D02*
X69797688Y-120571678D01*
X69797688Y-120571678D02*
X69750069Y-120428821D01*
X69750069Y-120428821D02*
X69750069Y-120333583D01*
X69750069Y-120333583D02*
X69797688Y-120190726D01*
X69797688Y-120190726D02*
X69845307Y-120143107D01*
X70750069Y-119190726D02*
X70750069Y-119762154D01*
X70750069Y-119476440D02*
X69750069Y-119476440D01*
X69750069Y-119476440D02*
X69892926Y-119571678D01*
X69892926Y-119571678D02*
X69988164Y-119666916D01*
X69988164Y-119666916D02*
X70035783Y-119762154D01*
X69750069Y-118571678D02*
X69750069Y-118476440D01*
X69750069Y-118476440D02*
X69797688Y-118381202D01*
X69797688Y-118381202D02*
X69845307Y-118333583D01*
X69845307Y-118333583D02*
X69940545Y-118285964D01*
X69940545Y-118285964D02*
X70131021Y-118238345D01*
X70131021Y-118238345D02*
X70369116Y-118238345D01*
X70369116Y-118238345D02*
X70559592Y-118285964D01*
X70559592Y-118285964D02*
X70654830Y-118333583D01*
X70654830Y-118333583D02*
X70702450Y-118381202D01*
X70702450Y-118381202D02*
X70750069Y-118476440D01*
X70750069Y-118476440D02*
X70750069Y-118571678D01*
X70750069Y-118571678D02*
X70702450Y-118666916D01*
X70702450Y-118666916D02*
X70654830Y-118714535D01*
X70654830Y-118714535D02*
X70559592Y-118762154D01*
X70559592Y-118762154D02*
X70369116Y-118809773D01*
X70369116Y-118809773D02*
X70131021Y-118809773D01*
X70131021Y-118809773D02*
X69940545Y-118762154D01*
X69940545Y-118762154D02*
X69845307Y-118714535D01*
X69845307Y-118714535D02*
X69797688Y-118666916D01*
X69797688Y-118666916D02*
X69750069Y-118571678D01*
X308674583Y-116570830D02*
X308626964Y-116618450D01*
X308626964Y-116618450D02*
X308484107Y-116666069D01*
X308484107Y-116666069D02*
X308388869Y-116666069D01*
X308388869Y-116666069D02*
X308246012Y-116618450D01*
X308246012Y-116618450D02*
X308150774Y-116523211D01*
X308150774Y-116523211D02*
X308103155Y-116427973D01*
X308103155Y-116427973D02*
X308055536Y-116237497D01*
X308055536Y-116237497D02*
X308055536Y-116094640D01*
X308055536Y-116094640D02*
X308103155Y-115904164D01*
X308103155Y-115904164D02*
X308150774Y-115808926D01*
X308150774Y-115808926D02*
X308246012Y-115713688D01*
X308246012Y-115713688D02*
X308388869Y-115666069D01*
X308388869Y-115666069D02*
X308484107Y-115666069D01*
X308484107Y-115666069D02*
X308626964Y-115713688D01*
X308626964Y-115713688D02*
X308674583Y-115761307D01*
X309531726Y-115666069D02*
X309341250Y-115666069D01*
X309341250Y-115666069D02*
X309246012Y-115713688D01*
X309246012Y-115713688D02*
X309198393Y-115761307D01*
X309198393Y-115761307D02*
X309103155Y-115904164D01*
X309103155Y-115904164D02*
X309055536Y-116094640D01*
X309055536Y-116094640D02*
X309055536Y-116475592D01*
X309055536Y-116475592D02*
X309103155Y-116570830D01*
X309103155Y-116570830D02*
X309150774Y-116618450D01*
X309150774Y-116618450D02*
X309246012Y-116666069D01*
X309246012Y-116666069D02*
X309436488Y-116666069D01*
X309436488Y-116666069D02*
X309531726Y-116618450D01*
X309531726Y-116618450D02*
X309579345Y-116570830D01*
X309579345Y-116570830D02*
X309626964Y-116475592D01*
X309626964Y-116475592D02*
X309626964Y-116237497D01*
X309626964Y-116237497D02*
X309579345Y-116142259D01*
X309579345Y-116142259D02*
X309531726Y-116094640D01*
X309531726Y-116094640D02*
X309436488Y-116047021D01*
X309436488Y-116047021D02*
X309246012Y-116047021D01*
X309246012Y-116047021D02*
X309150774Y-116094640D01*
X309150774Y-116094640D02*
X309103155Y-116142259D01*
X309103155Y-116142259D02*
X309055536Y-116237497D01*
D11*
X241606726Y-93833068D02*
X241606726Y-94740211D01*
X241606726Y-94740211D02*
X241546249Y-94921639D01*
X241546249Y-94921639D02*
X241425297Y-95042592D01*
X241425297Y-95042592D02*
X241243868Y-95103068D01*
X241243868Y-95103068D02*
X241122916Y-95103068D01*
X241909107Y-95224020D02*
X242876726Y-95224020D01*
X243179106Y-95103068D02*
X243179106Y-93833068D01*
X243179106Y-93833068D02*
X243602440Y-94740211D01*
X243602440Y-94740211D02*
X244025773Y-93833068D01*
X244025773Y-93833068D02*
X244025773Y-95103068D01*
X244630535Y-95103068D02*
X244630535Y-93833068D01*
X245235297Y-95103068D02*
X245235297Y-93833068D01*
X245235297Y-93833068D02*
X245537678Y-93833068D01*
X245537678Y-93833068D02*
X245719107Y-93893544D01*
X245719107Y-93893544D02*
X245840059Y-94014496D01*
X245840059Y-94014496D02*
X245900536Y-94135449D01*
X245900536Y-94135449D02*
X245961012Y-94377353D01*
X245961012Y-94377353D02*
X245961012Y-94558782D01*
X245961012Y-94558782D02*
X245900536Y-94800687D01*
X245900536Y-94800687D02*
X245840059Y-94921639D01*
X245840059Y-94921639D02*
X245719107Y-95042592D01*
X245719107Y-95042592D02*
X245537678Y-95103068D01*
X245537678Y-95103068D02*
X245235297Y-95103068D01*
X246505297Y-95103068D02*
X246505297Y-93833068D01*
X246807679Y-95224020D02*
X247775298Y-95224020D01*
X248319583Y-93833068D02*
X248561488Y-93833068D01*
X248561488Y-93833068D02*
X248682440Y-93893544D01*
X248682440Y-93893544D02*
X248803393Y-94014496D01*
X248803393Y-94014496D02*
X248863869Y-94256401D01*
X248863869Y-94256401D02*
X248863869Y-94679734D01*
X248863869Y-94679734D02*
X248803393Y-94921639D01*
X248803393Y-94921639D02*
X248682440Y-95042592D01*
X248682440Y-95042592D02*
X248561488Y-95103068D01*
X248561488Y-95103068D02*
X248319583Y-95103068D01*
X248319583Y-95103068D02*
X248198631Y-95042592D01*
X248198631Y-95042592D02*
X248077678Y-94921639D01*
X248077678Y-94921639D02*
X248017202Y-94679734D01*
X248017202Y-94679734D02*
X248017202Y-94256401D01*
X248017202Y-94256401D02*
X248077678Y-94014496D01*
X248077678Y-94014496D02*
X248198631Y-93893544D01*
X248198631Y-93893544D02*
X248319583Y-93833068D01*
X249408154Y-93833068D02*
X249408154Y-94861163D01*
X249408154Y-94861163D02*
X249468631Y-94982115D01*
X249468631Y-94982115D02*
X249529107Y-95042592D01*
X249529107Y-95042592D02*
X249650059Y-95103068D01*
X249650059Y-95103068D02*
X249891964Y-95103068D01*
X249891964Y-95103068D02*
X250012916Y-95042592D01*
X250012916Y-95042592D02*
X250073393Y-94982115D01*
X250073393Y-94982115D02*
X250133869Y-94861163D01*
X250133869Y-94861163D02*
X250133869Y-93833068D01*
X250557202Y-93833068D02*
X251282916Y-93833068D01*
X250920059Y-95103068D02*
X250920059Y-93833068D01*
X251403869Y-95224020D02*
X252371488Y-95224020D01*
X253339107Y-95103068D02*
X252613392Y-95103068D01*
X252976249Y-95103068D02*
X252976249Y-93833068D01*
X252976249Y-93833068D02*
X252855297Y-94014496D01*
X252855297Y-94014496D02*
X252734345Y-94135449D01*
X252734345Y-94135449D02*
X252613392Y-94195925D01*
D10*
X88550069Y-118262154D02*
X89359592Y-118262154D01*
X89359592Y-118262154D02*
X89454830Y-118214535D01*
X89454830Y-118214535D02*
X89502450Y-118166916D01*
X89502450Y-118166916D02*
X89550069Y-118071678D01*
X89550069Y-118071678D02*
X89550069Y-117881202D01*
X89550069Y-117881202D02*
X89502450Y-117785964D01*
X89502450Y-117785964D02*
X89454830Y-117738345D01*
X89454830Y-117738345D02*
X89359592Y-117690726D01*
X89359592Y-117690726D02*
X88550069Y-117690726D01*
X88550069Y-116785964D02*
X88550069Y-116976440D01*
X88550069Y-116976440D02*
X88597688Y-117071678D01*
X88597688Y-117071678D02*
X88645307Y-117119297D01*
X88645307Y-117119297D02*
X88788164Y-117214535D01*
X88788164Y-117214535D02*
X88978640Y-117262154D01*
X88978640Y-117262154D02*
X89359592Y-117262154D01*
X89359592Y-117262154D02*
X89454830Y-117214535D01*
X89454830Y-117214535D02*
X89502450Y-117166916D01*
X89502450Y-117166916D02*
X89550069Y-117071678D01*
X89550069Y-117071678D02*
X89550069Y-116881202D01*
X89550069Y-116881202D02*
X89502450Y-116785964D01*
X89502450Y-116785964D02*
X89454830Y-116738345D01*
X89454830Y-116738345D02*
X89359592Y-116690726D01*
X89359592Y-116690726D02*
X89121497Y-116690726D01*
X89121497Y-116690726D02*
X89026259Y-116738345D01*
X89026259Y-116738345D02*
X88978640Y-116785964D01*
X88978640Y-116785964D02*
X88931021Y-116881202D01*
X88931021Y-116881202D02*
X88931021Y-117071678D01*
X88931021Y-117071678D02*
X88978640Y-117166916D01*
X88978640Y-117166916D02*
X89026259Y-117214535D01*
X89026259Y-117214535D02*
X89121497Y-117262154D01*
X80827155Y-121320069D02*
X80827155Y-120320069D01*
X80827155Y-120320069D02*
X81065250Y-120320069D01*
X81065250Y-120320069D02*
X81208107Y-120367688D01*
X81208107Y-120367688D02*
X81303345Y-120462926D01*
X81303345Y-120462926D02*
X81350964Y-120558164D01*
X81350964Y-120558164D02*
X81398583Y-120748640D01*
X81398583Y-120748640D02*
X81398583Y-120891497D01*
X81398583Y-120891497D02*
X81350964Y-121081973D01*
X81350964Y-121081973D02*
X81303345Y-121177211D01*
X81303345Y-121177211D02*
X81208107Y-121272450D01*
X81208107Y-121272450D02*
X81065250Y-121320069D01*
X81065250Y-121320069D02*
X80827155Y-121320069D01*
X81731917Y-120320069D02*
X82350964Y-120320069D01*
X82350964Y-120320069D02*
X82017631Y-120701021D01*
X82017631Y-120701021D02*
X82160488Y-120701021D01*
X82160488Y-120701021D02*
X82255726Y-120748640D01*
X82255726Y-120748640D02*
X82303345Y-120796259D01*
X82303345Y-120796259D02*
X82350964Y-120891497D01*
X82350964Y-120891497D02*
X82350964Y-121129592D01*
X82350964Y-121129592D02*
X82303345Y-121224830D01*
X82303345Y-121224830D02*
X82255726Y-121272450D01*
X82255726Y-121272450D02*
X82160488Y-121320069D01*
X82160488Y-121320069D02*
X81874774Y-121320069D01*
X81874774Y-121320069D02*
X81779536Y-121272450D01*
X81779536Y-121272450D02*
X81731917Y-121224830D01*
X250046069Y-115357916D02*
X249569878Y-115691249D01*
X250046069Y-115929344D02*
X249046069Y-115929344D01*
X249046069Y-115929344D02*
X249046069Y-115548392D01*
X249046069Y-115548392D02*
X249093688Y-115453154D01*
X249093688Y-115453154D02*
X249141307Y-115405535D01*
X249141307Y-115405535D02*
X249236545Y-115357916D01*
X249236545Y-115357916D02*
X249379402Y-115357916D01*
X249379402Y-115357916D02*
X249474640Y-115405535D01*
X249474640Y-115405535D02*
X249522259Y-115453154D01*
X249522259Y-115453154D02*
X249569878Y-115548392D01*
X249569878Y-115548392D02*
X249569878Y-115929344D01*
X249046069Y-115024582D02*
X249046069Y-114357916D01*
X249046069Y-114357916D02*
X250046069Y-114786487D01*
X118329345Y-133746069D02*
X118329345Y-132746069D01*
X118329345Y-133222259D02*
X118900773Y-133222259D01*
X118900773Y-133746069D02*
X118900773Y-132746069D01*
X119329345Y-132841307D02*
X119376964Y-132793688D01*
X119376964Y-132793688D02*
X119472202Y-132746069D01*
X119472202Y-132746069D02*
X119710297Y-132746069D01*
X119710297Y-132746069D02*
X119805535Y-132793688D01*
X119805535Y-132793688D02*
X119853154Y-132841307D01*
X119853154Y-132841307D02*
X119900773Y-132936545D01*
X119900773Y-132936545D02*
X119900773Y-133031783D01*
X119900773Y-133031783D02*
X119853154Y-133174640D01*
X119853154Y-133174640D02*
X119281726Y-133746069D01*
X119281726Y-133746069D02*
X119900773Y-133746069D01*
X71854830Y-120143107D02*
X71902450Y-120190726D01*
X71902450Y-120190726D02*
X71950069Y-120333583D01*
X71950069Y-120333583D02*
X71950069Y-120428821D01*
X71950069Y-120428821D02*
X71902450Y-120571678D01*
X71902450Y-120571678D02*
X71807211Y-120666916D01*
X71807211Y-120666916D02*
X71711973Y-120714535D01*
X71711973Y-120714535D02*
X71521497Y-120762154D01*
X71521497Y-120762154D02*
X71378640Y-120762154D01*
X71378640Y-120762154D02*
X71188164Y-120714535D01*
X71188164Y-120714535D02*
X71092926Y-120666916D01*
X71092926Y-120666916D02*
X70997688Y-120571678D01*
X70997688Y-120571678D02*
X70950069Y-120428821D01*
X70950069Y-120428821D02*
X70950069Y-120333583D01*
X70950069Y-120333583D02*
X70997688Y-120190726D01*
X70997688Y-120190726D02*
X71045307Y-120143107D01*
X71950069Y-119190726D02*
X71950069Y-119762154D01*
X71950069Y-119476440D02*
X70950069Y-119476440D01*
X70950069Y-119476440D02*
X71092926Y-119571678D01*
X71092926Y-119571678D02*
X71188164Y-119666916D01*
X71188164Y-119666916D02*
X71235783Y-119762154D01*
X71950069Y-118238345D02*
X71950069Y-118809773D01*
X71950069Y-118524059D02*
X70950069Y-118524059D01*
X70950069Y-118524059D02*
X71092926Y-118619297D01*
X71092926Y-118619297D02*
X71188164Y-118714535D01*
X71188164Y-118714535D02*
X71235783Y-118809773D01*
X244805892Y-98893569D02*
X244472559Y-98417378D01*
X244234464Y-98893569D02*
X244234464Y-97893569D01*
X244234464Y-97893569D02*
X244615416Y-97893569D01*
X244615416Y-97893569D02*
X244710654Y-97941188D01*
X244710654Y-97941188D02*
X244758273Y-97988807D01*
X244758273Y-97988807D02*
X244805892Y-98084045D01*
X244805892Y-98084045D02*
X244805892Y-98226902D01*
X244805892Y-98226902D02*
X244758273Y-98322140D01*
X244758273Y-98322140D02*
X244710654Y-98369759D01*
X244710654Y-98369759D02*
X244615416Y-98417378D01*
X244615416Y-98417378D02*
X244234464Y-98417378D01*
X245758273Y-98893569D02*
X245186845Y-98893569D01*
X245472559Y-98893569D02*
X245472559Y-97893569D01*
X245472559Y-97893569D02*
X245377321Y-98036426D01*
X245377321Y-98036426D02*
X245282083Y-98131664D01*
X245282083Y-98131664D02*
X245186845Y-98179283D01*
X246139226Y-97988807D02*
X246186845Y-97941188D01*
X246186845Y-97941188D02*
X246282083Y-97893569D01*
X246282083Y-97893569D02*
X246520178Y-97893569D01*
X246520178Y-97893569D02*
X246615416Y-97941188D01*
X246615416Y-97941188D02*
X246663035Y-97988807D01*
X246663035Y-97988807D02*
X246710654Y-98084045D01*
X246710654Y-98084045D02*
X246710654Y-98179283D01*
X246710654Y-98179283D02*
X246663035Y-98322140D01*
X246663035Y-98322140D02*
X246091607Y-98893569D01*
X246091607Y-98893569D02*
X246710654Y-98893569D01*
X84897392Y-116465069D02*
X84564059Y-115988878D01*
X84325964Y-116465069D02*
X84325964Y-115465069D01*
X84325964Y-115465069D02*
X84706916Y-115465069D01*
X84706916Y-115465069D02*
X84802154Y-115512688D01*
X84802154Y-115512688D02*
X84849773Y-115560307D01*
X84849773Y-115560307D02*
X84897392Y-115655545D01*
X84897392Y-115655545D02*
X84897392Y-115798402D01*
X84897392Y-115798402D02*
X84849773Y-115893640D01*
X84849773Y-115893640D02*
X84802154Y-115941259D01*
X84802154Y-115941259D02*
X84706916Y-115988878D01*
X84706916Y-115988878D02*
X84325964Y-115988878D01*
X85278345Y-115560307D02*
X85325964Y-115512688D01*
X85325964Y-115512688D02*
X85421202Y-115465069D01*
X85421202Y-115465069D02*
X85659297Y-115465069D01*
X85659297Y-115465069D02*
X85754535Y-115512688D01*
X85754535Y-115512688D02*
X85802154Y-115560307D01*
X85802154Y-115560307D02*
X85849773Y-115655545D01*
X85849773Y-115655545D02*
X85849773Y-115750783D01*
X85849773Y-115750783D02*
X85802154Y-115893640D01*
X85802154Y-115893640D02*
X85230726Y-116465069D01*
X85230726Y-116465069D02*
X85849773Y-116465069D01*
X86802154Y-116465069D02*
X86230726Y-116465069D01*
X86516440Y-116465069D02*
X86516440Y-115465069D01*
X86516440Y-115465069D02*
X86421202Y-115607926D01*
X86421202Y-115607926D02*
X86325964Y-115703164D01*
X86325964Y-115703164D02*
X86230726Y-115750783D01*
X71854830Y-116143107D02*
X71902450Y-116190726D01*
X71902450Y-116190726D02*
X71950069Y-116333583D01*
X71950069Y-116333583D02*
X71950069Y-116428821D01*
X71950069Y-116428821D02*
X71902450Y-116571678D01*
X71902450Y-116571678D02*
X71807211Y-116666916D01*
X71807211Y-116666916D02*
X71711973Y-116714535D01*
X71711973Y-116714535D02*
X71521497Y-116762154D01*
X71521497Y-116762154D02*
X71378640Y-116762154D01*
X71378640Y-116762154D02*
X71188164Y-116714535D01*
X71188164Y-116714535D02*
X71092926Y-116666916D01*
X71092926Y-116666916D02*
X70997688Y-116571678D01*
X70997688Y-116571678D02*
X70950069Y-116428821D01*
X70950069Y-116428821D02*
X70950069Y-116333583D01*
X70950069Y-116333583D02*
X70997688Y-116190726D01*
X70997688Y-116190726D02*
X71045307Y-116143107D01*
X71950069Y-115190726D02*
X71950069Y-115762154D01*
X71950069Y-115476440D02*
X70950069Y-115476440D01*
X70950069Y-115476440D02*
X71092926Y-115571678D01*
X71092926Y-115571678D02*
X71188164Y-115666916D01*
X71188164Y-115666916D02*
X71235783Y-115762154D01*
X70950069Y-114857392D02*
X70950069Y-114238345D01*
X70950069Y-114238345D02*
X71331021Y-114571678D01*
X71331021Y-114571678D02*
X71331021Y-114428821D01*
X71331021Y-114428821D02*
X71378640Y-114333583D01*
X71378640Y-114333583D02*
X71426259Y-114285964D01*
X71426259Y-114285964D02*
X71521497Y-114238345D01*
X71521497Y-114238345D02*
X71759592Y-114238345D01*
X71759592Y-114238345D02*
X71854830Y-114285964D01*
X71854830Y-114285964D02*
X71902450Y-114333583D01*
X71902450Y-114333583D02*
X71950069Y-114428821D01*
X71950069Y-114428821D02*
X71950069Y-114714535D01*
X71950069Y-114714535D02*
X71902450Y-114809773D01*
X71902450Y-114809773D02*
X71854830Y-114857392D01*
X301274583Y-100358569D02*
X300941250Y-99882378D01*
X300703155Y-100358569D02*
X300703155Y-99358569D01*
X300703155Y-99358569D02*
X301084107Y-99358569D01*
X301084107Y-99358569D02*
X301179345Y-99406188D01*
X301179345Y-99406188D02*
X301226964Y-99453807D01*
X301226964Y-99453807D02*
X301274583Y-99549045D01*
X301274583Y-99549045D02*
X301274583Y-99691902D01*
X301274583Y-99691902D02*
X301226964Y-99787140D01*
X301226964Y-99787140D02*
X301179345Y-99834759D01*
X301179345Y-99834759D02*
X301084107Y-99882378D01*
X301084107Y-99882378D02*
X300703155Y-99882378D01*
X301655536Y-99453807D02*
X301703155Y-99406188D01*
X301703155Y-99406188D02*
X301798393Y-99358569D01*
X301798393Y-99358569D02*
X302036488Y-99358569D01*
X302036488Y-99358569D02*
X302131726Y-99406188D01*
X302131726Y-99406188D02*
X302179345Y-99453807D01*
X302179345Y-99453807D02*
X302226964Y-99549045D01*
X302226964Y-99549045D02*
X302226964Y-99644283D01*
X302226964Y-99644283D02*
X302179345Y-99787140D01*
X302179345Y-99787140D02*
X301607917Y-100358569D01*
X301607917Y-100358569D02*
X302226964Y-100358569D01*
X186282736Y-100434107D02*
X185806545Y-100767440D01*
X186282736Y-101005535D02*
X185282736Y-101005535D01*
X185282736Y-101005535D02*
X185282736Y-100624583D01*
X185282736Y-100624583D02*
X185330355Y-100529345D01*
X185330355Y-100529345D02*
X185377974Y-100481726D01*
X185377974Y-100481726D02*
X185473212Y-100434107D01*
X185473212Y-100434107D02*
X185616069Y-100434107D01*
X185616069Y-100434107D02*
X185711307Y-100481726D01*
X185711307Y-100481726D02*
X185758926Y-100529345D01*
X185758926Y-100529345D02*
X185806545Y-100624583D01*
X185806545Y-100624583D02*
X185806545Y-101005535D01*
X185377974Y-100053154D02*
X185330355Y-100005535D01*
X185330355Y-100005535D02*
X185282736Y-99910297D01*
X185282736Y-99910297D02*
X185282736Y-99672202D01*
X185282736Y-99672202D02*
X185330355Y-99576964D01*
X185330355Y-99576964D02*
X185377974Y-99529345D01*
X185377974Y-99529345D02*
X185473212Y-99481726D01*
X185473212Y-99481726D02*
X185568450Y-99481726D01*
X185568450Y-99481726D02*
X185711307Y-99529345D01*
X185711307Y-99529345D02*
X186282736Y-100100773D01*
X186282736Y-100100773D02*
X186282736Y-99481726D01*
X185282736Y-98576964D02*
X185282736Y-99053154D01*
X185282736Y-99053154D02*
X185758926Y-99100773D01*
X185758926Y-99100773D02*
X185711307Y-99053154D01*
X185711307Y-99053154D02*
X185663688Y-98957916D01*
X185663688Y-98957916D02*
X185663688Y-98719821D01*
X185663688Y-98719821D02*
X185711307Y-98624583D01*
X185711307Y-98624583D02*
X185758926Y-98576964D01*
X185758926Y-98576964D02*
X185854164Y-98529345D01*
X185854164Y-98529345D02*
X186092259Y-98529345D01*
X186092259Y-98529345D02*
X186187497Y-98576964D01*
X186187497Y-98576964D02*
X186235117Y-98624583D01*
X186235117Y-98624583D02*
X186282736Y-98719821D01*
X186282736Y-98719821D02*
X186282736Y-98957916D01*
X186282736Y-98957916D02*
X186235117Y-99053154D01*
X186235117Y-99053154D02*
X186187497Y-99100773D01*
X114402392Y-116325069D02*
X114069059Y-115848878D01*
X113830964Y-116325069D02*
X113830964Y-115325069D01*
X113830964Y-115325069D02*
X114211916Y-115325069D01*
X114211916Y-115325069D02*
X114307154Y-115372688D01*
X114307154Y-115372688D02*
X114354773Y-115420307D01*
X114354773Y-115420307D02*
X114402392Y-115515545D01*
X114402392Y-115515545D02*
X114402392Y-115658402D01*
X114402392Y-115658402D02*
X114354773Y-115753640D01*
X114354773Y-115753640D02*
X114307154Y-115801259D01*
X114307154Y-115801259D02*
X114211916Y-115848878D01*
X114211916Y-115848878D02*
X113830964Y-115848878D01*
X114783345Y-115420307D02*
X114830964Y-115372688D01*
X114830964Y-115372688D02*
X114926202Y-115325069D01*
X114926202Y-115325069D02*
X115164297Y-115325069D01*
X115164297Y-115325069D02*
X115259535Y-115372688D01*
X115259535Y-115372688D02*
X115307154Y-115420307D01*
X115307154Y-115420307D02*
X115354773Y-115515545D01*
X115354773Y-115515545D02*
X115354773Y-115610783D01*
X115354773Y-115610783D02*
X115307154Y-115753640D01*
X115307154Y-115753640D02*
X114735726Y-116325069D01*
X114735726Y-116325069D02*
X115354773Y-116325069D01*
X115688107Y-115325069D02*
X116307154Y-115325069D01*
X116307154Y-115325069D02*
X115973821Y-115706021D01*
X115973821Y-115706021D02*
X116116678Y-115706021D01*
X116116678Y-115706021D02*
X116211916Y-115753640D01*
X116211916Y-115753640D02*
X116259535Y-115801259D01*
X116259535Y-115801259D02*
X116307154Y-115896497D01*
X116307154Y-115896497D02*
X116307154Y-116134592D01*
X116307154Y-116134592D02*
X116259535Y-116229830D01*
X116259535Y-116229830D02*
X116211916Y-116277450D01*
X116211916Y-116277450D02*
X116116678Y-116325069D01*
X116116678Y-116325069D02*
X115830964Y-116325069D01*
X115830964Y-116325069D02*
X115735726Y-116277450D01*
X115735726Y-116277450D02*
X115688107Y-116229830D01*
X100804830Y-116143107D02*
X100852450Y-116190726D01*
X100852450Y-116190726D02*
X100900069Y-116333583D01*
X100900069Y-116333583D02*
X100900069Y-116428821D01*
X100900069Y-116428821D02*
X100852450Y-116571678D01*
X100852450Y-116571678D02*
X100757211Y-116666916D01*
X100757211Y-116666916D02*
X100661973Y-116714535D01*
X100661973Y-116714535D02*
X100471497Y-116762154D01*
X100471497Y-116762154D02*
X100328640Y-116762154D01*
X100328640Y-116762154D02*
X100138164Y-116714535D01*
X100138164Y-116714535D02*
X100042926Y-116666916D01*
X100042926Y-116666916D02*
X99947688Y-116571678D01*
X99947688Y-116571678D02*
X99900069Y-116428821D01*
X99900069Y-116428821D02*
X99900069Y-116333583D01*
X99900069Y-116333583D02*
X99947688Y-116190726D01*
X99947688Y-116190726D02*
X99995307Y-116143107D01*
X100900069Y-115190726D02*
X100900069Y-115762154D01*
X100900069Y-115476440D02*
X99900069Y-115476440D01*
X99900069Y-115476440D02*
X100042926Y-115571678D01*
X100042926Y-115571678D02*
X100138164Y-115666916D01*
X100138164Y-115666916D02*
X100185783Y-115762154D01*
X99900069Y-114333583D02*
X99900069Y-114524059D01*
X99900069Y-114524059D02*
X99947688Y-114619297D01*
X99947688Y-114619297D02*
X99995307Y-114666916D01*
X99995307Y-114666916D02*
X100138164Y-114762154D01*
X100138164Y-114762154D02*
X100328640Y-114809773D01*
X100328640Y-114809773D02*
X100709592Y-114809773D01*
X100709592Y-114809773D02*
X100804830Y-114762154D01*
X100804830Y-114762154D02*
X100852450Y-114714535D01*
X100852450Y-114714535D02*
X100900069Y-114619297D01*
X100900069Y-114619297D02*
X100900069Y-114428821D01*
X100900069Y-114428821D02*
X100852450Y-114333583D01*
X100852450Y-114333583D02*
X100804830Y-114285964D01*
X100804830Y-114285964D02*
X100709592Y-114238345D01*
X100709592Y-114238345D02*
X100471497Y-114238345D01*
X100471497Y-114238345D02*
X100376259Y-114285964D01*
X100376259Y-114285964D02*
X100328640Y-114333583D01*
X100328640Y-114333583D02*
X100281021Y-114428821D01*
X100281021Y-114428821D02*
X100281021Y-114619297D01*
X100281021Y-114619297D02*
X100328640Y-114714535D01*
X100328640Y-114714535D02*
X100376259Y-114762154D01*
X100376259Y-114762154D02*
X100471497Y-114809773D01*
D12*
X262709572Y-115385931D02*
X261385386Y-115385931D01*
X261385386Y-115385931D02*
X261229599Y-115463825D01*
X261229599Y-115463825D02*
X261151706Y-115541718D01*
X261151706Y-115541718D02*
X261073812Y-115697505D01*
X261073812Y-115697505D02*
X261073812Y-116009078D01*
X261073812Y-116009078D02*
X261151706Y-116164865D01*
X261151706Y-116164865D02*
X261229599Y-116242758D01*
X261229599Y-116242758D02*
X261385386Y-116320651D01*
X261385386Y-116320651D02*
X262709572Y-116320651D01*
X262709572Y-116943798D02*
X262709572Y-117956411D01*
X262709572Y-117956411D02*
X262086426Y-117411158D01*
X262086426Y-117411158D02*
X262086426Y-117644838D01*
X262086426Y-117644838D02*
X262008532Y-117800624D01*
X262008532Y-117800624D02*
X261930639Y-117878518D01*
X261930639Y-117878518D02*
X261774852Y-117956411D01*
X261774852Y-117956411D02*
X261385386Y-117956411D01*
X261385386Y-117956411D02*
X261229599Y-117878518D01*
X261229599Y-117878518D02*
X261151706Y-117800624D01*
X261151706Y-117800624D02*
X261073812Y-117644838D01*
X261073812Y-117644838D02*
X261073812Y-117177478D01*
X261073812Y-117177478D02*
X261151706Y-117021691D01*
X261151706Y-117021691D02*
X261229599Y-116943798D01*
D13*
X256526488Y-115638250D02*
X255769810Y-115638250D01*
X255769810Y-115638250D02*
X255680789Y-115682760D01*
X255680789Y-115682760D02*
X255636279Y-115727271D01*
X255636279Y-115727271D02*
X255591768Y-115816292D01*
X255591768Y-115816292D02*
X255591768Y-115994334D01*
X255591768Y-115994334D02*
X255636279Y-116083355D01*
X255636279Y-116083355D02*
X255680789Y-116127865D01*
X255680789Y-116127865D02*
X255769810Y-116172376D01*
X255769810Y-116172376D02*
X256526488Y-116172376D01*
X255636279Y-116572969D02*
X255591768Y-116706501D01*
X255591768Y-116706501D02*
X255591768Y-116929053D01*
X255591768Y-116929053D02*
X255636279Y-117018074D01*
X255636279Y-117018074D02*
X255680789Y-117062585D01*
X255680789Y-117062585D02*
X255769810Y-117107095D01*
X255769810Y-117107095D02*
X255858831Y-117107095D01*
X255858831Y-117107095D02*
X255947852Y-117062585D01*
X255947852Y-117062585D02*
X255992362Y-117018074D01*
X255992362Y-117018074D02*
X256036873Y-116929053D01*
X256036873Y-116929053D02*
X256081383Y-116751011D01*
X256081383Y-116751011D02*
X256125894Y-116661990D01*
X256125894Y-116661990D02*
X256170404Y-116617480D01*
X256170404Y-116617480D02*
X256259425Y-116572969D01*
X256259425Y-116572969D02*
X256348446Y-116572969D01*
X256348446Y-116572969D02*
X256437467Y-116617480D01*
X256437467Y-116617480D02*
X256481978Y-116661990D01*
X256481978Y-116661990D02*
X256526488Y-116751011D01*
X256526488Y-116751011D02*
X256526488Y-116973564D01*
X256526488Y-116973564D02*
X256481978Y-117107095D01*
X256081383Y-117819263D02*
X256036873Y-117952795D01*
X256036873Y-117952795D02*
X255992362Y-117997305D01*
X255992362Y-117997305D02*
X255903341Y-118041816D01*
X255903341Y-118041816D02*
X255769810Y-118041816D01*
X255769810Y-118041816D02*
X255680789Y-117997305D01*
X255680789Y-117997305D02*
X255636279Y-117952795D01*
X255636279Y-117952795D02*
X255591768Y-117863774D01*
X255591768Y-117863774D02*
X255591768Y-117507690D01*
X255591768Y-117507690D02*
X256526488Y-117507690D01*
X256526488Y-117507690D02*
X256526488Y-117819263D01*
X256526488Y-117819263D02*
X256481978Y-117908284D01*
X256481978Y-117908284D02*
X256437467Y-117952795D01*
X256437467Y-117952795D02*
X256348446Y-117997305D01*
X256348446Y-117997305D02*
X256259425Y-117997305D01*
X256259425Y-117997305D02*
X256170404Y-117952795D01*
X256170404Y-117952795D02*
X256125894Y-117908284D01*
X256125894Y-117908284D02*
X256081383Y-117819263D01*
X256081383Y-117819263D02*
X256081383Y-117507690D01*
D12*
X257441664Y-107606335D02*
X257441664Y-106671615D01*
X257441664Y-107138975D02*
X259077424Y-107138975D01*
X259077424Y-107138975D02*
X258843744Y-106983188D01*
X258843744Y-106983188D02*
X258687958Y-106827402D01*
X258687958Y-106827402D02*
X258610064Y-106671615D01*
D10*
X84897392Y-120875069D02*
X84564059Y-120398878D01*
X84325964Y-120875069D02*
X84325964Y-119875069D01*
X84325964Y-119875069D02*
X84706916Y-119875069D01*
X84706916Y-119875069D02*
X84802154Y-119922688D01*
X84802154Y-119922688D02*
X84849773Y-119970307D01*
X84849773Y-119970307D02*
X84897392Y-120065545D01*
X84897392Y-120065545D02*
X84897392Y-120208402D01*
X84897392Y-120208402D02*
X84849773Y-120303640D01*
X84849773Y-120303640D02*
X84802154Y-120351259D01*
X84802154Y-120351259D02*
X84706916Y-120398878D01*
X84706916Y-120398878D02*
X84325964Y-120398878D01*
X85278345Y-119970307D02*
X85325964Y-119922688D01*
X85325964Y-119922688D02*
X85421202Y-119875069D01*
X85421202Y-119875069D02*
X85659297Y-119875069D01*
X85659297Y-119875069D02*
X85754535Y-119922688D01*
X85754535Y-119922688D02*
X85802154Y-119970307D01*
X85802154Y-119970307D02*
X85849773Y-120065545D01*
X85849773Y-120065545D02*
X85849773Y-120160783D01*
X85849773Y-120160783D02*
X85802154Y-120303640D01*
X85802154Y-120303640D02*
X85230726Y-120875069D01*
X85230726Y-120875069D02*
X85849773Y-120875069D01*
X86230726Y-119970307D02*
X86278345Y-119922688D01*
X86278345Y-119922688D02*
X86373583Y-119875069D01*
X86373583Y-119875069D02*
X86611678Y-119875069D01*
X86611678Y-119875069D02*
X86706916Y-119922688D01*
X86706916Y-119922688D02*
X86754535Y-119970307D01*
X86754535Y-119970307D02*
X86802154Y-120065545D01*
X86802154Y-120065545D02*
X86802154Y-120160783D01*
X86802154Y-120160783D02*
X86754535Y-120303640D01*
X86754535Y-120303640D02*
X86183107Y-120875069D01*
X86183107Y-120875069D02*
X86802154Y-120875069D01*
X227255892Y-97043569D02*
X226922559Y-96567378D01*
X226684464Y-97043569D02*
X226684464Y-96043569D01*
X226684464Y-96043569D02*
X227065416Y-96043569D01*
X227065416Y-96043569D02*
X227160654Y-96091188D01*
X227160654Y-96091188D02*
X227208273Y-96138807D01*
X227208273Y-96138807D02*
X227255892Y-96234045D01*
X227255892Y-96234045D02*
X227255892Y-96376902D01*
X227255892Y-96376902D02*
X227208273Y-96472140D01*
X227208273Y-96472140D02*
X227160654Y-96519759D01*
X227160654Y-96519759D02*
X227065416Y-96567378D01*
X227065416Y-96567378D02*
X226684464Y-96567378D01*
X228208273Y-97043569D02*
X227636845Y-97043569D01*
X227922559Y-97043569D02*
X227922559Y-96043569D01*
X227922559Y-96043569D02*
X227827321Y-96186426D01*
X227827321Y-96186426D02*
X227732083Y-96281664D01*
X227732083Y-96281664D02*
X227636845Y-96329283D01*
X228541607Y-96043569D02*
X229208273Y-96043569D01*
X229208273Y-96043569D02*
X228779702Y-97043569D01*
X189539464Y-90496069D02*
X189539464Y-91210354D01*
X189539464Y-91210354D02*
X189491845Y-91353211D01*
X189491845Y-91353211D02*
X189396607Y-91448450D01*
X189396607Y-91448450D02*
X189253750Y-91496069D01*
X189253750Y-91496069D02*
X189158512Y-91496069D01*
X189777560Y-91591307D02*
X190539464Y-91591307D01*
X190777560Y-91496069D02*
X190777560Y-90496069D01*
X191253750Y-91496069D02*
X191253750Y-90496069D01*
X191253750Y-90496069D02*
X191825178Y-91496069D01*
X191825178Y-91496069D02*
X191825178Y-90496069D01*
X192063274Y-91591307D02*
X192825178Y-91591307D01*
X193015655Y-91448450D02*
X193158512Y-91496069D01*
X193158512Y-91496069D02*
X193396607Y-91496069D01*
X193396607Y-91496069D02*
X193491845Y-91448450D01*
X193491845Y-91448450D02*
X193539464Y-91400830D01*
X193539464Y-91400830D02*
X193587083Y-91305592D01*
X193587083Y-91305592D02*
X193587083Y-91210354D01*
X193587083Y-91210354D02*
X193539464Y-91115116D01*
X193539464Y-91115116D02*
X193491845Y-91067497D01*
X193491845Y-91067497D02*
X193396607Y-91019878D01*
X193396607Y-91019878D02*
X193206131Y-90972259D01*
X193206131Y-90972259D02*
X193110893Y-90924640D01*
X193110893Y-90924640D02*
X193063274Y-90877021D01*
X193063274Y-90877021D02*
X193015655Y-90781783D01*
X193015655Y-90781783D02*
X193015655Y-90686545D01*
X193015655Y-90686545D02*
X193063274Y-90591307D01*
X193063274Y-90591307D02*
X193110893Y-90543688D01*
X193110893Y-90543688D02*
X193206131Y-90496069D01*
X193206131Y-90496069D02*
X193444226Y-90496069D01*
X193444226Y-90496069D02*
X193587083Y-90543688D01*
X193872798Y-90496069D02*
X194444226Y-90496069D01*
X194158512Y-91496069D02*
X194158512Y-90496069D01*
X195301369Y-91496069D02*
X194729941Y-91496069D01*
X195015655Y-91496069D02*
X195015655Y-90496069D01*
X195015655Y-90496069D02*
X194920417Y-90638926D01*
X194920417Y-90638926D02*
X194825179Y-90734164D01*
X194825179Y-90734164D02*
X194729941Y-90781783D01*
X177769116Y-123558107D02*
X177816736Y-123605726D01*
X177816736Y-123605726D02*
X177864355Y-123748583D01*
X177864355Y-123748583D02*
X177864355Y-123843821D01*
X177864355Y-123843821D02*
X177816736Y-123986678D01*
X177816736Y-123986678D02*
X177721497Y-124081916D01*
X177721497Y-124081916D02*
X177626259Y-124129535D01*
X177626259Y-124129535D02*
X177435783Y-124177154D01*
X177435783Y-124177154D02*
X177292926Y-124177154D01*
X177292926Y-124177154D02*
X177102450Y-124129535D01*
X177102450Y-124129535D02*
X177007212Y-124081916D01*
X177007212Y-124081916D02*
X176911974Y-123986678D01*
X176911974Y-123986678D02*
X176864355Y-123843821D01*
X176864355Y-123843821D02*
X176864355Y-123748583D01*
X176864355Y-123748583D02*
X176911974Y-123605726D01*
X176911974Y-123605726D02*
X176959593Y-123558107D01*
X176959593Y-123177154D02*
X176911974Y-123129535D01*
X176911974Y-123129535D02*
X176864355Y-123034297D01*
X176864355Y-123034297D02*
X176864355Y-122796202D01*
X176864355Y-122796202D02*
X176911974Y-122700964D01*
X176911974Y-122700964D02*
X176959593Y-122653345D01*
X176959593Y-122653345D02*
X177054831Y-122605726D01*
X177054831Y-122605726D02*
X177150069Y-122605726D01*
X177150069Y-122605726D02*
X177292926Y-122653345D01*
X177292926Y-122653345D02*
X177864355Y-123224773D01*
X177864355Y-123224773D02*
X177864355Y-122605726D01*
X176864355Y-122272392D02*
X176864355Y-121605726D01*
X176864355Y-121605726D02*
X177864355Y-122034297D01*
X76371916Y-110905069D02*
X76371916Y-111619354D01*
X76371916Y-111619354D02*
X76324297Y-111762211D01*
X76324297Y-111762211D02*
X76229059Y-111857450D01*
X76229059Y-111857450D02*
X76086202Y-111905069D01*
X76086202Y-111905069D02*
X75990964Y-111905069D01*
X77276678Y-111238402D02*
X77276678Y-111905069D01*
X77038583Y-110857450D02*
X76800488Y-111571735D01*
X76800488Y-111571735D02*
X77419535Y-111571735D01*
X308674583Y-114520830D02*
X308626964Y-114568450D01*
X308626964Y-114568450D02*
X308484107Y-114616069D01*
X308484107Y-114616069D02*
X308388869Y-114616069D01*
X308388869Y-114616069D02*
X308246012Y-114568450D01*
X308246012Y-114568450D02*
X308150774Y-114473211D01*
X308150774Y-114473211D02*
X308103155Y-114377973D01*
X308103155Y-114377973D02*
X308055536Y-114187497D01*
X308055536Y-114187497D02*
X308055536Y-114044640D01*
X308055536Y-114044640D02*
X308103155Y-113854164D01*
X308103155Y-113854164D02*
X308150774Y-113758926D01*
X308150774Y-113758926D02*
X308246012Y-113663688D01*
X308246012Y-113663688D02*
X308388869Y-113616069D01*
X308388869Y-113616069D02*
X308484107Y-113616069D01*
X308484107Y-113616069D02*
X308626964Y-113663688D01*
X308626964Y-113663688D02*
X308674583Y-113711307D01*
X309007917Y-113616069D02*
X309674583Y-113616069D01*
X309674583Y-113616069D02*
X309246012Y-114616069D01*
X163153345Y-112500069D02*
X163153345Y-113309592D01*
X163153345Y-113309592D02*
X163200964Y-113404830D01*
X163200964Y-113404830D02*
X163248583Y-113452450D01*
X163248583Y-113452450D02*
X163343821Y-113500069D01*
X163343821Y-113500069D02*
X163534297Y-113500069D01*
X163534297Y-113500069D02*
X163629535Y-113452450D01*
X163629535Y-113452450D02*
X163677154Y-113404830D01*
X163677154Y-113404830D02*
X163724773Y-113309592D01*
X163724773Y-113309592D02*
X163724773Y-112500069D01*
X164105726Y-112500069D02*
X164772392Y-112500069D01*
X164772392Y-112500069D02*
X164343821Y-113500069D01*
X321555830Y-124072916D02*
X321603450Y-124120535D01*
X321603450Y-124120535D02*
X321651069Y-124263392D01*
X321651069Y-124263392D02*
X321651069Y-124358630D01*
X321651069Y-124358630D02*
X321603450Y-124501487D01*
X321603450Y-124501487D02*
X321508211Y-124596725D01*
X321508211Y-124596725D02*
X321412973Y-124644344D01*
X321412973Y-124644344D02*
X321222497Y-124691963D01*
X321222497Y-124691963D02*
X321079640Y-124691963D01*
X321079640Y-124691963D02*
X320889164Y-124644344D01*
X320889164Y-124644344D02*
X320793926Y-124596725D01*
X320793926Y-124596725D02*
X320698688Y-124501487D01*
X320698688Y-124501487D02*
X320651069Y-124358630D01*
X320651069Y-124358630D02*
X320651069Y-124263392D01*
X320651069Y-124263392D02*
X320698688Y-124120535D01*
X320698688Y-124120535D02*
X320746307Y-124072916D01*
X320746307Y-123691963D02*
X320698688Y-123644344D01*
X320698688Y-123644344D02*
X320651069Y-123549106D01*
X320651069Y-123549106D02*
X320651069Y-123311011D01*
X320651069Y-123311011D02*
X320698688Y-123215773D01*
X320698688Y-123215773D02*
X320746307Y-123168154D01*
X320746307Y-123168154D02*
X320841545Y-123120535D01*
X320841545Y-123120535D02*
X320936783Y-123120535D01*
X320936783Y-123120535D02*
X321079640Y-123168154D01*
X321079640Y-123168154D02*
X321651069Y-123739582D01*
X321651069Y-123739582D02*
X321651069Y-123120535D01*
X114352392Y-120755069D02*
X114019059Y-120278878D01*
X113780964Y-120755069D02*
X113780964Y-119755069D01*
X113780964Y-119755069D02*
X114161916Y-119755069D01*
X114161916Y-119755069D02*
X114257154Y-119802688D01*
X114257154Y-119802688D02*
X114304773Y-119850307D01*
X114304773Y-119850307D02*
X114352392Y-119945545D01*
X114352392Y-119945545D02*
X114352392Y-120088402D01*
X114352392Y-120088402D02*
X114304773Y-120183640D01*
X114304773Y-120183640D02*
X114257154Y-120231259D01*
X114257154Y-120231259D02*
X114161916Y-120278878D01*
X114161916Y-120278878D02*
X113780964Y-120278878D01*
X114733345Y-119850307D02*
X114780964Y-119802688D01*
X114780964Y-119802688D02*
X114876202Y-119755069D01*
X114876202Y-119755069D02*
X115114297Y-119755069D01*
X115114297Y-119755069D02*
X115209535Y-119802688D01*
X115209535Y-119802688D02*
X115257154Y-119850307D01*
X115257154Y-119850307D02*
X115304773Y-119945545D01*
X115304773Y-119945545D02*
X115304773Y-120040783D01*
X115304773Y-120040783D02*
X115257154Y-120183640D01*
X115257154Y-120183640D02*
X114685726Y-120755069D01*
X114685726Y-120755069D02*
X115304773Y-120755069D01*
X116161916Y-120088402D02*
X116161916Y-120755069D01*
X115923821Y-119707450D02*
X115685726Y-120421735D01*
X115685726Y-120421735D02*
X116304773Y-120421735D01*
X311036069Y-137069583D02*
X311750354Y-137069583D01*
X311750354Y-137069583D02*
X311893211Y-137117202D01*
X311893211Y-137117202D02*
X311988450Y-137212440D01*
X311988450Y-137212440D02*
X312036069Y-137355297D01*
X312036069Y-137355297D02*
X312036069Y-137450535D01*
X312036069Y-136069583D02*
X312036069Y-136641011D01*
X312036069Y-136355297D02*
X311036069Y-136355297D01*
X311036069Y-136355297D02*
X311178926Y-136450535D01*
X311178926Y-136450535D02*
X311274164Y-136545773D01*
X311274164Y-136545773D02*
X311321783Y-136641011D01*
D11*
X180999759Y-85845869D02*
X181060235Y-85664440D01*
X181060235Y-85664440D02*
X181060235Y-85362059D01*
X181060235Y-85362059D02*
X180999759Y-85241107D01*
X180999759Y-85241107D02*
X180939282Y-85180631D01*
X180939282Y-85180631D02*
X180818330Y-85120154D01*
X180818330Y-85120154D02*
X180697378Y-85120154D01*
X180697378Y-85120154D02*
X180576425Y-85180631D01*
X180576425Y-85180631D02*
X180515949Y-85241107D01*
X180515949Y-85241107D02*
X180455473Y-85362059D01*
X180455473Y-85362059D02*
X180394997Y-85603964D01*
X180394997Y-85603964D02*
X180334520Y-85724916D01*
X180334520Y-85724916D02*
X180274044Y-85785393D01*
X180274044Y-85785393D02*
X180153092Y-85845869D01*
X180153092Y-85845869D02*
X180032139Y-85845869D01*
X180032139Y-85845869D02*
X179911187Y-85785393D01*
X179911187Y-85785393D02*
X179850711Y-85724916D01*
X179850711Y-85724916D02*
X179790235Y-85603964D01*
X179790235Y-85603964D02*
X179790235Y-85301583D01*
X179790235Y-85301583D02*
X179850711Y-85120154D01*
X181060235Y-83910630D02*
X181060235Y-84636345D01*
X181060235Y-84273488D02*
X179790235Y-84273488D01*
X179790235Y-84273488D02*
X179971663Y-84394440D01*
X179971663Y-84394440D02*
X180092616Y-84515392D01*
X180092616Y-84515392D02*
X180153092Y-84636345D01*
D10*
X321281069Y-117197916D02*
X321281069Y-117674106D01*
X321281069Y-117674106D02*
X320281069Y-117674106D01*
X321281069Y-116340773D02*
X321281069Y-116912201D01*
X321281069Y-116626487D02*
X320281069Y-116626487D01*
X320281069Y-116626487D02*
X320423926Y-116721725D01*
X320423926Y-116721725D02*
X320519164Y-116816963D01*
X320519164Y-116816963D02*
X320566783Y-116912201D01*
X102054830Y-116118107D02*
X102102450Y-116165726D01*
X102102450Y-116165726D02*
X102150069Y-116308583D01*
X102150069Y-116308583D02*
X102150069Y-116403821D01*
X102150069Y-116403821D02*
X102102450Y-116546678D01*
X102102450Y-116546678D02*
X102007211Y-116641916D01*
X102007211Y-116641916D02*
X101911973Y-116689535D01*
X101911973Y-116689535D02*
X101721497Y-116737154D01*
X101721497Y-116737154D02*
X101578640Y-116737154D01*
X101578640Y-116737154D02*
X101388164Y-116689535D01*
X101388164Y-116689535D02*
X101292926Y-116641916D01*
X101292926Y-116641916D02*
X101197688Y-116546678D01*
X101197688Y-116546678D02*
X101150069Y-116403821D01*
X101150069Y-116403821D02*
X101150069Y-116308583D01*
X101150069Y-116308583D02*
X101197688Y-116165726D01*
X101197688Y-116165726D02*
X101245307Y-116118107D01*
X102150069Y-115165726D02*
X102150069Y-115737154D01*
X102150069Y-115451440D02*
X101150069Y-115451440D01*
X101150069Y-115451440D02*
X101292926Y-115546678D01*
X101292926Y-115546678D02*
X101388164Y-115641916D01*
X101388164Y-115641916D02*
X101435783Y-115737154D01*
X102150069Y-114689535D02*
X102150069Y-114499059D01*
X102150069Y-114499059D02*
X102102450Y-114403821D01*
X102102450Y-114403821D02*
X102054830Y-114356202D01*
X102054830Y-114356202D02*
X101911973Y-114260964D01*
X101911973Y-114260964D02*
X101721497Y-114213345D01*
X101721497Y-114213345D02*
X101340545Y-114213345D01*
X101340545Y-114213345D02*
X101245307Y-114260964D01*
X101245307Y-114260964D02*
X101197688Y-114308583D01*
X101197688Y-114308583D02*
X101150069Y-114403821D01*
X101150069Y-114403821D02*
X101150069Y-114594297D01*
X101150069Y-114594297D02*
X101197688Y-114689535D01*
X101197688Y-114689535D02*
X101245307Y-114737154D01*
X101245307Y-114737154D02*
X101340545Y-114784773D01*
X101340545Y-114784773D02*
X101578640Y-114784773D01*
X101578640Y-114784773D02*
X101673878Y-114737154D01*
X101673878Y-114737154D02*
X101721497Y-114689535D01*
X101721497Y-114689535D02*
X101769116Y-114594297D01*
X101769116Y-114594297D02*
X101769116Y-114403821D01*
X101769116Y-114403821D02*
X101721497Y-114308583D01*
X101721497Y-114308583D02*
X101673878Y-114260964D01*
X101673878Y-114260964D02*
X101578640Y-114213345D01*
X147946069Y-87389583D02*
X148660354Y-87389583D01*
X148660354Y-87389583D02*
X148803211Y-87437202D01*
X148803211Y-87437202D02*
X148898450Y-87532440D01*
X148898450Y-87532440D02*
X148946069Y-87675297D01*
X148946069Y-87675297D02*
X148946069Y-87770535D01*
X148946069Y-86865773D02*
X148946069Y-86675297D01*
X148946069Y-86675297D02*
X148898450Y-86580059D01*
X148898450Y-86580059D02*
X148850830Y-86532440D01*
X148850830Y-86532440D02*
X148707973Y-86437202D01*
X148707973Y-86437202D02*
X148517497Y-86389583D01*
X148517497Y-86389583D02*
X148136545Y-86389583D01*
X148136545Y-86389583D02*
X148041307Y-86437202D01*
X148041307Y-86437202D02*
X147993688Y-86484821D01*
X147993688Y-86484821D02*
X147946069Y-86580059D01*
X147946069Y-86580059D02*
X147946069Y-86770535D01*
X147946069Y-86770535D02*
X147993688Y-86865773D01*
X147993688Y-86865773D02*
X148041307Y-86913392D01*
X148041307Y-86913392D02*
X148136545Y-86961011D01*
X148136545Y-86961011D02*
X148374640Y-86961011D01*
X148374640Y-86961011D02*
X148469878Y-86913392D01*
X148469878Y-86913392D02*
X148517497Y-86865773D01*
X148517497Y-86865773D02*
X148565116Y-86770535D01*
X148565116Y-86770535D02*
X148565116Y-86580059D01*
X148565116Y-86580059D02*
X148517497Y-86484821D01*
X148517497Y-86484821D02*
X148469878Y-86437202D01*
X148469878Y-86437202D02*
X148374640Y-86389583D01*
X103128583Y-110905069D02*
X103128583Y-111619354D01*
X103128583Y-111619354D02*
X103080964Y-111762211D01*
X103080964Y-111762211D02*
X102985726Y-111857450D01*
X102985726Y-111857450D02*
X102842869Y-111905069D01*
X102842869Y-111905069D02*
X102747631Y-111905069D01*
X104080964Y-110905069D02*
X103604774Y-110905069D01*
X103604774Y-110905069D02*
X103557155Y-111381259D01*
X103557155Y-111381259D02*
X103604774Y-111333640D01*
X103604774Y-111333640D02*
X103700012Y-111286021D01*
X103700012Y-111286021D02*
X103938107Y-111286021D01*
X103938107Y-111286021D02*
X104033345Y-111333640D01*
X104033345Y-111333640D02*
X104080964Y-111381259D01*
X104080964Y-111381259D02*
X104128583Y-111476497D01*
X104128583Y-111476497D02*
X104128583Y-111714592D01*
X104128583Y-111714592D02*
X104080964Y-111809830D01*
X104080964Y-111809830D02*
X104033345Y-111857450D01*
X104033345Y-111857450D02*
X103938107Y-111905069D01*
X103938107Y-111905069D02*
X103700012Y-111905069D01*
X103700012Y-111905069D02*
X103604774Y-111857450D01*
X103604774Y-111857450D02*
X103557155Y-111809830D01*
X308596069Y-101107916D02*
X308119878Y-101441249D01*
X308596069Y-101679344D02*
X307596069Y-101679344D01*
X307596069Y-101679344D02*
X307596069Y-101298392D01*
X307596069Y-101298392D02*
X307643688Y-101203154D01*
X307643688Y-101203154D02*
X307691307Y-101155535D01*
X307691307Y-101155535D02*
X307786545Y-101107916D01*
X307786545Y-101107916D02*
X307929402Y-101107916D01*
X307929402Y-101107916D02*
X308024640Y-101155535D01*
X308024640Y-101155535D02*
X308072259Y-101203154D01*
X308072259Y-101203154D02*
X308119878Y-101298392D01*
X308119878Y-101298392D02*
X308119878Y-101679344D01*
X307596069Y-100250773D02*
X307596069Y-100441249D01*
X307596069Y-100441249D02*
X307643688Y-100536487D01*
X307643688Y-100536487D02*
X307691307Y-100584106D01*
X307691307Y-100584106D02*
X307834164Y-100679344D01*
X307834164Y-100679344D02*
X308024640Y-100726963D01*
X308024640Y-100726963D02*
X308405592Y-100726963D01*
X308405592Y-100726963D02*
X308500830Y-100679344D01*
X308500830Y-100679344D02*
X308548450Y-100631725D01*
X308548450Y-100631725D02*
X308596069Y-100536487D01*
X308596069Y-100536487D02*
X308596069Y-100346011D01*
X308596069Y-100346011D02*
X308548450Y-100250773D01*
X308548450Y-100250773D02*
X308500830Y-100203154D01*
X308500830Y-100203154D02*
X308405592Y-100155535D01*
X308405592Y-100155535D02*
X308167497Y-100155535D01*
X308167497Y-100155535D02*
X308072259Y-100203154D01*
X308072259Y-100203154D02*
X308024640Y-100250773D01*
X308024640Y-100250773D02*
X307977021Y-100346011D01*
X307977021Y-100346011D02*
X307977021Y-100536487D01*
X307977021Y-100536487D02*
X308024640Y-100631725D01*
X308024640Y-100631725D02*
X308072259Y-100679344D01*
X308072259Y-100679344D02*
X308167497Y-100726963D01*
X152980964Y-121905069D02*
X152980964Y-120905069D01*
X152980964Y-120905069D02*
X153219059Y-120905069D01*
X153219059Y-120905069D02*
X153361916Y-120952688D01*
X153361916Y-120952688D02*
X153457154Y-121047926D01*
X153457154Y-121047926D02*
X153504773Y-121143164D01*
X153504773Y-121143164D02*
X153552392Y-121333640D01*
X153552392Y-121333640D02*
X153552392Y-121476497D01*
X153552392Y-121476497D02*
X153504773Y-121666973D01*
X153504773Y-121666973D02*
X153457154Y-121762211D01*
X153457154Y-121762211D02*
X153361916Y-121857450D01*
X153361916Y-121857450D02*
X153219059Y-121905069D01*
X153219059Y-121905069D02*
X152980964Y-121905069D01*
X154504773Y-121905069D02*
X153933345Y-121905069D01*
X154219059Y-121905069D02*
X154219059Y-120905069D01*
X154219059Y-120905069D02*
X154123821Y-121047926D01*
X154123821Y-121047926D02*
X154028583Y-121143164D01*
X154028583Y-121143164D02*
X153933345Y-121190783D01*
X154885726Y-121000307D02*
X154933345Y-120952688D01*
X154933345Y-120952688D02*
X155028583Y-120905069D01*
X155028583Y-120905069D02*
X155266678Y-120905069D01*
X155266678Y-120905069D02*
X155361916Y-120952688D01*
X155361916Y-120952688D02*
X155409535Y-121000307D01*
X155409535Y-121000307D02*
X155457154Y-121095545D01*
X155457154Y-121095545D02*
X155457154Y-121190783D01*
X155457154Y-121190783D02*
X155409535Y-121333640D01*
X155409535Y-121333640D02*
X154838107Y-121905069D01*
X154838107Y-121905069D02*
X155457154Y-121905069D01*
X182839402Y-100934107D02*
X182363211Y-101267440D01*
X182839402Y-101505535D02*
X181839402Y-101505535D01*
X181839402Y-101505535D02*
X181839402Y-101124583D01*
X181839402Y-101124583D02*
X181887021Y-101029345D01*
X181887021Y-101029345D02*
X181934640Y-100981726D01*
X181934640Y-100981726D02*
X182029878Y-100934107D01*
X182029878Y-100934107D02*
X182172735Y-100934107D01*
X182172735Y-100934107D02*
X182267973Y-100981726D01*
X182267973Y-100981726D02*
X182315592Y-101029345D01*
X182315592Y-101029345D02*
X182363211Y-101124583D01*
X182363211Y-101124583D02*
X182363211Y-101505535D01*
X181934640Y-100553154D02*
X181887021Y-100505535D01*
X181887021Y-100505535D02*
X181839402Y-100410297D01*
X181839402Y-100410297D02*
X181839402Y-100172202D01*
X181839402Y-100172202D02*
X181887021Y-100076964D01*
X181887021Y-100076964D02*
X181934640Y-100029345D01*
X181934640Y-100029345D02*
X182029878Y-99981726D01*
X182029878Y-99981726D02*
X182125116Y-99981726D01*
X182125116Y-99981726D02*
X182267973Y-100029345D01*
X182267973Y-100029345D02*
X182839402Y-100600773D01*
X182839402Y-100600773D02*
X182839402Y-99981726D01*
X181839402Y-99124583D02*
X181839402Y-99315059D01*
X181839402Y-99315059D02*
X181887021Y-99410297D01*
X181887021Y-99410297D02*
X181934640Y-99457916D01*
X181934640Y-99457916D02*
X182077497Y-99553154D01*
X182077497Y-99553154D02*
X182267973Y-99600773D01*
X182267973Y-99600773D02*
X182648925Y-99600773D01*
X182648925Y-99600773D02*
X182744163Y-99553154D01*
X182744163Y-99553154D02*
X182791783Y-99505535D01*
X182791783Y-99505535D02*
X182839402Y-99410297D01*
X182839402Y-99410297D02*
X182839402Y-99219821D01*
X182839402Y-99219821D02*
X182791783Y-99124583D01*
X182791783Y-99124583D02*
X182744163Y-99076964D01*
X182744163Y-99076964D02*
X182648925Y-99029345D01*
X182648925Y-99029345D02*
X182410830Y-99029345D01*
X182410830Y-99029345D02*
X182315592Y-99076964D01*
X182315592Y-99076964D02*
X182267973Y-99124583D01*
X182267973Y-99124583D02*
X182220354Y-99219821D01*
X182220354Y-99219821D02*
X182220354Y-99410297D01*
X182220354Y-99410297D02*
X182267973Y-99505535D01*
X182267973Y-99505535D02*
X182315592Y-99553154D01*
X182315592Y-99553154D02*
X182410830Y-99600773D01*
X315850830Y-99757916D02*
X315898450Y-99805535D01*
X315898450Y-99805535D02*
X315946069Y-99948392D01*
X315946069Y-99948392D02*
X315946069Y-100043630D01*
X315946069Y-100043630D02*
X315898450Y-100186487D01*
X315898450Y-100186487D02*
X315803211Y-100281725D01*
X315803211Y-100281725D02*
X315707973Y-100329344D01*
X315707973Y-100329344D02*
X315517497Y-100376963D01*
X315517497Y-100376963D02*
X315374640Y-100376963D01*
X315374640Y-100376963D02*
X315184164Y-100329344D01*
X315184164Y-100329344D02*
X315088926Y-100281725D01*
X315088926Y-100281725D02*
X314993688Y-100186487D01*
X314993688Y-100186487D02*
X314946069Y-100043630D01*
X314946069Y-100043630D02*
X314946069Y-99948392D01*
X314946069Y-99948392D02*
X314993688Y-99805535D01*
X314993688Y-99805535D02*
X315041307Y-99757916D01*
X315279402Y-98900773D02*
X315946069Y-98900773D01*
X314898450Y-99138868D02*
X315612735Y-99376963D01*
X315612735Y-99376963D02*
X315612735Y-98757916D01*
X306558569Y-106770416D02*
X306082378Y-107103749D01*
X306558569Y-107341844D02*
X305558569Y-107341844D01*
X305558569Y-107341844D02*
X305558569Y-106960892D01*
X305558569Y-106960892D02*
X305606188Y-106865654D01*
X305606188Y-106865654D02*
X305653807Y-106818035D01*
X305653807Y-106818035D02*
X305749045Y-106770416D01*
X305749045Y-106770416D02*
X305891902Y-106770416D01*
X305891902Y-106770416D02*
X305987140Y-106818035D01*
X305987140Y-106818035D02*
X306034759Y-106865654D01*
X306034759Y-106865654D02*
X306082378Y-106960892D01*
X306082378Y-106960892D02*
X306082378Y-107341844D01*
X305558569Y-105865654D02*
X305558569Y-106341844D01*
X305558569Y-106341844D02*
X306034759Y-106389463D01*
X306034759Y-106389463D02*
X305987140Y-106341844D01*
X305987140Y-106341844D02*
X305939521Y-106246606D01*
X305939521Y-106246606D02*
X305939521Y-106008511D01*
X305939521Y-106008511D02*
X305987140Y-105913273D01*
X305987140Y-105913273D02*
X306034759Y-105865654D01*
X306034759Y-105865654D02*
X306129997Y-105818035D01*
X306129997Y-105818035D02*
X306368092Y-105818035D01*
X306368092Y-105818035D02*
X306463330Y-105865654D01*
X306463330Y-105865654D02*
X306510950Y-105913273D01*
X306510950Y-105913273D02*
X306558569Y-106008511D01*
X306558569Y-106008511D02*
X306558569Y-106246606D01*
X306558569Y-106246606D02*
X306510950Y-106341844D01*
X306510950Y-106341844D02*
X306463330Y-106389463D01*
X121216069Y-87389583D02*
X121930354Y-87389583D01*
X121930354Y-87389583D02*
X122073211Y-87437202D01*
X122073211Y-87437202D02*
X122168450Y-87532440D01*
X122168450Y-87532440D02*
X122216069Y-87675297D01*
X122216069Y-87675297D02*
X122216069Y-87770535D01*
X121644640Y-86770535D02*
X121597021Y-86865773D01*
X121597021Y-86865773D02*
X121549402Y-86913392D01*
X121549402Y-86913392D02*
X121454164Y-86961011D01*
X121454164Y-86961011D02*
X121406545Y-86961011D01*
X121406545Y-86961011D02*
X121311307Y-86913392D01*
X121311307Y-86913392D02*
X121263688Y-86865773D01*
X121263688Y-86865773D02*
X121216069Y-86770535D01*
X121216069Y-86770535D02*
X121216069Y-86580059D01*
X121216069Y-86580059D02*
X121263688Y-86484821D01*
X121263688Y-86484821D02*
X121311307Y-86437202D01*
X121311307Y-86437202D02*
X121406545Y-86389583D01*
X121406545Y-86389583D02*
X121454164Y-86389583D01*
X121454164Y-86389583D02*
X121549402Y-86437202D01*
X121549402Y-86437202D02*
X121597021Y-86484821D01*
X121597021Y-86484821D02*
X121644640Y-86580059D01*
X121644640Y-86580059D02*
X121644640Y-86770535D01*
X121644640Y-86770535D02*
X121692259Y-86865773D01*
X121692259Y-86865773D02*
X121739878Y-86913392D01*
X121739878Y-86913392D02*
X121835116Y-86961011D01*
X121835116Y-86961011D02*
X122025592Y-86961011D01*
X122025592Y-86961011D02*
X122120830Y-86913392D01*
X122120830Y-86913392D02*
X122168450Y-86865773D01*
X122168450Y-86865773D02*
X122216069Y-86770535D01*
X122216069Y-86770535D02*
X122216069Y-86580059D01*
X122216069Y-86580059D02*
X122168450Y-86484821D01*
X122168450Y-86484821D02*
X122120830Y-86437202D01*
X122120830Y-86437202D02*
X122025592Y-86389583D01*
X122025592Y-86389583D02*
X121835116Y-86389583D01*
X121835116Y-86389583D02*
X121739878Y-86437202D01*
X121739878Y-86437202D02*
X121692259Y-86484821D01*
X121692259Y-86484821D02*
X121644640Y-86580059D01*
X131477155Y-121870069D02*
X131477155Y-120870069D01*
X131477155Y-120870069D02*
X131715250Y-120870069D01*
X131715250Y-120870069D02*
X131858107Y-120917688D01*
X131858107Y-120917688D02*
X131953345Y-121012926D01*
X131953345Y-121012926D02*
X132000964Y-121108164D01*
X132000964Y-121108164D02*
X132048583Y-121298640D01*
X132048583Y-121298640D02*
X132048583Y-121441497D01*
X132048583Y-121441497D02*
X132000964Y-121631973D01*
X132000964Y-121631973D02*
X131953345Y-121727211D01*
X131953345Y-121727211D02*
X131858107Y-121822450D01*
X131858107Y-121822450D02*
X131715250Y-121870069D01*
X131715250Y-121870069D02*
X131477155Y-121870069D01*
X132524774Y-121870069D02*
X132715250Y-121870069D01*
X132715250Y-121870069D02*
X132810488Y-121822450D01*
X132810488Y-121822450D02*
X132858107Y-121774830D01*
X132858107Y-121774830D02*
X132953345Y-121631973D01*
X132953345Y-121631973D02*
X133000964Y-121441497D01*
X133000964Y-121441497D02*
X133000964Y-121060545D01*
X133000964Y-121060545D02*
X132953345Y-120965307D01*
X132953345Y-120965307D02*
X132905726Y-120917688D01*
X132905726Y-120917688D02*
X132810488Y-120870069D01*
X132810488Y-120870069D02*
X132620012Y-120870069D01*
X132620012Y-120870069D02*
X132524774Y-120917688D01*
X132524774Y-120917688D02*
X132477155Y-120965307D01*
X132477155Y-120965307D02*
X132429536Y-121060545D01*
X132429536Y-121060545D02*
X132429536Y-121298640D01*
X132429536Y-121298640D02*
X132477155Y-121393878D01*
X132477155Y-121393878D02*
X132524774Y-121441497D01*
X132524774Y-121441497D02*
X132620012Y-121489116D01*
X132620012Y-121489116D02*
X132810488Y-121489116D01*
X132810488Y-121489116D02*
X132905726Y-121441497D01*
X132905726Y-121441497D02*
X132953345Y-121393878D01*
X132953345Y-121393878D02*
X133000964Y-121298640D01*
X308563330Y-106770416D02*
X308610950Y-106818035D01*
X308610950Y-106818035D02*
X308658569Y-106960892D01*
X308658569Y-106960892D02*
X308658569Y-107056130D01*
X308658569Y-107056130D02*
X308610950Y-107198987D01*
X308610950Y-107198987D02*
X308515711Y-107294225D01*
X308515711Y-107294225D02*
X308420473Y-107341844D01*
X308420473Y-107341844D02*
X308229997Y-107389463D01*
X308229997Y-107389463D02*
X308087140Y-107389463D01*
X308087140Y-107389463D02*
X307896664Y-107341844D01*
X307896664Y-107341844D02*
X307801426Y-107294225D01*
X307801426Y-107294225D02*
X307706188Y-107198987D01*
X307706188Y-107198987D02*
X307658569Y-107056130D01*
X307658569Y-107056130D02*
X307658569Y-106960892D01*
X307658569Y-106960892D02*
X307706188Y-106818035D01*
X307706188Y-106818035D02*
X307753807Y-106770416D01*
X308087140Y-106198987D02*
X308039521Y-106294225D01*
X308039521Y-106294225D02*
X307991902Y-106341844D01*
X307991902Y-106341844D02*
X307896664Y-106389463D01*
X307896664Y-106389463D02*
X307849045Y-106389463D01*
X307849045Y-106389463D02*
X307753807Y-106341844D01*
X307753807Y-106341844D02*
X307706188Y-106294225D01*
X307706188Y-106294225D02*
X307658569Y-106198987D01*
X307658569Y-106198987D02*
X307658569Y-106008511D01*
X307658569Y-106008511D02*
X307706188Y-105913273D01*
X307706188Y-105913273D02*
X307753807Y-105865654D01*
X307753807Y-105865654D02*
X307849045Y-105818035D01*
X307849045Y-105818035D02*
X307896664Y-105818035D01*
X307896664Y-105818035D02*
X307991902Y-105865654D01*
X307991902Y-105865654D02*
X308039521Y-105913273D01*
X308039521Y-105913273D02*
X308087140Y-106008511D01*
X308087140Y-106008511D02*
X308087140Y-106198987D01*
X308087140Y-106198987D02*
X308134759Y-106294225D01*
X308134759Y-106294225D02*
X308182378Y-106341844D01*
X308182378Y-106341844D02*
X308277616Y-106389463D01*
X308277616Y-106389463D02*
X308468092Y-106389463D01*
X308468092Y-106389463D02*
X308563330Y-106341844D01*
X308563330Y-106341844D02*
X308610950Y-106294225D01*
X308610950Y-106294225D02*
X308658569Y-106198987D01*
X308658569Y-106198987D02*
X308658569Y-106008511D01*
X308658569Y-106008511D02*
X308610950Y-105913273D01*
X308610950Y-105913273D02*
X308563330Y-105865654D01*
X308563330Y-105865654D02*
X308468092Y-105818035D01*
X308468092Y-105818035D02*
X308277616Y-105818035D01*
X308277616Y-105818035D02*
X308182378Y-105865654D01*
X308182378Y-105865654D02*
X308134759Y-105913273D01*
X308134759Y-105913273D02*
X308087140Y-106008511D01*
X131427155Y-123070069D02*
X131427155Y-122070069D01*
X131427155Y-122070069D02*
X131665250Y-122070069D01*
X131665250Y-122070069D02*
X131808107Y-122117688D01*
X131808107Y-122117688D02*
X131903345Y-122212926D01*
X131903345Y-122212926D02*
X131950964Y-122308164D01*
X131950964Y-122308164D02*
X131998583Y-122498640D01*
X131998583Y-122498640D02*
X131998583Y-122641497D01*
X131998583Y-122641497D02*
X131950964Y-122831973D01*
X131950964Y-122831973D02*
X131903345Y-122927211D01*
X131903345Y-122927211D02*
X131808107Y-123022450D01*
X131808107Y-123022450D02*
X131665250Y-123070069D01*
X131665250Y-123070069D02*
X131427155Y-123070069D01*
X132903345Y-122070069D02*
X132427155Y-122070069D01*
X132427155Y-122070069D02*
X132379536Y-122546259D01*
X132379536Y-122546259D02*
X132427155Y-122498640D01*
X132427155Y-122498640D02*
X132522393Y-122451021D01*
X132522393Y-122451021D02*
X132760488Y-122451021D01*
X132760488Y-122451021D02*
X132855726Y-122498640D01*
X132855726Y-122498640D02*
X132903345Y-122546259D01*
X132903345Y-122546259D02*
X132950964Y-122641497D01*
X132950964Y-122641497D02*
X132950964Y-122879592D01*
X132950964Y-122879592D02*
X132903345Y-122974830D01*
X132903345Y-122974830D02*
X132855726Y-123022450D01*
X132855726Y-123022450D02*
X132760488Y-123070069D01*
X132760488Y-123070069D02*
X132522393Y-123070069D01*
X132522393Y-123070069D02*
X132427155Y-123022450D01*
X132427155Y-123022450D02*
X132379536Y-122974830D01*
X102054830Y-120118107D02*
X102102450Y-120165726D01*
X102102450Y-120165726D02*
X102150069Y-120308583D01*
X102150069Y-120308583D02*
X102150069Y-120403821D01*
X102150069Y-120403821D02*
X102102450Y-120546678D01*
X102102450Y-120546678D02*
X102007211Y-120641916D01*
X102007211Y-120641916D02*
X101911973Y-120689535D01*
X101911973Y-120689535D02*
X101721497Y-120737154D01*
X101721497Y-120737154D02*
X101578640Y-120737154D01*
X101578640Y-120737154D02*
X101388164Y-120689535D01*
X101388164Y-120689535D02*
X101292926Y-120641916D01*
X101292926Y-120641916D02*
X101197688Y-120546678D01*
X101197688Y-120546678D02*
X101150069Y-120403821D01*
X101150069Y-120403821D02*
X101150069Y-120308583D01*
X101150069Y-120308583D02*
X101197688Y-120165726D01*
X101197688Y-120165726D02*
X101245307Y-120118107D01*
X102150069Y-119165726D02*
X102150069Y-119737154D01*
X102150069Y-119451440D02*
X101150069Y-119451440D01*
X101150069Y-119451440D02*
X101292926Y-119546678D01*
X101292926Y-119546678D02*
X101388164Y-119641916D01*
X101388164Y-119641916D02*
X101435783Y-119737154D01*
X101150069Y-118260964D02*
X101150069Y-118737154D01*
X101150069Y-118737154D02*
X101626259Y-118784773D01*
X101626259Y-118784773D02*
X101578640Y-118737154D01*
X101578640Y-118737154D02*
X101531021Y-118641916D01*
X101531021Y-118641916D02*
X101531021Y-118403821D01*
X101531021Y-118403821D02*
X101578640Y-118308583D01*
X101578640Y-118308583D02*
X101626259Y-118260964D01*
X101626259Y-118260964D02*
X101721497Y-118213345D01*
X101721497Y-118213345D02*
X101959592Y-118213345D01*
X101959592Y-118213345D02*
X102054830Y-118260964D01*
X102054830Y-118260964D02*
X102102450Y-118308583D01*
X102102450Y-118308583D02*
X102150069Y-118403821D01*
X102150069Y-118403821D02*
X102150069Y-118641916D01*
X102150069Y-118641916D02*
X102102450Y-118737154D01*
X102102450Y-118737154D02*
X102054830Y-118784773D01*
X233968392Y-98693569D02*
X233635059Y-98217378D01*
X233396964Y-98693569D02*
X233396964Y-97693569D01*
X233396964Y-97693569D02*
X233777916Y-97693569D01*
X233777916Y-97693569D02*
X233873154Y-97741188D01*
X233873154Y-97741188D02*
X233920773Y-97788807D01*
X233920773Y-97788807D02*
X233968392Y-97884045D01*
X233968392Y-97884045D02*
X233968392Y-98026902D01*
X233968392Y-98026902D02*
X233920773Y-98122140D01*
X233920773Y-98122140D02*
X233873154Y-98169759D01*
X233873154Y-98169759D02*
X233777916Y-98217378D01*
X233777916Y-98217378D02*
X233396964Y-98217378D01*
X234920773Y-98693569D02*
X234349345Y-98693569D01*
X234635059Y-98693569D02*
X234635059Y-97693569D01*
X234635059Y-97693569D02*
X234539821Y-97836426D01*
X234539821Y-97836426D02*
X234444583Y-97931664D01*
X234444583Y-97931664D02*
X234349345Y-97979283D01*
X235492202Y-98122140D02*
X235396964Y-98074521D01*
X235396964Y-98074521D02*
X235349345Y-98026902D01*
X235349345Y-98026902D02*
X235301726Y-97931664D01*
X235301726Y-97931664D02*
X235301726Y-97884045D01*
X235301726Y-97884045D02*
X235349345Y-97788807D01*
X235349345Y-97788807D02*
X235396964Y-97741188D01*
X235396964Y-97741188D02*
X235492202Y-97693569D01*
X235492202Y-97693569D02*
X235682678Y-97693569D01*
X235682678Y-97693569D02*
X235777916Y-97741188D01*
X235777916Y-97741188D02*
X235825535Y-97788807D01*
X235825535Y-97788807D02*
X235873154Y-97884045D01*
X235873154Y-97884045D02*
X235873154Y-97931664D01*
X235873154Y-97931664D02*
X235825535Y-98026902D01*
X235825535Y-98026902D02*
X235777916Y-98074521D01*
X235777916Y-98074521D02*
X235682678Y-98122140D01*
X235682678Y-98122140D02*
X235492202Y-98122140D01*
X235492202Y-98122140D02*
X235396964Y-98169759D01*
X235396964Y-98169759D02*
X235349345Y-98217378D01*
X235349345Y-98217378D02*
X235301726Y-98312616D01*
X235301726Y-98312616D02*
X235301726Y-98503092D01*
X235301726Y-98503092D02*
X235349345Y-98598330D01*
X235349345Y-98598330D02*
X235396964Y-98645950D01*
X235396964Y-98645950D02*
X235492202Y-98693569D01*
X235492202Y-98693569D02*
X235682678Y-98693569D01*
X235682678Y-98693569D02*
X235777916Y-98645950D01*
X235777916Y-98645950D02*
X235825535Y-98598330D01*
X235825535Y-98598330D02*
X235873154Y-98503092D01*
X235873154Y-98503092D02*
X235873154Y-98312616D01*
X235873154Y-98312616D02*
X235825535Y-98217378D01*
X235825535Y-98217378D02*
X235777916Y-98169759D01*
X235777916Y-98169759D02*
X235682678Y-98122140D01*
X138334297Y-121820069D02*
X138334297Y-120820069D01*
X138334297Y-120820069D02*
X138572392Y-120820069D01*
X138572392Y-120820069D02*
X138715249Y-120867688D01*
X138715249Y-120867688D02*
X138810487Y-120962926D01*
X138810487Y-120962926D02*
X138858106Y-121058164D01*
X138858106Y-121058164D02*
X138905725Y-121248640D01*
X138905725Y-121248640D02*
X138905725Y-121391497D01*
X138905725Y-121391497D02*
X138858106Y-121581973D01*
X138858106Y-121581973D02*
X138810487Y-121677211D01*
X138810487Y-121677211D02*
X138715249Y-121772450D01*
X138715249Y-121772450D02*
X138572392Y-121820069D01*
X138572392Y-121820069D02*
X138334297Y-121820069D01*
X139858106Y-121820069D02*
X139286678Y-121820069D01*
X139572392Y-121820069D02*
X139572392Y-120820069D01*
X139572392Y-120820069D02*
X139477154Y-120962926D01*
X139477154Y-120962926D02*
X139381916Y-121058164D01*
X139381916Y-121058164D02*
X139286678Y-121105783D01*
X140810487Y-121820069D02*
X140239059Y-121820069D01*
X140524773Y-121820069D02*
X140524773Y-120820069D01*
X140524773Y-120820069D02*
X140429535Y-120962926D01*
X140429535Y-120962926D02*
X140334297Y-121058164D01*
X140334297Y-121058164D02*
X140239059Y-121105783D01*
X182523401Y-123788107D02*
X182571021Y-123835726D01*
X182571021Y-123835726D02*
X182618640Y-123978583D01*
X182618640Y-123978583D02*
X182618640Y-124073821D01*
X182618640Y-124073821D02*
X182571021Y-124216678D01*
X182571021Y-124216678D02*
X182475782Y-124311916D01*
X182475782Y-124311916D02*
X182380544Y-124359535D01*
X182380544Y-124359535D02*
X182190068Y-124407154D01*
X182190068Y-124407154D02*
X182047211Y-124407154D01*
X182047211Y-124407154D02*
X181856735Y-124359535D01*
X181856735Y-124359535D02*
X181761497Y-124311916D01*
X181761497Y-124311916D02*
X181666259Y-124216678D01*
X181666259Y-124216678D02*
X181618640Y-124073821D01*
X181618640Y-124073821D02*
X181618640Y-123978583D01*
X181618640Y-123978583D02*
X181666259Y-123835726D01*
X181666259Y-123835726D02*
X181713878Y-123788107D01*
X181713878Y-123407154D02*
X181666259Y-123359535D01*
X181666259Y-123359535D02*
X181618640Y-123264297D01*
X181618640Y-123264297D02*
X181618640Y-123026202D01*
X181618640Y-123026202D02*
X181666259Y-122930964D01*
X181666259Y-122930964D02*
X181713878Y-122883345D01*
X181713878Y-122883345D02*
X181809116Y-122835726D01*
X181809116Y-122835726D02*
X181904354Y-122835726D01*
X181904354Y-122835726D02*
X182047211Y-122883345D01*
X182047211Y-122883345D02*
X182618640Y-123454773D01*
X182618640Y-123454773D02*
X182618640Y-122835726D01*
X181951973Y-121978583D02*
X182618640Y-121978583D01*
X181571021Y-122216678D02*
X182285306Y-122454773D01*
X182285306Y-122454773D02*
X182285306Y-121835726D01*
D11*
X218755536Y-93833068D02*
X218755536Y-94740211D01*
X218755536Y-94740211D02*
X218695059Y-94921639D01*
X218695059Y-94921639D02*
X218574107Y-95042592D01*
X218574107Y-95042592D02*
X218392678Y-95103068D01*
X218392678Y-95103068D02*
X218271726Y-95103068D01*
X219057917Y-95224020D02*
X220025536Y-95224020D01*
X220327916Y-95103068D02*
X220327916Y-93833068D01*
X220327916Y-93833068D02*
X220751250Y-94740211D01*
X220751250Y-94740211D02*
X221174583Y-93833068D01*
X221174583Y-93833068D02*
X221174583Y-95103068D01*
X221779345Y-95103068D02*
X221779345Y-93833068D01*
X222384107Y-95103068D02*
X222384107Y-93833068D01*
X222384107Y-93833068D02*
X222686488Y-93833068D01*
X222686488Y-93833068D02*
X222867917Y-93893544D01*
X222867917Y-93893544D02*
X222988869Y-94014496D01*
X222988869Y-94014496D02*
X223049346Y-94135449D01*
X223049346Y-94135449D02*
X223109822Y-94377353D01*
X223109822Y-94377353D02*
X223109822Y-94558782D01*
X223109822Y-94558782D02*
X223049346Y-94800687D01*
X223049346Y-94800687D02*
X222988869Y-94921639D01*
X222988869Y-94921639D02*
X222867917Y-95042592D01*
X222867917Y-95042592D02*
X222686488Y-95103068D01*
X222686488Y-95103068D02*
X222384107Y-95103068D01*
X223654107Y-95103068D02*
X223654107Y-93833068D01*
X223956489Y-95224020D02*
X224924108Y-95224020D01*
X225045060Y-93833068D02*
X225770774Y-93833068D01*
X225407917Y-95103068D02*
X225407917Y-93833068D01*
X226194107Y-95103068D02*
X226194107Y-93833068D01*
X226194107Y-94437830D02*
X226919822Y-94437830D01*
X226919822Y-95103068D02*
X226919822Y-93833068D01*
X228250298Y-95103068D02*
X227826964Y-94498306D01*
X227524583Y-95103068D02*
X227524583Y-93833068D01*
X227524583Y-93833068D02*
X228008393Y-93833068D01*
X228008393Y-93833068D02*
X228129345Y-93893544D01*
X228129345Y-93893544D02*
X228189822Y-93954020D01*
X228189822Y-93954020D02*
X228250298Y-94074972D01*
X228250298Y-94074972D02*
X228250298Y-94256401D01*
X228250298Y-94256401D02*
X228189822Y-94377353D01*
X228189822Y-94377353D02*
X228129345Y-94437830D01*
X228129345Y-94437830D02*
X228008393Y-94498306D01*
X228008393Y-94498306D02*
X227524583Y-94498306D01*
X228794583Y-93833068D02*
X228794583Y-94861163D01*
X228794583Y-94861163D02*
X228855060Y-94982115D01*
X228855060Y-94982115D02*
X228915536Y-95042592D01*
X228915536Y-95042592D02*
X229036488Y-95103068D01*
X229036488Y-95103068D02*
X229278393Y-95103068D01*
X229278393Y-95103068D02*
X229399345Y-95042592D01*
X229399345Y-95042592D02*
X229459822Y-94982115D01*
X229459822Y-94982115D02*
X229520298Y-94861163D01*
X229520298Y-94861163D02*
X229520298Y-93833068D01*
X230790298Y-95103068D02*
X230064583Y-95103068D01*
X230427440Y-95103068D02*
X230427440Y-93833068D01*
X230427440Y-93833068D02*
X230306488Y-94014496D01*
X230306488Y-94014496D02*
X230185536Y-94135449D01*
X230185536Y-94135449D02*
X230064583Y-94195925D01*
D10*
X318329345Y-78696069D02*
X318329345Y-77696069D01*
X318329345Y-78172259D02*
X318900773Y-78172259D01*
X318900773Y-78696069D02*
X318900773Y-77696069D01*
X319853154Y-77696069D02*
X319376964Y-77696069D01*
X319376964Y-77696069D02*
X319329345Y-78172259D01*
X319329345Y-78172259D02*
X319376964Y-78124640D01*
X319376964Y-78124640D02*
X319472202Y-78077021D01*
X319472202Y-78077021D02*
X319710297Y-78077021D01*
X319710297Y-78077021D02*
X319805535Y-78124640D01*
X319805535Y-78124640D02*
X319853154Y-78172259D01*
X319853154Y-78172259D02*
X319900773Y-78267497D01*
X319900773Y-78267497D02*
X319900773Y-78505592D01*
X319900773Y-78505592D02*
X319853154Y-78600830D01*
X319853154Y-78600830D02*
X319805535Y-78648450D01*
X319805535Y-78648450D02*
X319710297Y-78696069D01*
X319710297Y-78696069D02*
X319472202Y-78696069D01*
X319472202Y-78696069D02*
X319376964Y-78648450D01*
X319376964Y-78648450D02*
X319329345Y-78600830D01*
X314204345Y-104946069D02*
X314204345Y-105755592D01*
X314204345Y-105755592D02*
X314251964Y-105850830D01*
X314251964Y-105850830D02*
X314299583Y-105898450D01*
X314299583Y-105898450D02*
X314394821Y-105946069D01*
X314394821Y-105946069D02*
X314585297Y-105946069D01*
X314585297Y-105946069D02*
X314680535Y-105898450D01*
X314680535Y-105898450D02*
X314728154Y-105850830D01*
X314728154Y-105850830D02*
X314775773Y-105755592D01*
X314775773Y-105755592D02*
X314775773Y-104946069D01*
X315775773Y-105946069D02*
X315204345Y-105946069D01*
X315490059Y-105946069D02*
X315490059Y-104946069D01*
X315490059Y-104946069D02*
X315394821Y-105088926D01*
X315394821Y-105088926D02*
X315299583Y-105184164D01*
X315299583Y-105184164D02*
X315204345Y-105231783D01*
X58329345Y-133696069D02*
X58329345Y-132696069D01*
X58329345Y-133172259D02*
X58900773Y-133172259D01*
X58900773Y-133696069D02*
X58900773Y-132696069D01*
X59900773Y-133696069D02*
X59329345Y-133696069D01*
X59615059Y-133696069D02*
X59615059Y-132696069D01*
X59615059Y-132696069D02*
X59519821Y-132838926D01*
X59519821Y-132838926D02*
X59424583Y-132934164D01*
X59424583Y-132934164D02*
X59329345Y-132981783D01*
X288732916Y-94886069D02*
X288732916Y-95600354D01*
X288732916Y-95600354D02*
X288685297Y-95743211D01*
X288685297Y-95743211D02*
X288590059Y-95838450D01*
X288590059Y-95838450D02*
X288447202Y-95886069D01*
X288447202Y-95886069D02*
X288351964Y-95886069D01*
X289113869Y-94886069D02*
X289732916Y-94886069D01*
X289732916Y-94886069D02*
X289399583Y-95267021D01*
X289399583Y-95267021D02*
X289542440Y-95267021D01*
X289542440Y-95267021D02*
X289637678Y-95314640D01*
X289637678Y-95314640D02*
X289685297Y-95362259D01*
X289685297Y-95362259D02*
X289732916Y-95457497D01*
X289732916Y-95457497D02*
X289732916Y-95695592D01*
X289732916Y-95695592D02*
X289685297Y-95790830D01*
X289685297Y-95790830D02*
X289637678Y-95838450D01*
X289637678Y-95838450D02*
X289542440Y-95886069D01*
X289542440Y-95886069D02*
X289256726Y-95886069D01*
X289256726Y-95886069D02*
X289161488Y-95838450D01*
X289161488Y-95838450D02*
X289113869Y-95790830D01*
X58550069Y-118262154D02*
X59359592Y-118262154D01*
X59359592Y-118262154D02*
X59454830Y-118214535D01*
X59454830Y-118214535D02*
X59502450Y-118166916D01*
X59502450Y-118166916D02*
X59550069Y-118071678D01*
X59550069Y-118071678D02*
X59550069Y-117881202D01*
X59550069Y-117881202D02*
X59502450Y-117785964D01*
X59502450Y-117785964D02*
X59454830Y-117738345D01*
X59454830Y-117738345D02*
X59359592Y-117690726D01*
X59359592Y-117690726D02*
X58550069Y-117690726D01*
X58550069Y-116738345D02*
X58550069Y-117214535D01*
X58550069Y-117214535D02*
X59026259Y-117262154D01*
X59026259Y-117262154D02*
X58978640Y-117214535D01*
X58978640Y-117214535D02*
X58931021Y-117119297D01*
X58931021Y-117119297D02*
X58931021Y-116881202D01*
X58931021Y-116881202D02*
X58978640Y-116785964D01*
X58978640Y-116785964D02*
X59026259Y-116738345D01*
X59026259Y-116738345D02*
X59121497Y-116690726D01*
X59121497Y-116690726D02*
X59359592Y-116690726D01*
X59359592Y-116690726D02*
X59454830Y-116738345D01*
X59454830Y-116738345D02*
X59502450Y-116785964D01*
X59502450Y-116785964D02*
X59550069Y-116881202D01*
X59550069Y-116881202D02*
X59550069Y-117119297D01*
X59550069Y-117119297D02*
X59502450Y-117214535D01*
X59502450Y-117214535D02*
X59454830Y-117262154D01*
X304700830Y-109657916D02*
X304748450Y-109705535D01*
X304748450Y-109705535D02*
X304796069Y-109848392D01*
X304796069Y-109848392D02*
X304796069Y-109943630D01*
X304796069Y-109943630D02*
X304748450Y-110086487D01*
X304748450Y-110086487D02*
X304653211Y-110181725D01*
X304653211Y-110181725D02*
X304557973Y-110229344D01*
X304557973Y-110229344D02*
X304367497Y-110276963D01*
X304367497Y-110276963D02*
X304224640Y-110276963D01*
X304224640Y-110276963D02*
X304034164Y-110229344D01*
X304034164Y-110229344D02*
X303938926Y-110181725D01*
X303938926Y-110181725D02*
X303843688Y-110086487D01*
X303843688Y-110086487D02*
X303796069Y-109943630D01*
X303796069Y-109943630D02*
X303796069Y-109848392D01*
X303796069Y-109848392D02*
X303843688Y-109705535D01*
X303843688Y-109705535D02*
X303891307Y-109657916D01*
X303796069Y-108753154D02*
X303796069Y-109229344D01*
X303796069Y-109229344D02*
X304272259Y-109276963D01*
X304272259Y-109276963D02*
X304224640Y-109229344D01*
X304224640Y-109229344D02*
X304177021Y-109134106D01*
X304177021Y-109134106D02*
X304177021Y-108896011D01*
X304177021Y-108896011D02*
X304224640Y-108800773D01*
X304224640Y-108800773D02*
X304272259Y-108753154D01*
X304272259Y-108753154D02*
X304367497Y-108705535D01*
X304367497Y-108705535D02*
X304605592Y-108705535D01*
X304605592Y-108705535D02*
X304700830Y-108753154D01*
X304700830Y-108753154D02*
X304748450Y-108800773D01*
X304748450Y-108800773D02*
X304796069Y-108896011D01*
X304796069Y-108896011D02*
X304796069Y-109134106D01*
X304796069Y-109134106D02*
X304748450Y-109229344D01*
X304748450Y-109229344D02*
X304700830Y-109276963D01*
X270929345Y-103746069D02*
X270929345Y-104555592D01*
X270929345Y-104555592D02*
X270976964Y-104650830D01*
X270976964Y-104650830D02*
X271024583Y-104698450D01*
X271024583Y-104698450D02*
X271119821Y-104746069D01*
X271119821Y-104746069D02*
X271310297Y-104746069D01*
X271310297Y-104746069D02*
X271405535Y-104698450D01*
X271405535Y-104698450D02*
X271453154Y-104650830D01*
X271453154Y-104650830D02*
X271500773Y-104555592D01*
X271500773Y-104555592D02*
X271500773Y-103746069D01*
X272405535Y-104079402D02*
X272405535Y-104746069D01*
X272167440Y-103698450D02*
X271929345Y-104412735D01*
X271929345Y-104412735D02*
X272548392Y-104412735D01*
X256618392Y-98843569D02*
X256285059Y-98367378D01*
X256046964Y-98843569D02*
X256046964Y-97843569D01*
X256046964Y-97843569D02*
X256427916Y-97843569D01*
X256427916Y-97843569D02*
X256523154Y-97891188D01*
X256523154Y-97891188D02*
X256570773Y-97938807D01*
X256570773Y-97938807D02*
X256618392Y-98034045D01*
X256618392Y-98034045D02*
X256618392Y-98176902D01*
X256618392Y-98176902D02*
X256570773Y-98272140D01*
X256570773Y-98272140D02*
X256523154Y-98319759D01*
X256523154Y-98319759D02*
X256427916Y-98367378D01*
X256427916Y-98367378D02*
X256046964Y-98367378D01*
X257570773Y-98843569D02*
X256999345Y-98843569D01*
X257285059Y-98843569D02*
X257285059Y-97843569D01*
X257285059Y-97843569D02*
X257189821Y-97986426D01*
X257189821Y-97986426D02*
X257094583Y-98081664D01*
X257094583Y-98081664D02*
X256999345Y-98129283D01*
X257904107Y-97843569D02*
X258523154Y-97843569D01*
X258523154Y-97843569D02*
X258189821Y-98224521D01*
X258189821Y-98224521D02*
X258332678Y-98224521D01*
X258332678Y-98224521D02*
X258427916Y-98272140D01*
X258427916Y-98272140D02*
X258475535Y-98319759D01*
X258475535Y-98319759D02*
X258523154Y-98414997D01*
X258523154Y-98414997D02*
X258523154Y-98653092D01*
X258523154Y-98653092D02*
X258475535Y-98748330D01*
X258475535Y-98748330D02*
X258427916Y-98795950D01*
X258427916Y-98795950D02*
X258332678Y-98843569D01*
X258332678Y-98843569D02*
X258046964Y-98843569D01*
X258046964Y-98843569D02*
X257951726Y-98795950D01*
X257951726Y-98795950D02*
X257904107Y-98748330D01*
X73222392Y-119520069D02*
X72889059Y-119043878D01*
X72650964Y-119520069D02*
X72650964Y-118520069D01*
X72650964Y-118520069D02*
X73031916Y-118520069D01*
X73031916Y-118520069D02*
X73127154Y-118567688D01*
X73127154Y-118567688D02*
X73174773Y-118615307D01*
X73174773Y-118615307D02*
X73222392Y-118710545D01*
X73222392Y-118710545D02*
X73222392Y-118853402D01*
X73222392Y-118853402D02*
X73174773Y-118948640D01*
X73174773Y-118948640D02*
X73127154Y-118996259D01*
X73127154Y-118996259D02*
X73031916Y-119043878D01*
X73031916Y-119043878D02*
X72650964Y-119043878D01*
X74174773Y-119520069D02*
X73603345Y-119520069D01*
X73889059Y-119520069D02*
X73889059Y-118520069D01*
X73889059Y-118520069D02*
X73793821Y-118662926D01*
X73793821Y-118662926D02*
X73698583Y-118758164D01*
X73698583Y-118758164D02*
X73603345Y-118805783D01*
X74650964Y-119520069D02*
X74841440Y-119520069D01*
X74841440Y-119520069D02*
X74936678Y-119472450D01*
X74936678Y-119472450D02*
X74984297Y-119424830D01*
X74984297Y-119424830D02*
X75079535Y-119281973D01*
X75079535Y-119281973D02*
X75127154Y-119091497D01*
X75127154Y-119091497D02*
X75127154Y-118710545D01*
X75127154Y-118710545D02*
X75079535Y-118615307D01*
X75079535Y-118615307D02*
X75031916Y-118567688D01*
X75031916Y-118567688D02*
X74936678Y-118520069D01*
X74936678Y-118520069D02*
X74746202Y-118520069D01*
X74746202Y-118520069D02*
X74650964Y-118567688D01*
X74650964Y-118567688D02*
X74603345Y-118615307D01*
X74603345Y-118615307D02*
X74555726Y-118710545D01*
X74555726Y-118710545D02*
X74555726Y-118948640D01*
X74555726Y-118948640D02*
X74603345Y-119043878D01*
X74603345Y-119043878D02*
X74650964Y-119091497D01*
X74650964Y-119091497D02*
X74746202Y-119139116D01*
X74746202Y-119139116D02*
X74936678Y-119139116D01*
X74936678Y-119139116D02*
X75031916Y-119091497D01*
X75031916Y-119091497D02*
X75079535Y-119043878D01*
X75079535Y-119043878D02*
X75127154Y-118948640D01*
X274098392Y-98846069D02*
X273765059Y-98369878D01*
X273526964Y-98846069D02*
X273526964Y-97846069D01*
X273526964Y-97846069D02*
X273907916Y-97846069D01*
X273907916Y-97846069D02*
X274003154Y-97893688D01*
X274003154Y-97893688D02*
X274050773Y-97941307D01*
X274050773Y-97941307D02*
X274098392Y-98036545D01*
X274098392Y-98036545D02*
X274098392Y-98179402D01*
X274098392Y-98179402D02*
X274050773Y-98274640D01*
X274050773Y-98274640D02*
X274003154Y-98322259D01*
X274003154Y-98322259D02*
X273907916Y-98369878D01*
X273907916Y-98369878D02*
X273526964Y-98369878D01*
X275050773Y-98846069D02*
X274479345Y-98846069D01*
X274765059Y-98846069D02*
X274765059Y-97846069D01*
X274765059Y-97846069D02*
X274669821Y-97988926D01*
X274669821Y-97988926D02*
X274574583Y-98084164D01*
X274574583Y-98084164D02*
X274479345Y-98131783D01*
X275955535Y-97846069D02*
X275479345Y-97846069D01*
X275479345Y-97846069D02*
X275431726Y-98322259D01*
X275431726Y-98322259D02*
X275479345Y-98274640D01*
X275479345Y-98274640D02*
X275574583Y-98227021D01*
X275574583Y-98227021D02*
X275812678Y-98227021D01*
X275812678Y-98227021D02*
X275907916Y-98274640D01*
X275907916Y-98274640D02*
X275955535Y-98322259D01*
X275955535Y-98322259D02*
X276003154Y-98417497D01*
X276003154Y-98417497D02*
X276003154Y-98655592D01*
X276003154Y-98655592D02*
X275955535Y-98750830D01*
X275955535Y-98750830D02*
X275907916Y-98798450D01*
X275907916Y-98798450D02*
X275812678Y-98846069D01*
X275812678Y-98846069D02*
X275574583Y-98846069D01*
X275574583Y-98846069D02*
X275479345Y-98798450D01*
X275479345Y-98798450D02*
X275431726Y-98750830D01*
X180429115Y-123738107D02*
X180476735Y-123785726D01*
X180476735Y-123785726D02*
X180524354Y-123928583D01*
X180524354Y-123928583D02*
X180524354Y-124023821D01*
X180524354Y-124023821D02*
X180476735Y-124166678D01*
X180476735Y-124166678D02*
X180381496Y-124261916D01*
X180381496Y-124261916D02*
X180286258Y-124309535D01*
X180286258Y-124309535D02*
X180095782Y-124357154D01*
X180095782Y-124357154D02*
X179952925Y-124357154D01*
X179952925Y-124357154D02*
X179762449Y-124309535D01*
X179762449Y-124309535D02*
X179667211Y-124261916D01*
X179667211Y-124261916D02*
X179571973Y-124166678D01*
X179571973Y-124166678D02*
X179524354Y-124023821D01*
X179524354Y-124023821D02*
X179524354Y-123928583D01*
X179524354Y-123928583D02*
X179571973Y-123785726D01*
X179571973Y-123785726D02*
X179619592Y-123738107D01*
X179619592Y-123357154D02*
X179571973Y-123309535D01*
X179571973Y-123309535D02*
X179524354Y-123214297D01*
X179524354Y-123214297D02*
X179524354Y-122976202D01*
X179524354Y-122976202D02*
X179571973Y-122880964D01*
X179571973Y-122880964D02*
X179619592Y-122833345D01*
X179619592Y-122833345D02*
X179714830Y-122785726D01*
X179714830Y-122785726D02*
X179810068Y-122785726D01*
X179810068Y-122785726D02*
X179952925Y-122833345D01*
X179952925Y-122833345D02*
X180524354Y-123404773D01*
X180524354Y-123404773D02*
X180524354Y-122785726D01*
X179524354Y-121880964D02*
X179524354Y-122357154D01*
X179524354Y-122357154D02*
X180000544Y-122404773D01*
X180000544Y-122404773D02*
X179952925Y-122357154D01*
X179952925Y-122357154D02*
X179905306Y-122261916D01*
X179905306Y-122261916D02*
X179905306Y-122023821D01*
X179905306Y-122023821D02*
X179952925Y-121928583D01*
X179952925Y-121928583D02*
X180000544Y-121880964D01*
X180000544Y-121880964D02*
X180095782Y-121833345D01*
X180095782Y-121833345D02*
X180333877Y-121833345D01*
X180333877Y-121833345D02*
X180429115Y-121880964D01*
X180429115Y-121880964D02*
X180476735Y-121928583D01*
X180476735Y-121928583D02*
X180524354Y-122023821D01*
X180524354Y-122023821D02*
X180524354Y-122261916D01*
X180524354Y-122261916D02*
X180476735Y-122357154D01*
X180476735Y-122357154D02*
X180429115Y-122404773D01*
X106822392Y-119574830D02*
X106774773Y-119622450D01*
X106774773Y-119622450D02*
X106631916Y-119670069D01*
X106631916Y-119670069D02*
X106536678Y-119670069D01*
X106536678Y-119670069D02*
X106393821Y-119622450D01*
X106393821Y-119622450D02*
X106298583Y-119527211D01*
X106298583Y-119527211D02*
X106250964Y-119431973D01*
X106250964Y-119431973D02*
X106203345Y-119241497D01*
X106203345Y-119241497D02*
X106203345Y-119098640D01*
X106203345Y-119098640D02*
X106250964Y-118908164D01*
X106250964Y-118908164D02*
X106298583Y-118812926D01*
X106298583Y-118812926D02*
X106393821Y-118717688D01*
X106393821Y-118717688D02*
X106536678Y-118670069D01*
X106536678Y-118670069D02*
X106631916Y-118670069D01*
X106631916Y-118670069D02*
X106774773Y-118717688D01*
X106774773Y-118717688D02*
X106822392Y-118765307D01*
X107774773Y-119670069D02*
X107203345Y-119670069D01*
X107489059Y-119670069D02*
X107489059Y-118670069D01*
X107489059Y-118670069D02*
X107393821Y-118812926D01*
X107393821Y-118812926D02*
X107298583Y-118908164D01*
X107298583Y-118908164D02*
X107203345Y-118955783D01*
X108346202Y-119098640D02*
X108250964Y-119051021D01*
X108250964Y-119051021D02*
X108203345Y-119003402D01*
X108203345Y-119003402D02*
X108155726Y-118908164D01*
X108155726Y-118908164D02*
X108155726Y-118860545D01*
X108155726Y-118860545D02*
X108203345Y-118765307D01*
X108203345Y-118765307D02*
X108250964Y-118717688D01*
X108250964Y-118717688D02*
X108346202Y-118670069D01*
X108346202Y-118670069D02*
X108536678Y-118670069D01*
X108536678Y-118670069D02*
X108631916Y-118717688D01*
X108631916Y-118717688D02*
X108679535Y-118765307D01*
X108679535Y-118765307D02*
X108727154Y-118860545D01*
X108727154Y-118860545D02*
X108727154Y-118908164D01*
X108727154Y-118908164D02*
X108679535Y-119003402D01*
X108679535Y-119003402D02*
X108631916Y-119051021D01*
X108631916Y-119051021D02*
X108536678Y-119098640D01*
X108536678Y-119098640D02*
X108346202Y-119098640D01*
X108346202Y-119098640D02*
X108250964Y-119146259D01*
X108250964Y-119146259D02*
X108203345Y-119193878D01*
X108203345Y-119193878D02*
X108155726Y-119289116D01*
X108155726Y-119289116D02*
X108155726Y-119479592D01*
X108155726Y-119479592D02*
X108203345Y-119574830D01*
X108203345Y-119574830D02*
X108250964Y-119622450D01*
X108250964Y-119622450D02*
X108346202Y-119670069D01*
X108346202Y-119670069D02*
X108536678Y-119670069D01*
X108536678Y-119670069D02*
X108631916Y-119622450D01*
X108631916Y-119622450D02*
X108679535Y-119574830D01*
X108679535Y-119574830D02*
X108727154Y-119479592D01*
X108727154Y-119479592D02*
X108727154Y-119289116D01*
X108727154Y-119289116D02*
X108679535Y-119193878D01*
X108679535Y-119193878D02*
X108631916Y-119146259D01*
X108631916Y-119146259D02*
X108536678Y-119098640D01*
X58281726Y-77696069D02*
X58281726Y-78410354D01*
X58281726Y-78410354D02*
X58234107Y-78553211D01*
X58234107Y-78553211D02*
X58138869Y-78648450D01*
X58138869Y-78648450D02*
X57996012Y-78696069D01*
X57996012Y-78696069D02*
X57900774Y-78696069D01*
X59281726Y-78696069D02*
X58710298Y-78696069D01*
X58996012Y-78696069D02*
X58996012Y-77696069D01*
X58996012Y-77696069D02*
X58900774Y-77838926D01*
X58900774Y-77838926D02*
X58805536Y-77934164D01*
X58805536Y-77934164D02*
X58710298Y-77981783D01*
X59900774Y-77696069D02*
X59996012Y-77696069D01*
X59996012Y-77696069D02*
X60091250Y-77743688D01*
X60091250Y-77743688D02*
X60138869Y-77791307D01*
X60138869Y-77791307D02*
X60186488Y-77886545D01*
X60186488Y-77886545D02*
X60234107Y-78077021D01*
X60234107Y-78077021D02*
X60234107Y-78315116D01*
X60234107Y-78315116D02*
X60186488Y-78505592D01*
X60186488Y-78505592D02*
X60138869Y-78600830D01*
X60138869Y-78600830D02*
X60091250Y-78648450D01*
X60091250Y-78648450D02*
X59996012Y-78696069D01*
X59996012Y-78696069D02*
X59900774Y-78696069D01*
X59900774Y-78696069D02*
X59805536Y-78648450D01*
X59805536Y-78648450D02*
X59757917Y-78600830D01*
X59757917Y-78600830D02*
X59710298Y-78505592D01*
X59710298Y-78505592D02*
X59662679Y-78315116D01*
X59662679Y-78315116D02*
X59662679Y-78077021D01*
X59662679Y-78077021D02*
X59710298Y-77886545D01*
X59710298Y-77886545D02*
X59757917Y-77791307D01*
X59757917Y-77791307D02*
X59805536Y-77743688D01*
X59805536Y-77743688D02*
X59900774Y-77696069D01*
D11*
X265153393Y-93833068D02*
X265153393Y-94740211D01*
X265153393Y-94740211D02*
X265092916Y-94921639D01*
X265092916Y-94921639D02*
X264971964Y-95042592D01*
X264971964Y-95042592D02*
X264790535Y-95103068D01*
X264790535Y-95103068D02*
X264669583Y-95103068D01*
X265455774Y-95224020D02*
X266423393Y-95224020D01*
X266725773Y-95103068D02*
X266725773Y-93833068D01*
X266725773Y-93833068D02*
X267149107Y-94740211D01*
X267149107Y-94740211D02*
X267572440Y-93833068D01*
X267572440Y-93833068D02*
X267572440Y-95103068D01*
X268177202Y-95103068D02*
X268177202Y-93833068D01*
X268781964Y-95103068D02*
X268781964Y-93833068D01*
X268781964Y-93833068D02*
X269084345Y-93833068D01*
X269084345Y-93833068D02*
X269265774Y-93893544D01*
X269265774Y-93893544D02*
X269386726Y-94014496D01*
X269386726Y-94014496D02*
X269447203Y-94135449D01*
X269447203Y-94135449D02*
X269507679Y-94377353D01*
X269507679Y-94377353D02*
X269507679Y-94558782D01*
X269507679Y-94558782D02*
X269447203Y-94800687D01*
X269447203Y-94800687D02*
X269386726Y-94921639D01*
X269386726Y-94921639D02*
X269265774Y-95042592D01*
X269265774Y-95042592D02*
X269084345Y-95103068D01*
X269084345Y-95103068D02*
X268781964Y-95103068D01*
X270051964Y-95103068D02*
X270051964Y-93833068D01*
X270354346Y-95224020D02*
X271321965Y-95224020D01*
X271624345Y-95103068D02*
X271624345Y-93833068D01*
X272229107Y-95103068D02*
X272229107Y-93833068D01*
X272229107Y-93833068D02*
X272954822Y-95103068D01*
X272954822Y-95103068D02*
X272954822Y-93833068D01*
X273257203Y-95224020D02*
X274224822Y-95224020D01*
X275192441Y-95103068D02*
X274466726Y-95103068D01*
X274829583Y-95103068D02*
X274829583Y-93833068D01*
X274829583Y-93833068D02*
X274708631Y-94014496D01*
X274708631Y-94014496D02*
X274587679Y-94135449D01*
X274587679Y-94135449D02*
X274466726Y-94195925D01*
D10*
X246646069Y-116234107D02*
X246169878Y-116567440D01*
X246646069Y-116805535D02*
X245646069Y-116805535D01*
X245646069Y-116805535D02*
X245646069Y-116424583D01*
X245646069Y-116424583D02*
X245693688Y-116329345D01*
X245693688Y-116329345D02*
X245741307Y-116281726D01*
X245741307Y-116281726D02*
X245836545Y-116234107D01*
X245836545Y-116234107D02*
X245979402Y-116234107D01*
X245979402Y-116234107D02*
X246074640Y-116281726D01*
X246074640Y-116281726D02*
X246122259Y-116329345D01*
X246122259Y-116329345D02*
X246169878Y-116424583D01*
X246169878Y-116424583D02*
X246169878Y-116805535D01*
X246646069Y-115281726D02*
X246646069Y-115853154D01*
X246646069Y-115567440D02*
X245646069Y-115567440D01*
X245646069Y-115567440D02*
X245788926Y-115662678D01*
X245788926Y-115662678D02*
X245884164Y-115757916D01*
X245884164Y-115757916D02*
X245931783Y-115853154D01*
X246646069Y-114329345D02*
X246646069Y-114900773D01*
X246646069Y-114615059D02*
X245646069Y-114615059D01*
X245646069Y-114615059D02*
X245788926Y-114710297D01*
X245788926Y-114710297D02*
X245884164Y-114805535D01*
X245884164Y-114805535D02*
X245931783Y-114900773D01*
X304446069Y-84605535D02*
X305160354Y-84605535D01*
X305160354Y-84605535D02*
X305303211Y-84653154D01*
X305303211Y-84653154D02*
X305398450Y-84748392D01*
X305398450Y-84748392D02*
X305446069Y-84891249D01*
X305446069Y-84891249D02*
X305446069Y-84986487D01*
X305541307Y-84367440D02*
X305541307Y-83605535D01*
X305446069Y-83367439D02*
X304446069Y-83367439D01*
X304446069Y-83367439D02*
X304446069Y-83129344D01*
X304446069Y-83129344D02*
X304493688Y-82986487D01*
X304493688Y-82986487D02*
X304588926Y-82891249D01*
X304588926Y-82891249D02*
X304684164Y-82843630D01*
X304684164Y-82843630D02*
X304874640Y-82796011D01*
X304874640Y-82796011D02*
X305017497Y-82796011D01*
X305017497Y-82796011D02*
X305207973Y-82843630D01*
X305207973Y-82843630D02*
X305303211Y-82891249D01*
X305303211Y-82891249D02*
X305398450Y-82986487D01*
X305398450Y-82986487D02*
X305446069Y-83129344D01*
X305446069Y-83129344D02*
X305446069Y-83367439D01*
X305350830Y-81796011D02*
X305398450Y-81843630D01*
X305398450Y-81843630D02*
X305446069Y-81986487D01*
X305446069Y-81986487D02*
X305446069Y-82081725D01*
X305446069Y-82081725D02*
X305398450Y-82224582D01*
X305398450Y-82224582D02*
X305303211Y-82319820D01*
X305303211Y-82319820D02*
X305207973Y-82367439D01*
X305207973Y-82367439D02*
X305017497Y-82415058D01*
X305017497Y-82415058D02*
X304874640Y-82415058D01*
X304874640Y-82415058D02*
X304684164Y-82367439D01*
X304684164Y-82367439D02*
X304588926Y-82319820D01*
X304588926Y-82319820D02*
X304493688Y-82224582D01*
X304493688Y-82224582D02*
X304446069Y-82081725D01*
X304446069Y-82081725D02*
X304446069Y-81986487D01*
X304446069Y-81986487D02*
X304493688Y-81843630D01*
X304493688Y-81843630D02*
X304541307Y-81796011D01*
X305446069Y-80843630D02*
X305446069Y-81415058D01*
X305446069Y-81129344D02*
X304446069Y-81129344D01*
X304446069Y-81129344D02*
X304588926Y-81224582D01*
X304588926Y-81224582D02*
X304684164Y-81319820D01*
X304684164Y-81319820D02*
X304731783Y-81415058D01*
X310696069Y-112857916D02*
X310219878Y-113191249D01*
X310696069Y-113429344D02*
X309696069Y-113429344D01*
X309696069Y-113429344D02*
X309696069Y-113048392D01*
X309696069Y-113048392D02*
X309743688Y-112953154D01*
X309743688Y-112953154D02*
X309791307Y-112905535D01*
X309791307Y-112905535D02*
X309886545Y-112857916D01*
X309886545Y-112857916D02*
X310029402Y-112857916D01*
X310029402Y-112857916D02*
X310124640Y-112905535D01*
X310124640Y-112905535D02*
X310172259Y-112953154D01*
X310172259Y-112953154D02*
X310219878Y-113048392D01*
X310219878Y-113048392D02*
X310219878Y-113429344D01*
X310029402Y-112000773D02*
X310696069Y-112000773D01*
X309648450Y-112238868D02*
X310362735Y-112476963D01*
X310362735Y-112476963D02*
X310362735Y-111857916D01*
X304674583Y-100358569D02*
X304341250Y-99882378D01*
X304103155Y-100358569D02*
X304103155Y-99358569D01*
X304103155Y-99358569D02*
X304484107Y-99358569D01*
X304484107Y-99358569D02*
X304579345Y-99406188D01*
X304579345Y-99406188D02*
X304626964Y-99453807D01*
X304626964Y-99453807D02*
X304674583Y-99549045D01*
X304674583Y-99549045D02*
X304674583Y-99691902D01*
X304674583Y-99691902D02*
X304626964Y-99787140D01*
X304626964Y-99787140D02*
X304579345Y-99834759D01*
X304579345Y-99834759D02*
X304484107Y-99882378D01*
X304484107Y-99882378D02*
X304103155Y-99882378D01*
X305007917Y-99358569D02*
X305626964Y-99358569D01*
X305626964Y-99358569D02*
X305293631Y-99739521D01*
X305293631Y-99739521D02*
X305436488Y-99739521D01*
X305436488Y-99739521D02*
X305531726Y-99787140D01*
X305531726Y-99787140D02*
X305579345Y-99834759D01*
X305579345Y-99834759D02*
X305626964Y-99929997D01*
X305626964Y-99929997D02*
X305626964Y-100168092D01*
X305626964Y-100168092D02*
X305579345Y-100263330D01*
X305579345Y-100263330D02*
X305531726Y-100310950D01*
X305531726Y-100310950D02*
X305436488Y-100358569D01*
X305436488Y-100358569D02*
X305150774Y-100358569D01*
X305150774Y-100358569D02*
X305055536Y-100310950D01*
X305055536Y-100310950D02*
X305007917Y-100263330D01*
X313820830Y-101457916D02*
X313868450Y-101505535D01*
X313868450Y-101505535D02*
X313916069Y-101648392D01*
X313916069Y-101648392D02*
X313916069Y-101743630D01*
X313916069Y-101743630D02*
X313868450Y-101886487D01*
X313868450Y-101886487D02*
X313773211Y-101981725D01*
X313773211Y-101981725D02*
X313677973Y-102029344D01*
X313677973Y-102029344D02*
X313487497Y-102076963D01*
X313487497Y-102076963D02*
X313344640Y-102076963D01*
X313344640Y-102076963D02*
X313154164Y-102029344D01*
X313154164Y-102029344D02*
X313058926Y-101981725D01*
X313058926Y-101981725D02*
X312963688Y-101886487D01*
X312963688Y-101886487D02*
X312916069Y-101743630D01*
X312916069Y-101743630D02*
X312916069Y-101648392D01*
X312916069Y-101648392D02*
X312963688Y-101505535D01*
X312963688Y-101505535D02*
X313011307Y-101457916D01*
X312916069Y-101124582D02*
X312916069Y-100505535D01*
X312916069Y-100505535D02*
X313297021Y-100838868D01*
X313297021Y-100838868D02*
X313297021Y-100696011D01*
X313297021Y-100696011D02*
X313344640Y-100600773D01*
X313344640Y-100600773D02*
X313392259Y-100553154D01*
X313392259Y-100553154D02*
X313487497Y-100505535D01*
X313487497Y-100505535D02*
X313725592Y-100505535D01*
X313725592Y-100505535D02*
X313820830Y-100553154D01*
X313820830Y-100553154D02*
X313868450Y-100600773D01*
X313868450Y-100600773D02*
X313916069Y-100696011D01*
X313916069Y-100696011D02*
X313916069Y-100981725D01*
X313916069Y-100981725D02*
X313868450Y-101076963D01*
X313868450Y-101076963D02*
X313820830Y-101124582D01*
X303224583Y-119046069D02*
X302748393Y-119046069D01*
X302748393Y-119046069D02*
X302748393Y-118046069D01*
X303462679Y-118046069D02*
X304081726Y-118046069D01*
X304081726Y-118046069D02*
X303748393Y-118427021D01*
X303748393Y-118427021D02*
X303891250Y-118427021D01*
X303891250Y-118427021D02*
X303986488Y-118474640D01*
X303986488Y-118474640D02*
X304034107Y-118522259D01*
X304034107Y-118522259D02*
X304081726Y-118617497D01*
X304081726Y-118617497D02*
X304081726Y-118855592D01*
X304081726Y-118855592D02*
X304034107Y-118950830D01*
X304034107Y-118950830D02*
X303986488Y-118998450D01*
X303986488Y-118998450D02*
X303891250Y-119046069D01*
X303891250Y-119046069D02*
X303605536Y-119046069D01*
X303605536Y-119046069D02*
X303510298Y-118998450D01*
X303510298Y-118998450D02*
X303462679Y-118950830D01*
X268803155Y-98846069D02*
X268803155Y-97846069D01*
X268803155Y-97846069D02*
X269041250Y-97846069D01*
X269041250Y-97846069D02*
X269184107Y-97893688D01*
X269184107Y-97893688D02*
X269279345Y-97988926D01*
X269279345Y-97988926D02*
X269326964Y-98084164D01*
X269326964Y-98084164D02*
X269374583Y-98274640D01*
X269374583Y-98274640D02*
X269374583Y-98417497D01*
X269374583Y-98417497D02*
X269326964Y-98607973D01*
X269326964Y-98607973D02*
X269279345Y-98703211D01*
X269279345Y-98703211D02*
X269184107Y-98798450D01*
X269184107Y-98798450D02*
X269041250Y-98846069D01*
X269041250Y-98846069D02*
X268803155Y-98846069D01*
X269755536Y-97941307D02*
X269803155Y-97893688D01*
X269803155Y-97893688D02*
X269898393Y-97846069D01*
X269898393Y-97846069D02*
X270136488Y-97846069D01*
X270136488Y-97846069D02*
X270231726Y-97893688D01*
X270231726Y-97893688D02*
X270279345Y-97941307D01*
X270279345Y-97941307D02*
X270326964Y-98036545D01*
X270326964Y-98036545D02*
X270326964Y-98131783D01*
X270326964Y-98131783D02*
X270279345Y-98274640D01*
X270279345Y-98274640D02*
X269707917Y-98846069D01*
X269707917Y-98846069D02*
X270326964Y-98846069D01*
X315637083Y-93546069D02*
X315303750Y-93069878D01*
X315065655Y-93546069D02*
X315065655Y-92546069D01*
X315065655Y-92546069D02*
X315446607Y-92546069D01*
X315446607Y-92546069D02*
X315541845Y-92593688D01*
X315541845Y-92593688D02*
X315589464Y-92641307D01*
X315589464Y-92641307D02*
X315637083Y-92736545D01*
X315637083Y-92736545D02*
X315637083Y-92879402D01*
X315637083Y-92879402D02*
X315589464Y-92974640D01*
X315589464Y-92974640D02*
X315541845Y-93022259D01*
X315541845Y-93022259D02*
X315446607Y-93069878D01*
X315446607Y-93069878D02*
X315065655Y-93069878D01*
X316589464Y-93546069D02*
X316018036Y-93546069D01*
X316303750Y-93546069D02*
X316303750Y-92546069D01*
X316303750Y-92546069D02*
X316208512Y-92688926D01*
X316208512Y-92688926D02*
X316113274Y-92784164D01*
X316113274Y-92784164D02*
X316018036Y-92831783D01*
X279500830Y-97057916D02*
X279548450Y-97105535D01*
X279548450Y-97105535D02*
X279596069Y-97248392D01*
X279596069Y-97248392D02*
X279596069Y-97343630D01*
X279596069Y-97343630D02*
X279548450Y-97486487D01*
X279548450Y-97486487D02*
X279453211Y-97581725D01*
X279453211Y-97581725D02*
X279357973Y-97629344D01*
X279357973Y-97629344D02*
X279167497Y-97676963D01*
X279167497Y-97676963D02*
X279024640Y-97676963D01*
X279024640Y-97676963D02*
X278834164Y-97629344D01*
X278834164Y-97629344D02*
X278738926Y-97581725D01*
X278738926Y-97581725D02*
X278643688Y-97486487D01*
X278643688Y-97486487D02*
X278596069Y-97343630D01*
X278596069Y-97343630D02*
X278596069Y-97248392D01*
X278596069Y-97248392D02*
X278643688Y-97105535D01*
X278643688Y-97105535D02*
X278691307Y-97057916D01*
X279596069Y-96581725D02*
X279596069Y-96391249D01*
X279596069Y-96391249D02*
X279548450Y-96296011D01*
X279548450Y-96296011D02*
X279500830Y-96248392D01*
X279500830Y-96248392D02*
X279357973Y-96153154D01*
X279357973Y-96153154D02*
X279167497Y-96105535D01*
X279167497Y-96105535D02*
X278786545Y-96105535D01*
X278786545Y-96105535D02*
X278691307Y-96153154D01*
X278691307Y-96153154D02*
X278643688Y-96200773D01*
X278643688Y-96200773D02*
X278596069Y-96296011D01*
X278596069Y-96296011D02*
X278596069Y-96486487D01*
X278596069Y-96486487D02*
X278643688Y-96581725D01*
X278643688Y-96581725D02*
X278691307Y-96629344D01*
X278691307Y-96629344D02*
X278786545Y-96676963D01*
X278786545Y-96676963D02*
X279024640Y-96676963D01*
X279024640Y-96676963D02*
X279119878Y-96629344D01*
X279119878Y-96629344D02*
X279167497Y-96581725D01*
X279167497Y-96581725D02*
X279215116Y-96486487D01*
X279215116Y-96486487D02*
X279215116Y-96296011D01*
X279215116Y-96296011D02*
X279167497Y-96200773D01*
X279167497Y-96200773D02*
X279119878Y-96153154D01*
X279119878Y-96153154D02*
X279024640Y-96105535D01*
X241546069Y-115457916D02*
X241069878Y-115791249D01*
X241546069Y-116029344D02*
X240546069Y-116029344D01*
X240546069Y-116029344D02*
X240546069Y-115648392D01*
X240546069Y-115648392D02*
X240593688Y-115553154D01*
X240593688Y-115553154D02*
X240641307Y-115505535D01*
X240641307Y-115505535D02*
X240736545Y-115457916D01*
X240736545Y-115457916D02*
X240879402Y-115457916D01*
X240879402Y-115457916D02*
X240974640Y-115505535D01*
X240974640Y-115505535D02*
X241022259Y-115553154D01*
X241022259Y-115553154D02*
X241069878Y-115648392D01*
X241069878Y-115648392D02*
X241069878Y-116029344D01*
X241546069Y-114981725D02*
X241546069Y-114791249D01*
X241546069Y-114791249D02*
X241498450Y-114696011D01*
X241498450Y-114696011D02*
X241450830Y-114648392D01*
X241450830Y-114648392D02*
X241307973Y-114553154D01*
X241307973Y-114553154D02*
X241117497Y-114505535D01*
X241117497Y-114505535D02*
X240736545Y-114505535D01*
X240736545Y-114505535D02*
X240641307Y-114553154D01*
X240641307Y-114553154D02*
X240593688Y-114600773D01*
X240593688Y-114600773D02*
X240546069Y-114696011D01*
X240546069Y-114696011D02*
X240546069Y-114886487D01*
X240546069Y-114886487D02*
X240593688Y-114981725D01*
X240593688Y-114981725D02*
X240641307Y-115029344D01*
X240641307Y-115029344D02*
X240736545Y-115076963D01*
X240736545Y-115076963D02*
X240974640Y-115076963D01*
X240974640Y-115076963D02*
X241069878Y-115029344D01*
X241069878Y-115029344D02*
X241117497Y-114981725D01*
X241117497Y-114981725D02*
X241165116Y-114886487D01*
X241165116Y-114886487D02*
X241165116Y-114696011D01*
X241165116Y-114696011D02*
X241117497Y-114600773D01*
X241117497Y-114600773D02*
X241069878Y-114553154D01*
X241069878Y-114553154D02*
X240974640Y-114505535D01*
X265068392Y-98693569D02*
X264735059Y-98217378D01*
X264496964Y-98693569D02*
X264496964Y-97693569D01*
X264496964Y-97693569D02*
X264877916Y-97693569D01*
X264877916Y-97693569D02*
X264973154Y-97741188D01*
X264973154Y-97741188D02*
X265020773Y-97788807D01*
X265020773Y-97788807D02*
X265068392Y-97884045D01*
X265068392Y-97884045D02*
X265068392Y-98026902D01*
X265068392Y-98026902D02*
X265020773Y-98122140D01*
X265020773Y-98122140D02*
X264973154Y-98169759D01*
X264973154Y-98169759D02*
X264877916Y-98217378D01*
X264877916Y-98217378D02*
X264496964Y-98217378D01*
X266020773Y-98693569D02*
X265449345Y-98693569D01*
X265735059Y-98693569D02*
X265735059Y-97693569D01*
X265735059Y-97693569D02*
X265639821Y-97836426D01*
X265639821Y-97836426D02*
X265544583Y-97931664D01*
X265544583Y-97931664D02*
X265449345Y-97979283D01*
X266877916Y-98026902D02*
X266877916Y-98693569D01*
X266639821Y-97645950D02*
X266401726Y-98360235D01*
X266401726Y-98360235D02*
X267020773Y-98360235D01*
D14*
%TO.C,D1*%
X301091250Y-98101250D02*
X301091250Y-92291250D01*
X301091250Y-98101250D02*
X305391250Y-98101250D01*
X305391250Y-98101250D02*
X305391250Y-92291250D01*
%TO.C,R8*%
X250606250Y-112918314D02*
X250606250Y-112464186D01*
X252076250Y-112918314D02*
X252076250Y-112464186D01*
%TO.C,D6*%
X150375250Y-117215250D02*
X144865250Y-117215250D01*
X150375250Y-120515250D02*
X144865250Y-120515250D01*
X150375250Y-120515250D02*
X150375250Y-117215250D01*
%TO.C,J2*%
X264941250Y-125216250D02*
X264941250Y-130516250D01*
X265511250Y-125216250D02*
X264941250Y-125216250D01*
X265511250Y-130516250D02*
X264941250Y-130516250D01*
X268051250Y-125216250D02*
X267131250Y-125216250D01*
X268051250Y-130516250D02*
X267131250Y-130516250D01*
X270591250Y-125216250D02*
X269671250Y-125216250D01*
X270591250Y-130516250D02*
X269671250Y-130516250D01*
X273131250Y-125216250D02*
X272211250Y-125216250D01*
X273131250Y-130516250D02*
X272211250Y-130516250D01*
X275671250Y-125216250D02*
X274751250Y-125216250D01*
X275671250Y-130516250D02*
X274751250Y-130516250D01*
X278211250Y-125216250D02*
X277291250Y-125216250D01*
X278211250Y-130516250D02*
X277291250Y-130516250D01*
X280751250Y-125216250D02*
X279831250Y-125216250D01*
X280751250Y-130516250D02*
X279831250Y-130516250D01*
X283291250Y-125216250D02*
X282371250Y-125216250D01*
X283291250Y-130516250D02*
X282371250Y-130516250D01*
X285831250Y-125216250D02*
X284911250Y-125216250D01*
X285831250Y-130516250D02*
X284911250Y-130516250D01*
X288371250Y-125216250D02*
X287451250Y-125216250D01*
X288371250Y-130516250D02*
X287451250Y-130516250D01*
X290911250Y-125216250D02*
X289991250Y-125216250D01*
X290911250Y-130516250D02*
X289991250Y-130516250D01*
X293451250Y-125216250D02*
X292531250Y-125216250D01*
X293451250Y-130516250D02*
X292531250Y-130516250D01*
X295071250Y-123826250D02*
X295071250Y-125216250D01*
X295641250Y-125216250D02*
X295071250Y-125216250D01*
X295641250Y-125216250D02*
X295641250Y-130516250D01*
X295641250Y-130516250D02*
X295071250Y-130516250D01*
%TO.C,J_OUT_ST1*%
X198853750Y-82891250D02*
X198853750Y-83891250D01*
X198853750Y-83891250D02*
X199403750Y-83391250D01*
X199403750Y-83391250D02*
X198853750Y-82891250D01*
D10*
X199703750Y-77566250D02*
X211703750Y-77591250D01*
X199703750Y-81116250D02*
X199703750Y-77566250D01*
X199703750Y-89366250D02*
X199703750Y-85616250D01*
X202403750Y-74091250D02*
X202403750Y-77591250D01*
X208603750Y-74091250D02*
X202403750Y-74091250D01*
X208603750Y-77591250D02*
X208603750Y-74091250D01*
X211703750Y-77591250D02*
X211703750Y-80891250D01*
X211703750Y-85591250D02*
X211703750Y-89391250D01*
X211703750Y-89391250D02*
X199703750Y-89391250D01*
D14*
%TO.C,D8*%
X157725250Y-117215250D02*
X152215250Y-117215250D01*
X157725250Y-120515250D02*
X152215250Y-120515250D01*
X157725250Y-120515250D02*
X157725250Y-117215250D01*
%TO.C,R20*%
X103852992Y-116942750D02*
X104327508Y-116942750D01*
X103852992Y-117987750D02*
X104327508Y-117987750D01*
%TO.C,L2*%
X318936250Y-120606529D02*
X318936250Y-120280971D01*
X319956250Y-120606529D02*
X319956250Y-120280971D01*
%TO.C,C14*%
X95810250Y-119761502D02*
X95810250Y-119238998D01*
X97280250Y-119761502D02*
X97280250Y-119238998D01*
%TO.C,C26*%
X174130250Y-119876502D02*
X174130250Y-119353998D01*
X175600250Y-119876502D02*
X175600250Y-119353998D01*
%TO.C,C12*%
X65760250Y-115761502D02*
X65760250Y-115238998D01*
X67230250Y-115761502D02*
X67230250Y-115238998D01*
%TO.C,D4*%
X109885250Y-117152750D02*
X109935250Y-117152750D01*
X109885250Y-118672750D02*
X109885250Y-117152750D01*
X110885250Y-118672750D02*
X109885250Y-118672750D01*
X111055250Y-117152750D02*
X111835250Y-117152750D01*
X112955250Y-117152750D02*
X113005250Y-117152750D01*
X113005250Y-117152750D02*
X113005250Y-118672750D01*
X113005250Y-118672750D02*
X112005250Y-118672750D01*
X111825250Y-116612750D02*
X111495250Y-116852750D01*
X111495250Y-116372750D01*
X111825250Y-116612750D01*
G36*
X111825250Y-116612750D02*
G01*
X111495250Y-116852750D01*
X111495250Y-116372750D01*
X111825250Y-116612750D01*
G37*
%TO.C,U2*%
X301431250Y-103468750D02*
X303251250Y-103468750D01*
X301431250Y-103518750D02*
X301431250Y-103468750D01*
X301431250Y-106588750D02*
X301431250Y-106538750D01*
X303251250Y-103468750D02*
X303251250Y-103518750D01*
X303251250Y-106538750D02*
X303251250Y-106588750D01*
X303251250Y-106588750D02*
X301431250Y-106588750D01*
X300891250Y-103518750D02*
X300651250Y-103188750D01*
X301131250Y-103188750D01*
X300891250Y-103518750D01*
G36*
X300891250Y-103518750D02*
G01*
X300651250Y-103188750D01*
X301131250Y-103188750D01*
X300891250Y-103518750D01*
G37*
%TO.C,D7*%
X143075250Y-117215250D02*
X137565250Y-117215250D01*
X143075250Y-120515250D02*
X137565250Y-120515250D01*
X143075250Y-120515250D02*
X143075250Y-117215250D01*
%TO.C,J6*%
X196771250Y-95561250D02*
X196771250Y-98321250D01*
X204501250Y-95561250D02*
X196771250Y-95561250D01*
X204501250Y-95561250D02*
X204501250Y-98321250D01*
X204501250Y-98321250D02*
X196771250Y-98321250D01*
X205771250Y-95561250D02*
X207151250Y-95561250D01*
X207151250Y-95561250D02*
X207151250Y-96941250D01*
%TO.C,C17*%
X77053998Y-116780250D02*
X77576502Y-116780250D01*
X77053998Y-118250250D02*
X77576502Y-118250250D01*
%TO.C,R16*%
X276876250Y-101051686D02*
X276876250Y-101505814D01*
X278346250Y-101051686D02*
X278346250Y-101505814D01*
%TO.C,C1*%
X318611250Y-113892502D02*
X318611250Y-113369998D01*
X320081250Y-113892502D02*
X320081250Y-113369998D01*
%TO.C,Q1*%
X310131250Y-94918750D02*
X310181250Y-94918750D01*
X310131250Y-96438750D02*
X310131250Y-94918750D01*
X311131250Y-96438750D02*
X310131250Y-96438750D01*
X311301250Y-94918750D02*
X312081250Y-94918750D01*
X313201250Y-94918750D02*
X313251250Y-94918750D01*
X313251250Y-94918750D02*
X313251250Y-96438750D01*
X313251250Y-96438750D02*
X312251250Y-96438750D01*
X312071250Y-94378750D02*
X311741250Y-94618750D01*
X311741250Y-94138750D01*
X312071250Y-94378750D01*
G36*
X312071250Y-94378750D02*
G01*
X311741250Y-94618750D01*
X311741250Y-94138750D01*
X312071250Y-94378750D01*
G37*
%TO.C,D10*%
X150391917Y-113715250D02*
X144881917Y-113715250D01*
X150391917Y-117015250D02*
X144881917Y-117015250D01*
X150391917Y-117015250D02*
X150391917Y-113715250D01*
%TO.C,U8*%
X176780250Y-112290250D02*
X180900250Y-112290250D01*
X176780250Y-112385250D02*
X176780250Y-112290250D01*
X176780250Y-117410250D02*
X176780250Y-117315250D01*
X180900250Y-112290250D02*
X180900250Y-112385250D01*
X180900250Y-117315250D02*
X180900250Y-117410250D01*
X180900250Y-117410250D02*
X176780250Y-117410250D01*
X181680250Y-117650250D02*
X181200250Y-117650250D01*
X181440250Y-117320250D01*
X181680250Y-117650250D01*
G36*
X181680250Y-117650250D02*
G01*
X181200250Y-117650250D01*
X181440250Y-117320250D01*
X181680250Y-117650250D01*
G37*
%TO.C,R10*%
X243606250Y-112818314D02*
X243606250Y-112364186D01*
X245076250Y-112818314D02*
X245076250Y-112364186D01*
%TO.C,C10*%
X65760250Y-119761502D02*
X65760250Y-119238998D01*
X67230250Y-119761502D02*
X67230250Y-119238998D01*
%TO.C,C6*%
X308579998Y-117156250D02*
X309102502Y-117156250D01*
X308579998Y-118626250D02*
X309102502Y-118626250D01*
D15*
%TO.C,J_MIDI_OUT_1*%
X236561250Y-90041250D02*
X236561250Y-90041250D01*
X236661250Y-90041250D02*
X236661250Y-90041250D01*
X236661250Y-90041250D02*
X236661250Y-90041250D01*
D16*
X237261250Y-77541250D02*
X237261250Y-77541250D01*
X237261250Y-77541250D02*
X237261250Y-77541250D01*
X237261250Y-77541250D02*
X237261250Y-93341250D01*
X237261250Y-77541250D02*
X257261250Y-77541250D01*
X237261250Y-93341250D02*
X237261250Y-77541250D01*
X237261250Y-93341250D02*
X237261250Y-93341250D01*
X237261250Y-93341250D02*
X237261250Y-93341250D01*
X237261250Y-93341250D02*
X240761250Y-93341250D01*
X240761250Y-93341250D02*
X237261250Y-93341250D01*
X240761250Y-93341250D02*
X240761250Y-93341250D01*
X243761250Y-93341250D02*
X243761250Y-93341250D01*
X243761250Y-93341250D02*
X250511250Y-93341250D01*
X250511250Y-93341250D02*
X243761250Y-93341250D01*
X250511250Y-93341250D02*
X250511250Y-93341250D01*
X253761250Y-93341250D02*
X253761250Y-93341250D01*
X253761250Y-93341250D02*
X257261250Y-93341250D01*
X257261250Y-77541250D02*
X237261250Y-77541250D01*
X257261250Y-77541250D02*
X257261250Y-77541250D01*
X257261250Y-77541250D02*
X257261250Y-77541250D01*
X257261250Y-77541250D02*
X257261250Y-93341250D01*
X257261250Y-93341250D02*
X253761250Y-93341250D01*
X257261250Y-93341250D02*
X257261250Y-77541250D01*
X257261250Y-93341250D02*
X257261250Y-93341250D01*
X257261250Y-93341250D02*
X257261250Y-93341250D01*
D15*
X236561250Y-90041250D02*
G75*
G02*
X236661250Y-90041250I50000J0D01*
G01*
X236561250Y-90041250D02*
G75*
G02*
X236661250Y-90041250I50000J0D01*
G01*
X236661250Y-90041250D02*
G75*
G02*
X236561250Y-90041250I-50000J0D01*
G01*
D14*
%TO.C,U6*%
X90035250Y-115440250D02*
X90130250Y-115440250D01*
X90035250Y-119560250D02*
X90035250Y-115440250D01*
X90130250Y-119560250D02*
X90035250Y-119560250D01*
X95060250Y-115440250D02*
X95155250Y-115440250D01*
X95155250Y-115440250D02*
X95155250Y-119560250D01*
X95155250Y-119560250D02*
X95060250Y-119560250D01*
X95395250Y-115140250D02*
X95065250Y-114900250D01*
X95395250Y-114660250D01*
X95395250Y-115140250D01*
G36*
X95395250Y-115140250D02*
G01*
X95065250Y-114900250D01*
X95395250Y-114660250D01*
X95395250Y-115140250D01*
G37*
%TO.C,D3*%
X80005250Y-117367750D02*
X80055250Y-117367750D01*
X80005250Y-118887750D02*
X80005250Y-117367750D01*
X81005250Y-118887750D02*
X80005250Y-118887750D01*
X81175250Y-117367750D02*
X81955250Y-117367750D01*
X83075250Y-117367750D02*
X83125250Y-117367750D01*
X83125250Y-117367750D02*
X83125250Y-118887750D01*
X83125250Y-118887750D02*
X82125250Y-118887750D01*
X81945250Y-116827750D02*
X81615250Y-117067750D01*
X81615250Y-116587750D01*
X81945250Y-116827750D01*
G36*
X81945250Y-116827750D02*
G01*
X81615250Y-117067750D01*
X81615250Y-116587750D01*
X81945250Y-116827750D01*
G37*
%TO.C,R7*%
X248706250Y-112918314D02*
X248706250Y-112464186D01*
X250176250Y-112918314D02*
X250176250Y-112464186D01*
%TO.C,C11*%
X67910250Y-119761502D02*
X67910250Y-119238998D01*
X69380250Y-119761502D02*
X69380250Y-119238998D01*
%TO.C,R12*%
X245221686Y-95853750D02*
X245675814Y-95853750D01*
X245221686Y-97323750D02*
X245675814Y-97323750D01*
%TO.C,R21*%
X85302992Y-116917750D02*
X85777508Y-116917750D01*
X85302992Y-117962750D02*
X85777508Y-117962750D01*
%TO.C,C13*%
X67910250Y-115761502D02*
X67910250Y-115238998D01*
X69380250Y-115761502D02*
X69380250Y-115238998D01*
%TO.C,R2*%
X301214186Y-100818750D02*
X301668314Y-100818750D01*
X301214186Y-102288750D02*
X301668314Y-102288750D01*
%TO.C,R25*%
X183875417Y-99553992D02*
X183875417Y-100028508D01*
X184920417Y-99553992D02*
X184920417Y-100028508D01*
%TO.C,R23*%
X114807992Y-116777750D02*
X115282508Y-116777750D01*
X114807992Y-117822750D02*
X115282508Y-117822750D01*
%TO.C,C16*%
X95810250Y-115761502D02*
X95810250Y-115238998D01*
X97280250Y-115761502D02*
X97280250Y-115238998D01*
D17*
%TO.C,U3*%
X254203150Y-102979725D02*
X256743150Y-102979725D01*
X254203150Y-110282225D02*
X254203150Y-102979725D01*
D18*
X255155650Y-111869725D02*
X257378150Y-111869725D01*
X255155650Y-122347225D02*
X255155650Y-111869725D01*
D17*
X256743150Y-102979725D02*
X256743150Y-110282225D01*
X256743150Y-110282225D02*
X254203150Y-110282225D01*
D18*
X257378150Y-111869725D02*
X257378150Y-122347225D01*
X257378150Y-122347225D02*
X255155650Y-122347225D01*
D14*
%TO.C,R22*%
X85777508Y-118467750D02*
X85302992Y-118467750D01*
X85777508Y-119512750D02*
X85302992Y-119512750D01*
%TO.C,R17*%
X224775814Y-95853750D02*
X224321686Y-95853750D01*
X224775814Y-97323750D02*
X224321686Y-97323750D01*
%TO.C,J_IN_ST1*%
X185403750Y-82891250D02*
X185403750Y-83891250D01*
X185403750Y-83891250D02*
X185953750Y-83391250D01*
X185953750Y-83391250D02*
X185403750Y-82891250D01*
D10*
X186253750Y-77566250D02*
X198253750Y-77591250D01*
X186253750Y-81116250D02*
X186253750Y-77566250D01*
X186253750Y-89366250D02*
X186253750Y-85616250D01*
X188953750Y-74091250D02*
X188953750Y-77591250D01*
X195153750Y-74091250D02*
X188953750Y-74091250D01*
X195153750Y-77591250D02*
X195153750Y-74091250D01*
X198253750Y-77591250D02*
X198253750Y-80891250D01*
X198253750Y-85591250D02*
X198253750Y-89391250D01*
X198253750Y-89391250D02*
X186253750Y-89391250D01*
D14*
%TO.C,C27*%
X176354536Y-119876502D02*
X176354536Y-119353998D01*
X177824536Y-119876502D02*
X177824536Y-119353998D01*
%TO.C,J4*%
X63086250Y-77546250D02*
X63086250Y-84136250D01*
X63086250Y-77546250D02*
X64586250Y-77546250D01*
X64586250Y-74846250D02*
X67586250Y-74846250D01*
X64586250Y-77546250D02*
X64586250Y-74846250D01*
X64586250Y-84136250D02*
X63086250Y-84136250D01*
X64586250Y-84136250D02*
X64586250Y-89236250D01*
X64586250Y-89236250D02*
X67386250Y-89236250D01*
X67386250Y-89236250D02*
X67386250Y-94981250D01*
X67386250Y-97181250D02*
X67386250Y-102286250D01*
X67386250Y-102286250D02*
X74406250Y-102286250D01*
X67586250Y-74846250D02*
X67586250Y-73846250D01*
X77006250Y-102286250D02*
X84026250Y-102286250D01*
X83826250Y-74846250D02*
X83826250Y-73846250D01*
X83826250Y-74846250D02*
X86826250Y-74846250D01*
X84021250Y-97881250D02*
X84021250Y-102286250D01*
X84026250Y-89236250D02*
X84026250Y-95581250D01*
X86826250Y-77546250D02*
X86826250Y-74846250D01*
X86826250Y-77546250D02*
X88326250Y-77546250D01*
X86826250Y-84136250D02*
X86826250Y-89236250D01*
X86826250Y-89236250D02*
X84026250Y-89236250D01*
X88326250Y-77546250D02*
X88326250Y-84136250D01*
X88326250Y-84136250D02*
X86826250Y-84136250D01*
X67586250Y-73846250D02*
G75*
G02*
X83806480Y-73835649I8120000J-15120000D01*
G01*
%TO.C,C7*%
X308579998Y-115106250D02*
X309102502Y-115106250D01*
X308579998Y-116576250D02*
X309102502Y-116576250D01*
%TO.C,U7*%
X166780250Y-112290250D02*
X170900250Y-112290250D01*
X166780250Y-112385250D02*
X166780250Y-112290250D01*
X166780250Y-117410250D02*
X166780250Y-117315250D01*
X170900250Y-112290250D02*
X170900250Y-112385250D01*
X170900250Y-117315250D02*
X170900250Y-117410250D01*
X170900250Y-117410250D02*
X166780250Y-117410250D01*
X171680250Y-117650250D02*
X171200250Y-117650250D01*
X171440250Y-117320250D01*
X171680250Y-117650250D01*
G36*
X171680250Y-117650250D02*
G01*
X171200250Y-117650250D01*
X171440250Y-117320250D01*
X171680250Y-117650250D01*
G37*
%TO.C,C2*%
X318661250Y-123594998D02*
X318661250Y-124117502D01*
X320131250Y-123594998D02*
X320131250Y-124117502D01*
%TO.C,R24*%
X115282508Y-118327750D02*
X114807992Y-118327750D01*
X115282508Y-119372750D02*
X114807992Y-119372750D01*
%TO.C,J1*%
X300201250Y-134086250D02*
X300201250Y-139386250D01*
X307931250Y-134086250D02*
X300201250Y-134086250D01*
X307931250Y-134086250D02*
X307931250Y-136736250D01*
X307931250Y-136736250D02*
X310581250Y-136736250D01*
X309201250Y-134086250D02*
X310581250Y-134086250D01*
X310581250Y-134086250D02*
X310581250Y-135466250D01*
X310581250Y-136736250D02*
X310581250Y-139386250D01*
X310581250Y-139386250D02*
X300201250Y-139386250D01*
D15*
%TO.C,S1*%
X176497917Y-94141250D02*
X176497917Y-94141250D01*
X176497917Y-94341250D02*
X176497917Y-94341250D01*
D16*
X177097917Y-87041250D02*
X177097917Y-97041250D01*
X177097917Y-97041250D02*
X182097917Y-97041250D01*
X184097917Y-85041250D02*
X179097917Y-85041250D01*
X184097917Y-95041250D02*
X184097917Y-85041250D01*
D15*
X176497917Y-94141250D02*
G75*
G02*
X176497917Y-94341250I0J-100000D01*
G01*
X176497917Y-94341250D02*
G75*
G02*
X176497917Y-94141250I0J100000D01*
G01*
D14*
%TO.C,C20*%
X164781679Y-119861502D02*
X164781679Y-119338998D01*
X166251679Y-119861502D02*
X166251679Y-119338998D01*
%TO.C,L1*%
X318886250Y-116868471D02*
X318886250Y-117194029D01*
X319906250Y-116868471D02*
X319906250Y-117194029D01*
%TO.C,C19*%
X98010250Y-115761502D02*
X98010250Y-115238998D01*
X99480250Y-115761502D02*
X99480250Y-115238998D01*
%TO.C,J9*%
X149856250Y-77536250D02*
X149856250Y-84126250D01*
X149856250Y-77536250D02*
X151356250Y-77536250D01*
X151356250Y-74836250D02*
X154356250Y-74836250D01*
X151356250Y-77536250D02*
X151356250Y-74836250D01*
X151356250Y-84126250D02*
X149856250Y-84126250D01*
X151356250Y-84126250D02*
X151356250Y-89226250D01*
X151356250Y-89226250D02*
X154156250Y-89226250D01*
X154156250Y-89226250D02*
X154156250Y-94971250D01*
X154156250Y-97171250D02*
X154156250Y-102276250D01*
X154156250Y-102276250D02*
X161176250Y-102276250D01*
X154356250Y-74836250D02*
X154356250Y-73836250D01*
X163776250Y-102276250D02*
X170796250Y-102276250D01*
X170596250Y-74836250D02*
X170596250Y-73836250D01*
X170596250Y-74836250D02*
X173596250Y-74836250D01*
X170791250Y-97871250D02*
X170791250Y-102276250D01*
X170796250Y-89226250D02*
X170796250Y-95571250D01*
X173596250Y-77536250D02*
X173596250Y-74836250D01*
X173596250Y-77536250D02*
X175096250Y-77536250D01*
X173596250Y-84126250D02*
X173596250Y-89226250D01*
X173596250Y-89226250D02*
X170796250Y-89226250D01*
X175096250Y-77536250D02*
X175096250Y-84126250D01*
X175096250Y-84126250D02*
X173596250Y-84126250D01*
X154356250Y-73836250D02*
G75*
G02*
X170576480Y-73825649I8120000J-15120000D01*
G01*
%TO.C,J5*%
X89792917Y-77521250D02*
X89792917Y-84111250D01*
X89792917Y-77521250D02*
X91292917Y-77521250D01*
X91292917Y-74821250D02*
X94292917Y-74821250D01*
X91292917Y-77521250D02*
X91292917Y-74821250D01*
X91292917Y-84111250D02*
X89792917Y-84111250D01*
X91292917Y-84111250D02*
X91292917Y-89211250D01*
X91292917Y-89211250D02*
X94092917Y-89211250D01*
X94092917Y-89211250D02*
X94092917Y-94956250D01*
X94092917Y-97156250D02*
X94092917Y-102261250D01*
X94092917Y-102261250D02*
X101112917Y-102261250D01*
X94292917Y-74821250D02*
X94292917Y-73821250D01*
X103712917Y-102261250D02*
X110732917Y-102261250D01*
X110532917Y-74821250D02*
X110532917Y-73821250D01*
X110532917Y-74821250D02*
X113532917Y-74821250D01*
X110727917Y-97856250D02*
X110727917Y-102261250D01*
X110732917Y-89211250D02*
X110732917Y-95556250D01*
X113532917Y-77521250D02*
X113532917Y-74821250D01*
X113532917Y-77521250D02*
X115032917Y-77521250D01*
X113532917Y-84111250D02*
X113532917Y-89211250D01*
X113532917Y-89211250D02*
X110732917Y-89211250D01*
X115032917Y-77521250D02*
X115032917Y-84111250D01*
X115032917Y-84111250D02*
X113532917Y-84111250D01*
X94292917Y-73821250D02*
G75*
G02*
X110513147Y-73810649I8120000J-15120000D01*
G01*
%TO.C,R6*%
X307406250Y-104130814D02*
X307406250Y-103676686D01*
X308876250Y-104130814D02*
X308876250Y-103676686D01*
%TO.C,D12*%
X157725250Y-113715250D02*
X152215250Y-113715250D01*
X157725250Y-117015250D02*
X152215250Y-117015250D01*
X157725250Y-117015250D02*
X157725250Y-113715250D01*
%TO.C,R26*%
X180068750Y-99953992D02*
X180068750Y-100428508D01*
X181113750Y-99953992D02*
X181113750Y-100428508D01*
%TO.C,C4*%
X316431250Y-96181250D02*
X318781250Y-96181250D01*
X316431250Y-101936813D02*
X316431250Y-96181250D01*
X317495687Y-103001250D02*
X316431250Y-101936813D01*
X317495687Y-103001250D02*
X318781250Y-103001250D01*
X317600000Y-103635000D02*
X318387500Y-103635000D01*
X317993750Y-104028750D02*
X317993750Y-103241250D01*
X322186813Y-103001250D02*
X320901250Y-103001250D01*
X322186813Y-103001250D02*
X323251250Y-101936813D01*
X323251250Y-96181250D02*
X320901250Y-96181250D01*
X323251250Y-101936813D02*
X323251250Y-96181250D01*
%TO.C,R5*%
X305368750Y-109568314D02*
X305368750Y-109114186D01*
X306838750Y-109568314D02*
X306838750Y-109114186D01*
%TO.C,J8*%
X123126250Y-77536250D02*
X123126250Y-84126250D01*
X123126250Y-77536250D02*
X124626250Y-77536250D01*
X124626250Y-74836250D02*
X127626250Y-74836250D01*
X124626250Y-77536250D02*
X124626250Y-74836250D01*
X124626250Y-84126250D02*
X123126250Y-84126250D01*
X124626250Y-84126250D02*
X124626250Y-89226250D01*
X124626250Y-89226250D02*
X127426250Y-89226250D01*
X127426250Y-89226250D02*
X127426250Y-94971250D01*
X127426250Y-97171250D02*
X127426250Y-102276250D01*
X127426250Y-102276250D02*
X134446250Y-102276250D01*
X127626250Y-74836250D02*
X127626250Y-73836250D01*
X137046250Y-102276250D02*
X144066250Y-102276250D01*
X143866250Y-74836250D02*
X143866250Y-73836250D01*
X143866250Y-74836250D02*
X146866250Y-74836250D01*
X144061250Y-97871250D02*
X144061250Y-102276250D01*
X144066250Y-89226250D02*
X144066250Y-95571250D01*
X146866250Y-77536250D02*
X146866250Y-74836250D01*
X146866250Y-77536250D02*
X148366250Y-77536250D01*
X146866250Y-84126250D02*
X146866250Y-89226250D01*
X146866250Y-89226250D02*
X144066250Y-89226250D01*
X148366250Y-77536250D02*
X148366250Y-84126250D01*
X148366250Y-84126250D02*
X146866250Y-84126250D01*
X127626250Y-73836250D02*
G75*
G02*
X143846480Y-73825649I8120000J-15120000D01*
G01*
%TO.C,D9*%
X135725250Y-113715250D02*
X130215250Y-113715250D01*
X135725250Y-117015250D02*
X130215250Y-117015250D01*
X135725250Y-117015250D02*
X135725250Y-113715250D01*
%TO.C,C8*%
X307318750Y-109565002D02*
X307318750Y-109042498D01*
X308788750Y-109565002D02*
X308788750Y-109042498D01*
%TO.C,D5*%
X135725250Y-117215250D02*
X130215250Y-117215250D01*
X135725250Y-120515250D02*
X130215250Y-120515250D01*
X135725250Y-120515250D02*
X135725250Y-117215250D01*
%TO.C,C15*%
X98010250Y-119761502D02*
X98010250Y-119238998D01*
X99480250Y-119761502D02*
X99480250Y-119238998D01*
%TO.C,R18*%
X234838314Y-95853750D02*
X234384186Y-95853750D01*
X234838314Y-97323750D02*
X234384186Y-97323750D01*
%TO.C,C23*%
X171454536Y-119861502D02*
X171454536Y-119338998D01*
X172924536Y-119861502D02*
X172924536Y-119338998D01*
%TO.C,D11*%
X143058583Y-113715250D02*
X137548583Y-113715250D01*
X143058583Y-117015250D02*
X137548583Y-117015250D01*
X143058583Y-117015250D02*
X143058583Y-113715250D01*
%TO.C,C24*%
X181428821Y-119856502D02*
X181428821Y-119333998D01*
X182898821Y-119856502D02*
X182898821Y-119333998D01*
D15*
%TO.C,J_MIDI_THRU1*%
X213861250Y-90041250D02*
X213861250Y-90041250D01*
X213961250Y-90041250D02*
X213961250Y-90041250D01*
X213961250Y-90041250D02*
X213961250Y-90041250D01*
D16*
X214561250Y-77541250D02*
X214561250Y-77541250D01*
X214561250Y-77541250D02*
X214561250Y-77541250D01*
X214561250Y-77541250D02*
X214561250Y-93341250D01*
X214561250Y-77541250D02*
X234561250Y-77541250D01*
X214561250Y-93341250D02*
X214561250Y-77541250D01*
X214561250Y-93341250D02*
X214561250Y-93341250D01*
X214561250Y-93341250D02*
X214561250Y-93341250D01*
X214561250Y-93341250D02*
X218061250Y-93341250D01*
X218061250Y-93341250D02*
X214561250Y-93341250D01*
X218061250Y-93341250D02*
X218061250Y-93341250D01*
X221061250Y-93341250D02*
X221061250Y-93341250D01*
X221061250Y-93341250D02*
X227811250Y-93341250D01*
X227811250Y-93341250D02*
X221061250Y-93341250D01*
X227811250Y-93341250D02*
X227811250Y-93341250D01*
X231061250Y-93341250D02*
X231061250Y-93341250D01*
X231061250Y-93341250D02*
X234561250Y-93341250D01*
X234561250Y-77541250D02*
X214561250Y-77541250D01*
X234561250Y-77541250D02*
X234561250Y-77541250D01*
X234561250Y-77541250D02*
X234561250Y-77541250D01*
X234561250Y-77541250D02*
X234561250Y-93341250D01*
X234561250Y-93341250D02*
X231061250Y-93341250D01*
X234561250Y-93341250D02*
X234561250Y-77541250D01*
X234561250Y-93341250D02*
X234561250Y-93341250D01*
X234561250Y-93341250D02*
X234561250Y-93341250D01*
D15*
X213861250Y-90041250D02*
G75*
G02*
X213961250Y-90041250I50000J0D01*
G01*
X213861250Y-90041250D02*
G75*
G02*
X213961250Y-90041250I50000J0D01*
G01*
X213961250Y-90041250D02*
G75*
G02*
X213861250Y-90041250I-50000J0D01*
G01*
D14*
%TO.C,U1*%
X311811250Y-106331250D02*
X318131250Y-106331250D01*
X311811250Y-108245250D02*
X311811250Y-106331250D01*
X311811250Y-126051250D02*
X311811250Y-108837250D01*
X318131250Y-106331250D02*
X318131250Y-126051250D01*
X318131250Y-126051250D02*
X311811250Y-126051250D01*
X311811250Y-108541250D02*
X311341250Y-108881250D01*
X311341250Y-108201250D01*
X311811250Y-108541250D01*
G36*
X311811250Y-108541250D02*
G01*
X311341250Y-108881250D01*
X311341250Y-108201250D01*
X311811250Y-108541250D01*
G37*
%TO.C,J3*%
X281996250Y-93791250D02*
X281996250Y-79781250D01*
X283476250Y-77721250D02*
X283216250Y-77721250D01*
X283676250Y-77521250D02*
X283476250Y-77721250D01*
X283676250Y-77521250D02*
X285986250Y-77521250D01*
X283916250Y-93791250D02*
X281996250Y-93791250D01*
X285986250Y-77521250D02*
X286496250Y-77871250D01*
X292866250Y-77871250D02*
X286496250Y-77871250D01*
X292866250Y-77871250D02*
X292866250Y-77721250D01*
X293076250Y-77521250D02*
X292866250Y-77721250D01*
X294936250Y-77521250D02*
X293076250Y-77521250D01*
X294936250Y-77521250D02*
X295136250Y-77721250D01*
X295516250Y-93791250D02*
X295966250Y-93791250D01*
X295966250Y-82481250D02*
X295966250Y-80681250D01*
X295966250Y-88481250D02*
X295966250Y-83781250D01*
X295966250Y-93791250D02*
X295966250Y-90181250D01*
%TO.C,U5*%
X60035250Y-115440250D02*
X60130250Y-115440250D01*
X60035250Y-119560250D02*
X60035250Y-115440250D01*
X60130250Y-119560250D02*
X60035250Y-119560250D01*
X65060250Y-115440250D02*
X65155250Y-115440250D01*
X65155250Y-115440250D02*
X65155250Y-119560250D01*
X65155250Y-119560250D02*
X65060250Y-119560250D01*
X65395250Y-115140250D02*
X65065250Y-114900250D01*
X65395250Y-114660250D01*
X65395250Y-115140250D01*
G36*
X65395250Y-115140250D02*
G01*
X65065250Y-114900250D01*
X65395250Y-114660250D01*
X65395250Y-115140250D01*
G37*
%TO.C,C5*%
X302502502Y-108856250D02*
X301979998Y-108856250D01*
X302502502Y-110326250D02*
X301979998Y-110326250D01*
%TO.C,U4*%
X269511250Y-99271250D02*
X274311250Y-99271250D01*
X269511250Y-99421250D02*
X269511250Y-99271250D01*
X269511250Y-103271250D02*
X269511250Y-103121250D01*
X274311250Y-99271250D02*
X274311250Y-99421250D01*
X274311250Y-103271250D02*
X269511250Y-103271250D01*
X274311250Y-103271250D02*
X274311250Y-103121250D01*
X269111250Y-99421250D02*
X268871250Y-99091250D01*
X269351250Y-99091250D01*
X269111250Y-99421250D01*
G36*
X269111250Y-99421250D02*
G01*
X268871250Y-99091250D01*
X269351250Y-99091250D01*
X269111250Y-99421250D01*
G37*
%TO.C,R13*%
X256971686Y-95903750D02*
X257425814Y-95903750D01*
X256971686Y-97373750D02*
X257425814Y-97373750D01*
%TO.C,R19*%
X73702992Y-116992750D02*
X74177508Y-116992750D01*
X73702992Y-118037750D02*
X74177508Y-118037750D01*
%TO.C,R15*%
X274146686Y-95903750D02*
X274600814Y-95903750D01*
X274146686Y-97373750D02*
X274600814Y-97373750D01*
%TO.C,C21*%
X167005965Y-119861502D02*
X167005965Y-119338998D01*
X168475965Y-119861502D02*
X168475965Y-119338998D01*
%TO.C,C25*%
X179204535Y-119856502D02*
X179204535Y-119333998D01*
X180674535Y-119856502D02*
X180674535Y-119333998D01*
%TO.C,C18*%
X107253998Y-116730250D02*
X107776502Y-116730250D01*
X107253998Y-118200250D02*
X107776502Y-118200250D01*
%TO.C,C22*%
X169230250Y-119861502D02*
X169230250Y-119338998D01*
X170700250Y-119861502D02*
X170700250Y-119338998D01*
D15*
%TO.C,J_MIDI_IN_1*%
X259261250Y-90041250D02*
X259261250Y-90041250D01*
X259361250Y-90041250D02*
X259361250Y-90041250D01*
X259361250Y-90041250D02*
X259361250Y-90041250D01*
D16*
X259961250Y-77541250D02*
X259961250Y-77541250D01*
X259961250Y-77541250D02*
X259961250Y-77541250D01*
X259961250Y-77541250D02*
X259961250Y-93341250D01*
X259961250Y-77541250D02*
X279961250Y-77541250D01*
X259961250Y-93341250D02*
X259961250Y-77541250D01*
X259961250Y-93341250D02*
X259961250Y-93341250D01*
X259961250Y-93341250D02*
X259961250Y-93341250D01*
X259961250Y-93341250D02*
X263461250Y-93341250D01*
X263461250Y-93341250D02*
X259961250Y-93341250D01*
X263461250Y-93341250D02*
X263461250Y-93341250D01*
X266461250Y-93341250D02*
X266461250Y-93341250D01*
X266461250Y-93341250D02*
X273211250Y-93341250D01*
X273211250Y-93341250D02*
X266461250Y-93341250D01*
X273211250Y-93341250D02*
X273211250Y-93341250D01*
X276461250Y-93341250D02*
X276461250Y-93341250D01*
X276461250Y-93341250D02*
X279961250Y-93341250D01*
X279961250Y-77541250D02*
X259961250Y-77541250D01*
X279961250Y-77541250D02*
X279961250Y-77541250D01*
X279961250Y-77541250D02*
X279961250Y-77541250D01*
X279961250Y-77541250D02*
X279961250Y-93341250D01*
X279961250Y-93341250D02*
X276461250Y-93341250D01*
X279961250Y-93341250D02*
X279961250Y-77541250D01*
X279961250Y-93341250D02*
X279961250Y-93341250D01*
X279961250Y-93341250D02*
X279961250Y-93341250D01*
D15*
X259261250Y-90041250D02*
G75*
G02*
X259361250Y-90041250I50000J0D01*
G01*
X259261250Y-90041250D02*
G75*
G02*
X259361250Y-90041250I50000J0D01*
G01*
X259361250Y-90041250D02*
G75*
G02*
X259261250Y-90041250I-50000J0D01*
G01*
D14*
%TO.C,R11*%
X245506250Y-112855814D02*
X245506250Y-112401686D01*
X246976250Y-112855814D02*
X246976250Y-112401686D01*
%TO.C,J_DC1*%
X306141250Y-77541250D02*
X315341250Y-77541250D01*
X306141250Y-86341250D02*
X306141250Y-77541250D01*
X306141250Y-92241250D02*
X306141250Y-90341250D01*
X308841250Y-92241250D02*
X306141250Y-92241250D01*
X314491250Y-92441250D02*
X315541250Y-92441250D01*
X315341250Y-77541250D02*
X315341250Y-92241250D01*
X315341250Y-92241250D02*
X312741250Y-92241250D01*
X315541250Y-91391250D02*
X315541250Y-92441250D01*
%TO.C,R4*%
X307456250Y-113105814D02*
X307456250Y-112651686D01*
X308926250Y-113105814D02*
X308926250Y-112651686D01*
%TO.C,R3*%
X304614186Y-100818750D02*
X305068314Y-100818750D01*
X304614186Y-102288750D02*
X305068314Y-102288750D01*
%TO.C,C3*%
X314406250Y-101552502D02*
X314406250Y-101029998D01*
X315876250Y-101552502D02*
X315876250Y-101029998D01*
%TO.C,L3*%
X300316250Y-111291250D02*
X300316250Y-111741250D01*
X300316250Y-111291250D02*
X306516250Y-111291250D01*
X300316250Y-117491250D02*
X300316250Y-117041250D01*
X306516250Y-111291250D02*
X306516250Y-111741250D01*
X306516250Y-117491250D02*
X300316250Y-117491250D01*
X306516250Y-117491250D02*
X306516250Y-117041250D01*
%TO.C,D2*%
X267751250Y-95588750D02*
X267751250Y-97588750D01*
X267751250Y-95588750D02*
X271761250Y-95588750D01*
X267751250Y-97588750D02*
X271761250Y-97588750D01*
%TO.C,R1*%
X315576686Y-94006250D02*
X316030814Y-94006250D01*
X315576686Y-95476250D02*
X316030814Y-95476250D01*
%TO.C,C9*%
X276876250Y-97952502D02*
X276876250Y-97429998D01*
X278346250Y-97952502D02*
X278346250Y-97429998D01*
%TO.C,R9*%
X240306250Y-112818314D02*
X240306250Y-112364186D01*
X241776250Y-112818314D02*
X241776250Y-112364186D01*
%TO.C,R14*%
X265925814Y-95853750D02*
X265471686Y-95853750D01*
X265925814Y-97323750D02*
X265471686Y-97323750D01*
%TD*%
M02*
