%TF.GenerationSoftware,KiCad,Pcbnew,9.0.7*%
%TF.CreationDate,2026-04-01T14:38:09-04:00*%
%TF.ProjectId,triptech,74726970-7465-4636-982e-6b696361645f,1.0*%
%TF.SameCoordinates,Original*%
%TF.FileFunction,Paste,Top*%
%TF.FilePolarity,Positive*%
%FSLAX46Y46*%
G04 Gerber Fmt 4.6, Leading zero omitted, Abs format (unit mm)*
G04 Created by KiCad (PCBNEW 9.0.7) date 2026-04-01 14:38:09*
%MOMM*%
%LPD*%
G01*
G04 APERTURE LIST*
G04 Aperture macros list*
%AMRoundRect*
0 Rectangle with rounded corners*
0 $1 Rounding radius*
0 $2 $3 $4 $5 $6 $7 $8 $9 X,Y pos of 4 corners*
0 Add a 4 corners polygon primitive as box body*
4,1,4,$2,$3,$4,$5,$6,$7,$8,$9,$2,$3,0*
0 Add four circle primitives for the rounded corners*
1,1,$1+$1,$2,$3*
1,1,$1+$1,$4,$5*
1,1,$1+$1,$6,$7*
1,1,$1+$1,$8,$9*
0 Add four rect primitives between the rounded corners*
20,1,$1+$1,$2,$3,$4,$5,0*
20,1,$1+$1,$4,$5,$6,$7,0*
20,1,$1+$1,$6,$7,$8,$9,0*
20,1,$1+$1,$8,$9,$2,$3,0*%
G04 Aperture macros list end*
%ADD10RoundRect,0.250000X0.900000X-1.000000X0.900000X1.000000X-0.900000X1.000000X-0.900000X-1.000000X0*%
%ADD11RoundRect,0.250000X0.450000X-0.262500X0.450000X0.262500X-0.450000X0.262500X-0.450000X-0.262500X0*%
%ADD12RoundRect,0.250000X1.000000X0.650000X-1.000000X0.650000X-1.000000X-0.650000X1.000000X-0.650000X0*%
%ADD13R,1.000000X3.150000*%
%ADD14RoundRect,0.200000X-0.200000X-0.275000X0.200000X-0.275000X0.200000X0.275000X-0.200000X0.275000X0*%
%ADD15RoundRect,0.218750X0.256250X-0.218750X0.256250X0.218750X-0.256250X0.218750X-0.256250X-0.218750X0*%
%ADD16RoundRect,0.250000X0.475000X-0.250000X0.475000X0.250000X-0.475000X0.250000X-0.475000X-0.250000X0*%
%ADD17RoundRect,0.150000X-0.150000X0.587500X-0.150000X-0.587500X0.150000X-0.587500X0.150000X0.587500X0*%
%ADD18RoundRect,0.150000X-0.512500X-0.150000X0.512500X-0.150000X0.512500X0.150000X-0.512500X0.150000X0*%
%ADD19RoundRect,0.250000X-0.250000X-0.475000X0.250000X-0.475000X0.250000X0.475000X-0.250000X0.475000X0*%
%ADD20RoundRect,0.250000X-0.450000X0.262500X-0.450000X-0.262500X0.450000X-0.262500X0.450000X0.262500X0*%
%ADD21RoundRect,0.150000X0.825000X0.150000X-0.825000X0.150000X-0.825000X-0.150000X0.825000X-0.150000X0*%
%ADD22RoundRect,0.150000X-0.150000X0.825000X-0.150000X-0.825000X0.150000X-0.825000X0.150000X0.825000X0*%
%ADD23RoundRect,0.250000X-0.262500X-0.450000X0.262500X-0.450000X0.262500X0.450000X-0.262500X0.450000X0*%
%ADD24RoundRect,0.200000X-0.275000X0.200000X-0.275000X-0.200000X0.275000X-0.200000X0.275000X0.200000X0*%
%ADD25R,1.016000X3.175000*%
%ADD26RoundRect,0.200000X0.200000X0.275000X-0.200000X0.275000X-0.200000X-0.275000X0.200000X-0.275000X0*%
%ADD27RoundRect,0.250000X0.262500X0.450000X-0.262500X0.450000X-0.262500X-0.450000X0.262500X-0.450000X0*%
%ADD28RoundRect,0.250000X-0.475000X0.250000X-0.475000X-0.250000X0.475000X-0.250000X0.475000X0.250000X0*%
%ADD29RoundRect,0.218750X-0.256250X0.218750X-0.256250X-0.218750X0.256250X-0.218750X0.256250X0.218750X0*%
%ADD30RoundRect,0.250000X0.550000X-1.500000X0.550000X1.500000X-0.550000X1.500000X-0.550000X-1.500000X0*%
%ADD31R,0.700000X1.200000*%
%ADD32R,1.000000X0.800000*%
%ADD33R,1.075000X2.475000*%
%ADD34R,1.000000X1.200000*%
%ADD35R,1.300000X1.575000*%
%ADD36RoundRect,0.250000X0.250000X0.475000X-0.250000X0.475000X-0.250000X-0.475000X0.250000X-0.475000X0*%
%ADD37R,2.000000X0.640000*%
%ADD38R,2.350000X5.100000*%
%ADD39RoundRect,0.225000X-0.225000X-0.375000X0.225000X-0.375000X0.225000X0.375000X-0.225000X0.375000X0*%
G04 APERTURE END LIST*
D10*
%TO.C,D1*%
X303241250Y-96591250D03*
X303241250Y-92291250D03*
%TD*%
D11*
%TO.C,R8*%
X251341250Y-113603750D03*
X251341250Y-111778750D03*
%TD*%
D12*
%TO.C,D6*%
X148865250Y-118865250D03*
X144865250Y-118865250D03*
%TD*%
D13*
%TO.C,J2*%
X294261250Y-125341250D03*
X294261250Y-130391250D03*
X291721250Y-125341250D03*
X291721250Y-130391250D03*
X289181250Y-125341250D03*
X289181250Y-130391250D03*
X286641250Y-125341250D03*
X286641250Y-130391250D03*
X284101250Y-125341250D03*
X284101250Y-130391250D03*
X281561250Y-125341250D03*
X281561250Y-130391250D03*
X279021250Y-125341250D03*
X279021250Y-130391250D03*
X276481250Y-125341250D03*
X276481250Y-130391250D03*
X273941250Y-125341250D03*
X273941250Y-130391250D03*
X271401250Y-125341250D03*
X271401250Y-130391250D03*
X268861250Y-125341250D03*
X268861250Y-130391250D03*
X266321250Y-125341250D03*
X266321250Y-130391250D03*
%TD*%
D12*
%TO.C,D8*%
X156215250Y-118865250D03*
X152215250Y-118865250D03*
%TD*%
D14*
%TO.C,R20*%
X103265250Y-117465250D03*
X104915250Y-117465250D03*
%TD*%
D15*
%TO.C,L2*%
X319446250Y-121231250D03*
X319446250Y-119656250D03*
%TD*%
D16*
%TO.C,C14*%
X96545250Y-120450250D03*
X96545250Y-118550250D03*
%TD*%
%TO.C,C26*%
X174865250Y-120565250D03*
X174865250Y-118665250D03*
%TD*%
%TO.C,C12*%
X66495250Y-116450250D03*
X66495250Y-114550250D03*
%TD*%
D17*
%TO.C,D4*%
X112395250Y-116975250D03*
X110495250Y-116975250D03*
X111445250Y-118850250D03*
%TD*%
D18*
%TO.C,U2*%
X301203750Y-104078750D03*
X301203750Y-105028750D03*
X301203750Y-105978750D03*
X303478750Y-105978750D03*
X303478750Y-105028750D03*
X303478750Y-104078750D03*
%TD*%
D12*
%TO.C,D7*%
X141565250Y-118865250D03*
X137565250Y-118865250D03*
%TD*%
D19*
%TO.C,C17*%
X76365250Y-117515250D03*
X78265250Y-117515250D03*
%TD*%
D20*
%TO.C,R16*%
X277611250Y-100366250D03*
X277611250Y-102191250D03*
%TD*%
D16*
%TO.C,C1*%
X319346250Y-114581250D03*
X319346250Y-112681250D03*
%TD*%
D17*
%TO.C,Q1*%
X312641250Y-94741250D03*
X310741250Y-94741250D03*
X311691250Y-96616250D03*
%TD*%
D12*
%TO.C,D10*%
X148881917Y-115365250D03*
X144881917Y-115365250D03*
%TD*%
D21*
%TO.C,U8*%
X181315250Y-116755250D03*
X181315250Y-115485250D03*
X181315250Y-114215250D03*
X181315250Y-112945250D03*
X176365250Y-112945250D03*
X176365250Y-114215250D03*
X176365250Y-115485250D03*
X176365250Y-116755250D03*
%TD*%
D11*
%TO.C,R10*%
X244341250Y-113503750D03*
X244341250Y-111678750D03*
%TD*%
D16*
%TO.C,C10*%
X66495250Y-120450250D03*
X66495250Y-118550250D03*
%TD*%
D19*
%TO.C,C6*%
X307891250Y-117891250D03*
X309791250Y-117891250D03*
%TD*%
D22*
%TO.C,U6*%
X94500250Y-115025250D03*
X93230250Y-115025250D03*
X91960250Y-115025250D03*
X90690250Y-115025250D03*
X90690250Y-119975250D03*
X91960250Y-119975250D03*
X93230250Y-119975250D03*
X94500250Y-119975250D03*
%TD*%
D17*
%TO.C,D3*%
X82515250Y-117190250D03*
X80615250Y-117190250D03*
X81565250Y-119065250D03*
%TD*%
D11*
%TO.C,R7*%
X249441250Y-113603750D03*
X249441250Y-111778750D03*
%TD*%
D16*
%TO.C,C11*%
X68645250Y-120450250D03*
X68645250Y-118550250D03*
%TD*%
D23*
%TO.C,R12*%
X244536250Y-96588750D03*
X246361250Y-96588750D03*
%TD*%
D14*
%TO.C,R21*%
X84715250Y-117440250D03*
X86365250Y-117440250D03*
%TD*%
D16*
%TO.C,C13*%
X68645250Y-116450250D03*
X68645250Y-114550250D03*
%TD*%
D23*
%TO.C,R2*%
X300528750Y-101553750D03*
X302353750Y-101553750D03*
%TD*%
D24*
%TO.C,R25*%
X184397917Y-98966250D03*
X184397917Y-100616250D03*
%TD*%
D14*
%TO.C,R23*%
X114220250Y-117300250D03*
X115870250Y-117300250D03*
%TD*%
D16*
%TO.C,C16*%
X96545250Y-116450250D03*
X96545250Y-114550250D03*
%TD*%
D25*
%TO.C,U3*%
X255473150Y-107138975D03*
X252933150Y-110885475D03*
X250393150Y-107138975D03*
X247853150Y-110885475D03*
X245313150Y-107138975D03*
X242773150Y-110885475D03*
X240233150Y-107138975D03*
X237693150Y-110885475D03*
X235153150Y-107138975D03*
X232613150Y-110885475D03*
X230073150Y-107138975D03*
X227533150Y-110885475D03*
X224993150Y-107138975D03*
X222453150Y-110885475D03*
X219913150Y-107138975D03*
X217373150Y-110885475D03*
X214833150Y-107138975D03*
X212293150Y-110885475D03*
X209753150Y-107138975D03*
X207213150Y-110885475D03*
X207213150Y-126125475D03*
X209753150Y-122378975D03*
X212293150Y-126125475D03*
X214833150Y-122378975D03*
X217373150Y-126125475D03*
X219913150Y-122378975D03*
X222453150Y-126125475D03*
X224993150Y-122378975D03*
X227533150Y-126125475D03*
X230073150Y-122378975D03*
X232613150Y-126125475D03*
X235153150Y-122378975D03*
X237693150Y-126125475D03*
X240233150Y-122378975D03*
X242773150Y-126125475D03*
X245313150Y-122378975D03*
X247853150Y-126125475D03*
X250393150Y-122378975D03*
X252933150Y-126125475D03*
X255473150Y-122378975D03*
%TD*%
D26*
%TO.C,R22*%
X86365250Y-118990250D03*
X84715250Y-118990250D03*
%TD*%
D27*
%TO.C,R17*%
X225461250Y-96588750D03*
X223636250Y-96588750D03*
%TD*%
D16*
%TO.C,C27*%
X177089536Y-120565250D03*
X177089536Y-118665250D03*
%TD*%
D19*
%TO.C,C7*%
X307891250Y-115841250D03*
X309791250Y-115841250D03*
%TD*%
D21*
%TO.C,U7*%
X171315250Y-116755250D03*
X171315250Y-115485250D03*
X171315250Y-114215250D03*
X171315250Y-112945250D03*
X166365250Y-112945250D03*
X166365250Y-114215250D03*
X166365250Y-115485250D03*
X166365250Y-116755250D03*
%TD*%
D28*
%TO.C,C2*%
X319396250Y-122906250D03*
X319396250Y-124806250D03*
%TD*%
D26*
%TO.C,R24*%
X115870250Y-118850250D03*
X114220250Y-118850250D03*
%TD*%
D16*
%TO.C,C20*%
X165516679Y-120550250D03*
X165516679Y-118650250D03*
%TD*%
D29*
%TO.C,L1*%
X319396250Y-116243750D03*
X319396250Y-117818750D03*
%TD*%
D16*
%TO.C,C19*%
X98745250Y-116450250D03*
X98745250Y-114550250D03*
%TD*%
D11*
%TO.C,R6*%
X308141250Y-104816250D03*
X308141250Y-102991250D03*
%TD*%
D12*
%TO.C,D12*%
X156215250Y-115365250D03*
X152215250Y-115365250D03*
%TD*%
D24*
%TO.C,R26*%
X180591250Y-99366250D03*
X180591250Y-101016250D03*
%TD*%
D30*
%TO.C,C4*%
X319841250Y-102291250D03*
X319841250Y-96891250D03*
%TD*%
D11*
%TO.C,R5*%
X306103750Y-110253750D03*
X306103750Y-108428750D03*
%TD*%
D12*
%TO.C,D9*%
X134215250Y-115365250D03*
X130215250Y-115365250D03*
%TD*%
D16*
%TO.C,C8*%
X308053750Y-110253750D03*
X308053750Y-108353750D03*
%TD*%
D12*
%TO.C,D5*%
X134215250Y-118865250D03*
X130215250Y-118865250D03*
%TD*%
D16*
%TO.C,C15*%
X98745250Y-120450250D03*
X98745250Y-118550250D03*
%TD*%
D27*
%TO.C,R18*%
X235523750Y-96588750D03*
X233698750Y-96588750D03*
%TD*%
D16*
%TO.C,C23*%
X172189536Y-120550250D03*
X172189536Y-118650250D03*
%TD*%
D12*
%TO.C,D11*%
X141548583Y-115365250D03*
X137548583Y-115365250D03*
%TD*%
D16*
%TO.C,C24*%
X182163821Y-120545250D03*
X182163821Y-118645250D03*
%TD*%
D31*
%TO.C,J3*%
X286216250Y-93631250D03*
X287316250Y-93631250D03*
X288416250Y-93631250D03*
X289516250Y-93631250D03*
X290616250Y-93631250D03*
X291716250Y-93631250D03*
X292816250Y-93631250D03*
X293916250Y-93631250D03*
X294866250Y-93631250D03*
D32*
X295816250Y-83131250D03*
D33*
X295853750Y-79143750D03*
D34*
X295816250Y-89331250D03*
X284666250Y-93631250D03*
D35*
X282316250Y-78693750D03*
%TD*%
D22*
%TO.C,U5*%
X64500250Y-115025250D03*
X63230250Y-115025250D03*
X61960250Y-115025250D03*
X60690250Y-115025250D03*
X60690250Y-119975250D03*
X61960250Y-119975250D03*
X63230250Y-119975250D03*
X64500250Y-119975250D03*
%TD*%
D36*
%TO.C,C5*%
X303191250Y-109591250D03*
X301291250Y-109591250D03*
%TD*%
D37*
%TO.C,U4*%
X268761250Y-100001250D03*
X268761250Y-101271250D03*
X268761250Y-102541250D03*
X275061250Y-102541250D03*
X275061250Y-101271250D03*
X275061250Y-100001250D03*
%TD*%
D23*
%TO.C,R13*%
X256286250Y-96638750D03*
X258111250Y-96638750D03*
%TD*%
D14*
%TO.C,R19*%
X73115250Y-117515250D03*
X74765250Y-117515250D03*
%TD*%
D23*
%TO.C,R15*%
X273461250Y-96638750D03*
X275286250Y-96638750D03*
%TD*%
D16*
%TO.C,C21*%
X167740965Y-120550250D03*
X167740965Y-118650250D03*
%TD*%
%TO.C,C25*%
X179939535Y-120545250D03*
X179939535Y-118645250D03*
%TD*%
D19*
%TO.C,C18*%
X106565250Y-117465250D03*
X108465250Y-117465250D03*
%TD*%
D16*
%TO.C,C22*%
X169965250Y-120550250D03*
X169965250Y-118650250D03*
%TD*%
D11*
%TO.C,R11*%
X246241250Y-113541250D03*
X246241250Y-111716250D03*
%TD*%
%TO.C,R4*%
X308191250Y-113791250D03*
X308191250Y-111966250D03*
%TD*%
D23*
%TO.C,R3*%
X303928750Y-101553750D03*
X305753750Y-101553750D03*
%TD*%
D16*
%TO.C,C3*%
X315141250Y-102241250D03*
X315141250Y-100341250D03*
%TD*%
D38*
%TO.C,L3*%
X301341250Y-114391250D03*
X305491250Y-114391250D03*
%TD*%
D39*
%TO.C,D2*%
X268461250Y-96588750D03*
X271761250Y-96588750D03*
%TD*%
D23*
%TO.C,R1*%
X314891250Y-94741250D03*
X316716250Y-94741250D03*
%TD*%
D16*
%TO.C,C9*%
X277611250Y-98641250D03*
X277611250Y-96741250D03*
%TD*%
D11*
%TO.C,R9*%
X241041250Y-113503750D03*
X241041250Y-111678750D03*
%TD*%
D27*
%TO.C,R14*%
X266611250Y-96588750D03*
X264786250Y-96588750D03*
%TD*%
M02*
