M48
; DRILL file {KiCad 9.0.7} date 2026-04-01T14:38:56-0400
; FORMAT={-:-/ absolute / metric / decimal}
; #@! TF.CreationDate,2026-04-01T14:38:56-04:00
; #@! TF.GenerationSoftware,Kicad,Pcbnew,9.0.7
; #@! TF.FileFunction,Plated,1,4,PTH
FMAT,2
METRIC
; #@! TA.AperFunction,Plated,PTH,ViaDrill
T1C0.300
; #@! TA.AperFunction,Plated,PTH,ComponentDrill
T2C0.500
; #@! TA.AperFunction,Plated,PTH,ComponentDrill
T3C1.000
; #@! TA.AperFunction,Plated,PTH,ComponentDrill
T4C1.200
; #@! TA.AperFunction,Plated,PTH,ComponentDrill
T5C1.300
; #@! TA.AperFunction,Plated,PTH,ComponentDrill
T6C1.600
; #@! TA.AperFunction,Plated,PTH,ComponentDrill
T7C2.400
; #@! TA.AperFunction,Plated,PTH,ComponentDrill
T8C3.200
%
G90
G05
T1
X55.591Y-81.041
X55.591Y-91.091
X55.591Y-101.041
X55.591Y-111.091
X55.591Y-121.041
X55.591Y-131.091
X55.591Y-141.041
X55.641Y-86.041
X55.641Y-96.091
X55.641Y-116.091
X55.641Y-126.041
X55.641Y-136.091
X58.091Y-78.591
X58.091Y-88.641
X58.091Y-98.591
X58.091Y-108.641
X58.091Y-118.591
X58.091Y-128.641
X58.141Y-93.641
X58.141Y-113.641
X58.141Y-123.591
X58.141Y-133.641
X59.87Y-116.06
X60.591Y-91.091
X60.591Y-101.041
X60.591Y-111.091
X60.591Y-131.091
X60.591Y-141.041
X60.641Y-86.041
X60.641Y-96.091
X60.641Y-126.041
X60.741Y-122.091
X60.941Y-113.391
X63.091Y-78.591
X63.091Y-88.641
X63.091Y-98.591
X63.091Y-108.641
X63.091Y-128.641
X63.091Y-138.591
X63.141Y-83.591
X63.141Y-93.641
X63.141Y-123.591
X63.141Y-133.641
X63.197Y-118.45
X64.916Y-116.216
X65.191Y-131.091
X65.241Y-126.041
X65.591Y-81.041
X65.591Y-91.091
X65.591Y-101.041
X65.591Y-141.041
X65.641Y-96.091
X65.641Y-136.091
X66.041Y-110.391
X66.491Y-121.841
X66.495Y-117.491
X67.541Y-118.55
X67.591Y-116.45
X67.891Y-112.091
X68.091Y-78.591
X68.091Y-88.641
X68.091Y-98.591
X68.091Y-128.641
X68.091Y-138.591
X68.141Y-93.641
X68.141Y-123.591
X68.191Y-134.291
X68.341Y-108.091
X68.645Y-117.541
X68.741Y-113.191
X69.591Y-101.091
X70.591Y-81.041
X70.591Y-91.091
X70.591Y-121.041
X70.591Y-131.091
X70.591Y-141.041
X70.641Y-86.041
X70.641Y-116.091
X70.641Y-126.041
X70.641Y-136.091
X70.941Y-109.991
X73.091Y-78.591
X73.091Y-88.641
X73.091Y-128.641
X73.091Y-138.591
X73.141Y-83.591
X73.141Y-123.591
X73.191Y-134.291
X73.241Y-107.741
X74.241Y-114.291
X74.941Y-111.041
X75.441Y-116.091
X75.591Y-81.041
X75.591Y-91.091
X75.591Y-121.041
X75.591Y-131.091
X75.591Y-141.041
X75.641Y-96.091
X75.641Y-126.041
X75.641Y-136.091
X77.841Y-118.841
X77.891Y-114.441
X78.091Y-78.591
X78.091Y-88.641
X78.091Y-98.591
X78.091Y-128.641
X78.091Y-138.591
X78.141Y-83.591
X78.141Y-123.591
X78.191Y-134.291
X78.241Y-107.741
X80.591Y-81.041
X80.591Y-91.091
X80.591Y-101.041
X80.591Y-111.091
X80.591Y-121.041
X80.591Y-131.091
X80.591Y-141.041
X80.641Y-86.041
X80.641Y-96.091
X80.641Y-126.041
X80.641Y-136.091
X82.891Y-114.441
X83.091Y-78.591
X83.091Y-88.641
X83.091Y-128.641
X83.091Y-138.591
X83.141Y-83.591
X83.141Y-93.641
X83.141Y-123.591
X83.191Y-117.191
X83.191Y-134.291
X83.241Y-98.791
X83.241Y-107.741
X83.241Y-119.865
X85.591Y-81.041
X85.591Y-91.091
X85.591Y-101.041
X85.591Y-111.091
X85.591Y-121.041
X85.591Y-131.091
X85.591Y-141.041
X85.641Y-86.041
X85.641Y-96.091
X85.641Y-126.041
X85.641Y-136.091
X86.391Y-119.841
X87.291Y-117.641
X87.891Y-114.441
X88.091Y-78.591
X88.091Y-88.641
X88.091Y-98.591
X88.091Y-138.591
X88.141Y-83.591
X88.141Y-93.641
X88.191Y-134.241
X88.241Y-107.741
X88.741Y-123.591
X88.741Y-128.241
X88.991Y-118.941
X89.491Y-131.891
X90.041Y-117.041
X90.591Y-81.041
X90.591Y-91.091
X90.591Y-101.041
X90.591Y-111.091
X90.591Y-121.991
X90.591Y-130.941
X90.591Y-141.041
X90.641Y-86.041
X90.641Y-96.091
X90.641Y-126.041
X90.641Y-136.091
X90.691Y-113.191
X91.288Y-108.793
X91.341Y-109.641
X92.412Y-117.762
X92.991Y-128.191
X93.091Y-78.591
X93.091Y-88.641
X93.091Y-98.591
X93.091Y-138.591
X93.141Y-93.641
X93.141Y-123.591
X93.191Y-134.241
X94.591Y-108.041
X94.816Y-116.216
X95.591Y-81.041
X95.591Y-91.091
X95.591Y-101.041
X95.591Y-111.091
X95.591Y-130.941
X95.591Y-141.041
X95.641Y-126.041
X95.641Y-136.091
X96.991Y-107.891
X97.591Y-118.55
X97.641Y-116.45
X97.841Y-123.641
X97.841Y-128.241
X98.091Y-78.591
X98.091Y-88.641
X98.091Y-138.591
X98.141Y-83.591
X98.191Y-134.241
X98.768Y-98.141
X98.891Y-121.741
X99.841Y-113.041
X100.591Y-81.041
X100.591Y-91.091
X100.591Y-111.091
X100.591Y-121.041
X100.591Y-130.641
X100.591Y-141.041
X100.641Y-86.041
X100.641Y-96.091
X100.641Y-116.091
X100.641Y-126.041
X100.641Y-136.091
X101.991Y-107.891
X103.041Y-94.316
X103.091Y-78.591
X103.091Y-88.641
X103.091Y-98.591
X103.091Y-114.091
X103.091Y-118.591
X103.091Y-128.241
X103.091Y-138.591
X103.141Y-83.591
X103.141Y-123.591
X103.191Y-134.241
X104.691Y-108.041
X105.591Y-81.041
X105.591Y-91.091
X105.591Y-111.091
X105.591Y-121.041
X105.591Y-130.641
X105.591Y-141.041
X105.641Y-86.041
X105.641Y-96.091
X105.641Y-116.091
X105.641Y-126.041
X105.641Y-136.091
X107.991Y-107.241
X108.091Y-78.591
X108.091Y-88.641
X108.091Y-98.591
X108.091Y-119.141
X108.091Y-128.241
X108.091Y-138.591
X108.141Y-123.591
X108.191Y-134.241
X110.591Y-81.041
X110.591Y-91.091
X110.591Y-101.041
X110.591Y-111.091
X110.591Y-121.041
X110.591Y-130.641
X110.591Y-141.041
X110.641Y-86.041
X110.641Y-126.041
X110.641Y-136.091
X112.491Y-118.041
X112.991Y-107.241
X113.091Y-78.591
X113.091Y-88.641
X113.091Y-98.591
X113.091Y-128.241
X113.091Y-138.591
X113.141Y-83.591
X113.141Y-93.641
X113.141Y-119.741
X113.141Y-123.591
X113.191Y-134.241
X115.045Y-116.611
X115.591Y-81.041
X115.591Y-91.091
X115.591Y-101.041
X115.591Y-111.091
X115.591Y-121.041
X115.591Y-130.641
X115.591Y-141.041
X115.641Y-86.041
X115.641Y-96.091
X115.641Y-136.091
X115.691Y-125.891
X115.891Y-119.641
X116.741Y-117.741
X117.491Y-131.891
X117.991Y-107.241
X118.041Y-129.841
X118.091Y-78.591
X118.091Y-88.641
X118.091Y-98.591
X118.141Y-93.641
X118.191Y-114.241
X118.191Y-134.241
X118.791Y-118.591
X118.841Y-123.591
X120.591Y-91.091
X120.591Y-101.041
X120.591Y-111.091
X120.591Y-121.041
X120.591Y-141.041
X120.641Y-86.041
X120.641Y-96.091
X120.641Y-116.091
X120.641Y-126.041
X121.991Y-133.041
X121.991Y-134.641
X122.191Y-130.991
X122.391Y-138.841
X122.441Y-118.491
X122.491Y-123.491
X122.991Y-107.241
X123.091Y-78.591
X123.091Y-88.641
X123.091Y-98.591
X123.141Y-83.591
X123.141Y-93.641
X123.141Y-113.641
X125.341Y-135.791
X125.591Y-81.041
X125.591Y-91.091
X125.591Y-101.041
X125.591Y-111.091
X125.641Y-96.091
X125.741Y-116.641
X125.791Y-120.341
X126.391Y-126.041
X126.591Y-131.091
X127.991Y-107.241
X128.091Y-78.591
X128.091Y-88.641
X128.091Y-98.591
X128.091Y-118.591
X128.141Y-93.641
X128.141Y-113.641
X128.141Y-123.591
X128.141Y-133.641
X128.141Y-138.891
X128.341Y-115.291
X129.912Y-101.041
X130.291Y-117.091
X130.441Y-120.441
X130.591Y-81.041
X130.591Y-91.091
X130.591Y-111.091
X130.591Y-131.091
X130.641Y-86.041
X130.641Y-126.041
X130.641Y-136.091
X131.341Y-107.241
X131.512Y-96.491
X132.341Y-118.941
X133.091Y-78.591
X133.091Y-88.641
X133.141Y-83.591
X133.141Y-113.641
X133.141Y-123.591
X133.141Y-133.641
X133.141Y-138.891
X134.091Y-94.491
X134.191Y-120.791
X134.541Y-117.091
X135.341Y-111.091
X135.591Y-81.041
X135.591Y-91.091
X135.591Y-131.091
X135.641Y-96.091
X135.641Y-126.041
X135.641Y-136.091
X135.691Y-85.091
X136.041Y-120.241
X137.541Y-113.641
X137.907Y-111.184
X137.941Y-94.331
X137.941Y-117.141
X138.091Y-78.591
X138.091Y-88.641
X138.091Y-98.591
X138.141Y-83.591
X138.141Y-123.591
X138.141Y-133.641
X138.141Y-138.891
X138.191Y-107.191
X138.741Y-113.341
X139.341Y-115.291
X140.591Y-81.041
X140.591Y-91.091
X140.591Y-101.041
X140.591Y-110.891
X140.591Y-131.091
X140.641Y-86.041
X140.641Y-96.091
X140.641Y-126.041
X140.641Y-136.091
X141.341Y-120.891
X141.991Y-117.091
X143.091Y-78.591
X143.091Y-88.641
X143.091Y-98.941
X143.141Y-83.591
X143.141Y-93.641
X143.141Y-113.641
X143.141Y-123.591
X143.141Y-133.641
X143.141Y-138.891
X143.191Y-107.191
X145.591Y-81.041
X145.591Y-91.091
X145.591Y-101.041
X145.591Y-110.891
X145.591Y-117.091
X145.591Y-131.091
X145.641Y-86.041
X145.641Y-96.091
X145.641Y-126.041
X145.641Y-136.091
X146.291Y-120.241
X146.691Y-115.291
X147.441Y-113.741
X148.091Y-78.591
X148.091Y-88.641
X148.091Y-98.591
X148.141Y-83.591
X148.141Y-93.641
X148.141Y-123.591
X148.141Y-133.641
X148.141Y-138.891
X148.191Y-107.191
X148.841Y-120.791
X149.041Y-113.991
X150.541Y-117.041
X150.591Y-81.041
X150.591Y-91.091
X150.591Y-101.041
X150.591Y-110.891
X150.591Y-131.091
X150.641Y-86.041
X150.641Y-96.091
X150.641Y-126.041
X150.641Y-136.091
X151.141Y-120.441
X153.091Y-78.591
X153.091Y-88.641
X153.091Y-98.591
X153.141Y-93.641
X153.141Y-123.591
X153.141Y-133.641
X153.141Y-138.891
X153.191Y-107.191
X153.841Y-115.291
X154.191Y-119.041
X155.591Y-81.041
X155.591Y-91.091
X155.591Y-101.041
X155.591Y-110.891
X155.591Y-131.091
X155.641Y-126.041
X155.641Y-136.091
X156.091Y-117.041
X156.191Y-120.691
X156.841Y-113.341
X157.941Y-113.991
X158.091Y-78.591
X158.091Y-88.641
X158.091Y-98.591
X158.091Y-118.591
X158.141Y-83.591
X158.141Y-123.591
X158.141Y-133.641
X158.141Y-138.891
X158.191Y-107.191
X159.241Y-111.194
X159.991Y-114.241
X160.441Y-120.441
X160.591Y-81.041
X160.591Y-91.091
X160.591Y-131.091
X160.641Y-86.041
X160.641Y-96.091
X160.641Y-126.041
X160.641Y-136.091
X162.641Y-112.792
X163.091Y-78.591
X163.091Y-88.641
X163.091Y-98.591
X163.091Y-118.591
X163.141Y-83.591
X163.141Y-94.331
X163.141Y-123.591
X163.141Y-133.641
X163.141Y-138.891
X163.191Y-107.191
X164.641Y-112.991
X164.941Y-121.491
X165.591Y-81.041
X165.591Y-91.091
X165.591Y-131.091
X165.641Y-86.041
X165.641Y-96.091
X165.641Y-126.041
X165.641Y-136.091
X167.565Y-113.687
X168.091Y-78.591
X168.091Y-88.641
X168.091Y-98.591
X168.141Y-123.591
X168.141Y-133.641
X168.141Y-138.891
X168.191Y-107.191
X168.541Y-114.34
X168.641Y-116.641
X168.765Y-119.568
X170.591Y-81.041
X170.591Y-91.091
X170.591Y-101.041
X170.591Y-131.091
X170.641Y-86.041
X170.641Y-126.041
X170.641Y-136.091
X171.041Y-120.441
X171.641Y-112.041
X172.791Y-114.441
X172.792Y-107.241
X173.091Y-78.591
X173.091Y-88.641
X173.091Y-98.591
X173.141Y-83.591
X173.141Y-93.641
X173.141Y-123.591
X173.141Y-133.641
X173.141Y-138.891
X173.541Y-117.691
X174.141Y-101.291
X174.641Y-114.541
X174.791Y-110.691
X175.143Y-107.141
X175.591Y-131.091
X175.641Y-122.541
X175.641Y-126.041
X175.641Y-136.091
X175.982Y-110.751
X176.191Y-109.641
X177.746Y-114.908
X177.791Y-93.091
X177.791Y-101.291
X177.991Y-89.541
X178.091Y-78.691
X178.091Y-98.691
X178.141Y-83.341
X178.141Y-103.691
X178.141Y-123.691
X178.141Y-133.741
X178.141Y-138.991
X178.491Y-109.641
X178.641Y-121.391
X178.691Y-119.591
X180.591Y-81.141
X180.591Y-90.541
X180.591Y-101.791
X180.591Y-111.191
X180.591Y-131.191
X180.641Y-86.141
X180.641Y-106.141
X180.641Y-126.141
X180.641Y-136.191
X181.041Y-118.645
X181.041Y-121.641
X182.641Y-114.541
X182.741Y-109.641
X182.891Y-112.641
X183.091Y-78.691
X183.091Y-98.691
X183.141Y-83.691
X183.141Y-89.391
X183.141Y-103.691
X183.141Y-123.691
X183.141Y-133.741
X183.141Y-138.991
X183.704Y-93.779
X184.391Y-101.441
X185.37Y-105.77
X185.591Y-81.141
X185.591Y-91.191
X185.591Y-111.191
X185.591Y-121.141
X185.591Y-131.191
X185.641Y-116.191
X185.641Y-126.141
X185.641Y-136.191
X188.041Y-114.292
X188.091Y-78.691
X188.091Y-88.741
X188.091Y-98.691
X188.091Y-108.741
X188.091Y-118.691
X188.141Y-93.741
X188.141Y-103.691
X188.141Y-123.691
X188.141Y-133.741
X188.141Y-138.991
X188.334Y-83.408
X188.491Y-129.141
X190.591Y-91.191
X190.591Y-101.141
X190.591Y-111.191
X190.591Y-121.141
X190.591Y-131.191
X190.641Y-86.141
X190.641Y-96.191
X190.641Y-106.141
X190.641Y-116.191
X190.641Y-136.191
X191.041Y-126.541
X192.991Y-114.291
X193.091Y-88.741
X193.091Y-98.691
X193.091Y-108.741
X193.091Y-118.691
X193.091Y-128.741
X193.141Y-83.691
X193.141Y-93.741
X193.141Y-103.691
X193.141Y-133.741
X193.141Y-138.991
X193.541Y-124.091
X195.341Y-86.191
X195.591Y-81.141
X195.591Y-91.191
X195.591Y-101.141
X195.591Y-131.191
X195.641Y-96.191
X195.641Y-106.141
X195.641Y-126.141
X195.641Y-136.191
X195.991Y-121.541
X196.141Y-111.241
X196.191Y-116.241
X197.241Y-103.741
X198.091Y-78.691
X198.091Y-88.741
X198.091Y-118.691
X198.091Y-128.741
X198.141Y-83.691
X198.141Y-93.741
X198.141Y-108.991
X198.141Y-123.691
X198.141Y-133.741
X198.141Y-138.991
X199.541Y-91.141
X199.641Y-101.191
X200.641Y-106.141
X200.641Y-116.191
X201.741Y-91.141
X201.941Y-99.291
X203.091Y-78.691
X203.091Y-88.741
X203.141Y-83.691
X203.141Y-93.741
X203.141Y-108.991
X203.141Y-113.741
X203.291Y-101.841
X204.341Y-105.841
X204.741Y-100.841
X205.591Y-91.191
X205.591Y-111.191
X205.591Y-121.141
X205.591Y-131.191
X205.641Y-116.191
X205.641Y-126.141
X205.641Y-136.191
X207.191Y-128.341
X208.091Y-78.691
X208.091Y-88.741
X208.091Y-98.691
X208.091Y-138.991
X208.141Y-83.691
X208.141Y-93.741
X208.141Y-105.441
X208.141Y-123.691
X208.235Y-110.885
X208.341Y-133.741
X208.391Y-108.991
X208.691Y-129.141
X209.041Y-104.641
X209.041Y-137.041
X209.491Y-91.191
X210.591Y-101.141
X210.591Y-111.191
X210.591Y-131.191
X210.641Y-96.191
X210.641Y-116.191
X210.641Y-126.141
X211.341Y-106.191
X211.341Y-121.141
X212.291Y-108.591
X213.091Y-78.691
X213.091Y-88.741
X213.091Y-98.691
X213.091Y-138.991
X213.141Y-83.691
X213.141Y-93.741
X213.141Y-123.691
X213.141Y-133.741
X213.391Y-104.491
X213.391Y-128.891
X213.541Y-109.391
X214.491Y-103.441
X215.591Y-81.141
X215.591Y-91.191
X215.591Y-101.141
X215.591Y-111.191
X215.641Y-96.191
X215.641Y-116.191
X215.641Y-126.141
X215.841Y-131.241
X216.341Y-121.141
X216.641Y-106.141
X218.091Y-78.691
X218.091Y-88.741
X218.091Y-98.691
X218.091Y-108.741
X218.091Y-118.691
X218.091Y-138.991
X218.141Y-93.741
X218.141Y-103.691
X218.141Y-113.741
X218.141Y-123.691
X218.391Y-128.841
X219.913Y-124.791
X220.591Y-91.191
X220.591Y-111.191
X220.641Y-86.141
X220.641Y-116.191
X220.841Y-131.141
X220.941Y-126.091
X220.991Y-95.691
X221.191Y-100.141
X221.341Y-105.941
X221.341Y-121.141
X222.441Y-108.741
X222.641Y-128.191
X223.091Y-118.691
X223.091Y-138.991
X223.141Y-83.691
X223.141Y-93.741
X223.141Y-113.741
X223.141Y-123.691
X223.241Y-103.691
X224.241Y-99.191
X224.993Y-124.841
X225.491Y-94.791
X225.591Y-101.141
X225.641Y-86.141
X225.641Y-116.191
X225.841Y-126.141
X225.891Y-131.191
X226.157Y-111.476
X226.341Y-121.141
X226.641Y-106.141
X227.241Y-96.241
X227.491Y-128.441
X227.541Y-93.341
X228.041Y-108.748
X228.091Y-88.741
X228.091Y-98.891
X228.091Y-118.691
X228.091Y-138.991
X228.141Y-83.691
X228.141Y-103.691
X228.141Y-123.691
X230.091Y-124.491
X230.591Y-81.141
X230.591Y-91.191
X230.591Y-101.141
X230.891Y-126.141
X231.041Y-131.241
X231.191Y-110.841
X231.241Y-114.541
X231.341Y-95.591
X231.341Y-121.091
X231.641Y-106.141
X232.541Y-93.341
X233.041Y-108.641
X233.041Y-138.991
X233.091Y-78.691
X233.091Y-88.741
X233.091Y-98.891
X233.091Y-119.141
X233.141Y-103.691
X233.141Y-123.691
X233.641Y-128.741
X233.941Y-112.441
X235.591Y-81.141
X235.591Y-91.191
X235.591Y-101.141
X235.641Y-86.141
X235.641Y-114.991
X236.241Y-111.241
X236.241Y-126.141
X236.491Y-121.141
X236.641Y-106.141
X236.941Y-130.841
X237.891Y-114.041
X237.941Y-108.748
X238.041Y-138.991
X238.091Y-78.691
X238.091Y-88.741
X238.091Y-98.891
X238.091Y-119.141
X238.141Y-103.691
X238.141Y-123.691
X238.191Y-93.341
X238.891Y-129.291
X239.81Y-114.467
X240.591Y-81.141
X240.641Y-86.141
X240.641Y-96.191
X240.691Y-110.291
X241.241Y-126.141
X241.491Y-121.141
X241.641Y-101.091
X241.641Y-106.141
X242.191Y-129.684
X243.041Y-138.991
X243.091Y-88.741
X243.091Y-119.141
X243.141Y-83.691
X243.141Y-123.691
X244.291Y-103.891
X244.541Y-100.991
X244.591Y-94.641
X245.591Y-110.291
X245.641Y-86.141
X246.241Y-126.041
X246.491Y-121.141
X246.641Y-106.141
X248.041Y-138.991
X248.091Y-119.141
X248.141Y-83.691
X248.141Y-123.691
X248.191Y-93.341
X248.791Y-107.441
X249.041Y-126.091
X249.041Y-128.091
X249.141Y-103.591
X249.291Y-96.591
X250.541Y-110.291
X250.591Y-91.191
X250.641Y-86.141
X250.641Y-126.141
X251.491Y-122.341
X251.641Y-106.141
X251.641Y-120.591
X251.891Y-102.941
X252.841Y-96.591
X253.041Y-138.991
X253.091Y-78.691
X253.091Y-88.741
X253.141Y-123.691
X253.391Y-113.441
X253.733Y-108.391
X254.141Y-126.141
X254.441Y-119.041
X254.441Y-137.041
X254.641Y-114.441
X255.591Y-81.141
X255.591Y-111.191
X255.641Y-126.141
X256.691Y-122.341
X257.991Y-119.191
X258.001Y-109.382
X258.041Y-138.991
X258.091Y-78.691
X258.091Y-88.741
X258.141Y-83.691
X258.141Y-93.341
X258.141Y-103.691
X258.141Y-113.641
X258.141Y-123.691
X259.291Y-96.991
X260.141Y-121.691
X260.591Y-81.141
X260.591Y-91.191
X260.591Y-111.191
X260.641Y-96.191
X260.641Y-106.141
X260.641Y-126.141
X262.591Y-122.441
X262.741Y-130.141
X262.991Y-119.191
X263.041Y-138.991
X263.091Y-78.691
X263.091Y-108.341
X263.141Y-93.341
X263.141Y-113.641
X265.441Y-99.641
X265.591Y-81.141
X265.591Y-111.691
X265.641Y-86.141
X265.691Y-90.691
X265.691Y-95.391
X267.391Y-98.141
X267.641Y-124.091
X267.641Y-130.341
X267.991Y-119.191
X268.041Y-138.991
X268.091Y-88.741
X268.091Y-109.991
X268.141Y-83.691
X268.141Y-93.291
X268.141Y-113.641
X270.241Y-95.591
X270.248Y-131.488
X270.591Y-81.141
X270.591Y-111.691
X270.641Y-86.141
X271.491Y-101.241
X272.391Y-98.591
X272.647Y-124.167
X272.841Y-128.691
X272.991Y-119.191
X273.091Y-88.741
X273.091Y-101.291
X273.091Y-109.991
X273.091Y-138.991
X273.141Y-83.691
X273.141Y-93.291
X273.141Y-113.641
X273.691Y-127.591
X273.691Y-132.688
X275.291Y-126.391
X275.291Y-131.541
X275.341Y-98.541
X275.541Y-121.491
X275.591Y-81.141
X275.591Y-101.141
X275.591Y-111.691
X275.641Y-90.941
X276.291Y-132.541
X277.647Y-103.254
X277.841Y-123.641
X277.891Y-95.741
X277.891Y-128.691
X277.991Y-119.191
X278.091Y-78.691
X278.091Y-109.991
X278.091Y-138.991
X278.141Y-93.291
X278.141Y-113.641
X278.391Y-88.541
X278.891Y-132.641
X279.141Y-98.491
X279.191Y-101.241
X280.341Y-131.191
X280.441Y-126.141
X280.541Y-121.491
X280.591Y-81.141
X280.591Y-111.691
X280.641Y-86.141
X281.491Y-132.591
X281.642Y-91.513
X281.741Y-95.391
X281.841Y-106.691
X282.341Y-78.641
X282.791Y-123.691
X282.891Y-128.741
X283.091Y-88.541
X283.091Y-109.991
X283.091Y-118.691
X283.091Y-138.991
X283.141Y-83.691
X283.141Y-93.741
X283.141Y-113.641
X283.962Y-104.512
X284.041Y-132.688
X284.666Y-93.631
X284.741Y-99.541
X284.891Y-95.191
X285.041Y-117.241
X285.441Y-126.191
X285.541Y-121.491
X285.591Y-81.141
X285.591Y-91.191
X285.591Y-111.691
X285.591Y-131.191
X285.641Y-86.141
X285.641Y-106.141
X285.991Y-97.542
X286.191Y-95.191
X286.241Y-101.191
X287.141Y-97.641
X287.291Y-95.191
X287.991Y-123.691
X288.091Y-78.691
X288.091Y-118.691
X288.091Y-128.741
X288.091Y-138.991
X288.141Y-83.691
X288.141Y-103.691
X288.141Y-113.641
X288.191Y-108.191
X288.319Y-100.013
X289.441Y-95.041
X290.141Y-89.091
X290.541Y-121.491
X290.591Y-81.141
X290.591Y-111.191
X290.591Y-131.191
X290.641Y-86.141
X290.641Y-106.141
X290.641Y-126.141
X290.791Y-99.694
X290.841Y-138.991
X290.941Y-97.542
X291.191Y-115.891
X291.491Y-91.291
X291.691Y-94.541
X291.941Y-103.691
X292.841Y-133.741
X293.091Y-78.691
X293.091Y-89.191
X293.091Y-98.691
X293.091Y-118.691
X293.091Y-128.741
X293.091Y-138.991
X293.141Y-83.691
X293.141Y-113.741
X293.141Y-123.691
X293.191Y-108.241
X294.841Y-94.591
X295.141Y-91.291
X295.541Y-121.491
X295.591Y-81.141
X295.591Y-101.141
X295.591Y-111.191
X295.591Y-131.191
X295.641Y-96.191
X295.641Y-116.191
X295.641Y-126.141
X295.641Y-136.191
X295.741Y-104.691
X295.816Y-78.981
X295.816Y-83.131
X295.816Y-89.331
X296.691Y-86.091
X297.194Y-108.888
X297.891Y-103.691
X298.091Y-78.691
X298.091Y-88.741
X298.091Y-98.691
X298.091Y-118.691
X298.091Y-128.741
X298.091Y-139.041
X298.141Y-83.691
X298.141Y-93.741
X298.141Y-113.741
X298.141Y-123.691
X298.141Y-133.741
X298.641Y-136.191
X299.191Y-111.141
X299.241Y-116.24
X300.091Y-105.029
X300.141Y-136.691
X300.591Y-81.141
X300.591Y-91.191
X300.641Y-86.141
X300.641Y-96.191
X301.191Y-108.441
X301.191Y-121.141
X301.191Y-131.191
X301.241Y-103.441
X301.241Y-126.141
X301.479Y-100.304
X302.341Y-105.499
X302.441Y-90.291
X303.091Y-78.691
X303.091Y-88.741
X303.091Y-98.691
X303.091Y-118.691
X303.091Y-128.741
X303.141Y-83.691
X303.141Y-103.291
X303.141Y-113.741
X303.141Y-123.691
X303.141Y-132.391
X303.191Y-94.291
X303.191Y-108.441
X305.191Y-111.241
X305.391Y-136.741
X305.441Y-141.341
X305.591Y-81.141
X305.591Y-91.191
X305.591Y-121.141
X305.591Y-131.191
X305.641Y-106.141
X305.641Y-126.141
X305.691Y-95.641
X306.141Y-102.991
X306.791Y-100.691
X307.991Y-132.391
X308.091Y-78.691
X308.091Y-98.691
X308.091Y-128.741
X308.141Y-83.691
X308.141Y-93.741
X308.141Y-123.691
X309.591Y-95.641
X310.591Y-81.141
X310.591Y-101.141
X310.591Y-111.191
X310.591Y-121.141
X310.591Y-131.191
X310.641Y-106.141
X310.641Y-126.141
X310.641Y-136.191
X310.691Y-115.891
X311.726Y-138.006
X312.291Y-133.291
X313.091Y-78.691
X313.091Y-88.741
X313.091Y-98.691
X313.091Y-108.741
X313.091Y-118.691
X313.091Y-128.741
X313.091Y-138.691
X313.141Y-83.691
X313.141Y-103.691
X313.141Y-113.741
X313.141Y-123.691
X315.141Y-99.241
X315.341Y-116.191
X315.391Y-121.141
X315.543Y-130.352
X315.591Y-81.141
X315.591Y-91.191
X315.591Y-141.141
X315.641Y-86.141
X315.641Y-126.141
X316.191Y-135.941
X316.391Y-106.141
X316.691Y-95.891
X318.091Y-78.691
X318.091Y-88.741
X318.091Y-98.691
X318.091Y-128.741
X318.141Y-93.741
X318.141Y-103.691
X318.141Y-113.741
X318.141Y-123.691
X318.391Y-96.891
X318.391Y-134.141
X318.541Y-108.741
X319.941Y-130.341
X320.141Y-126.241
X320.391Y-112.691
X320.591Y-91.191
X320.591Y-111.191
X320.591Y-141.141
X320.641Y-86.141
X320.641Y-106.141
X320.641Y-116.191
X321.127Y-100.465
X321.741Y-118.991
X323.091Y-78.641
X323.091Y-88.691
X323.091Y-98.641
X323.091Y-108.691
X323.091Y-138.641
X323.141Y-83.641
X323.141Y-93.691
X323.141Y-103.641
X323.141Y-113.691
X323.141Y-133.691
T2
X56.691Y-82.391
X57.394Y-80.694
X57.394Y-84.088
X59.091Y-79.991
X59.091Y-84.791
X60.788Y-80.694
X60.788Y-84.088
X61.491Y-82.391
X116.691Y-82.391
X117.394Y-80.694
X117.394Y-84.088
X119.091Y-79.991
X119.091Y-84.791
X120.788Y-80.694
X120.788Y-84.088
X121.491Y-82.391
T3
X198.151Y-96.941
X200.691Y-96.941
X203.231Y-96.941
X205.771Y-96.941
X301.581Y-135.466
X301.581Y-138.006
X304.121Y-135.466
X304.121Y-138.006
X306.661Y-135.466
X306.661Y-138.006
X309.201Y-135.466
X309.201Y-138.006
X316.846Y-108.541
X316.846Y-111.081
X316.846Y-116.161
X316.846Y-118.701
X316.846Y-121.241
T4
X68.721Y-96.081
X72.849Y-100.526
X75.706Y-101.161
X78.564Y-100.526
X82.691Y-96.716
X95.428Y-96.056
X99.555Y-100.501
X102.413Y-101.136
X105.27Y-100.501
X109.398Y-96.691
X128.761Y-96.071
X132.889Y-100.516
X135.746Y-101.151
X138.604Y-100.516
X142.731Y-96.706
X155.491Y-96.071
X159.619Y-100.516
X162.476Y-101.151
X165.334Y-100.516
X169.461Y-96.706
T5
X177.598Y-85.341
X179.098Y-87.841
X179.098Y-91.041
X179.098Y-94.241
X182.098Y-87.841
X182.098Y-91.041
X182.098Y-94.241
X183.598Y-96.741
X187.254Y-85.691
X192.254Y-80.691
X197.254Y-85.691
X200.704Y-85.691
X205.704Y-80.691
X210.704Y-85.691
X217.061Y-90.041
X219.561Y-92.541
X222.061Y-80.041
X224.561Y-90.041
X227.061Y-80.041
X229.561Y-92.541
X232.061Y-90.041
X239.761Y-90.041
X242.261Y-92.541
X244.761Y-80.041
X247.261Y-90.041
X249.761Y-80.041
X252.261Y-92.541
X254.761Y-90.041
X262.461Y-90.041
X264.961Y-92.541
X267.461Y-80.041
X269.961Y-90.041
X272.461Y-80.041
X274.961Y-92.541
X277.461Y-90.041
T6
X67.451Y-84.651
X71.261Y-93.541
X80.151Y-93.541
X94.158Y-84.626
X97.968Y-93.516
X106.858Y-93.516
X127.491Y-84.641
X131.301Y-93.531
X140.191Y-93.531
X154.221Y-84.641
X158.031Y-93.531
X166.921Y-93.531
T7
X217.061Y-85.041
X232.061Y-85.041
X239.761Y-85.041
X254.761Y-85.041
X262.461Y-85.041
X277.461Y-85.041
T8
X59.091Y-82.391
X119.091Y-82.391
T3
X306.041Y-87.341G85X306.041Y-89.341
G05
X311.741Y-85.341G85X309.741Y-85.341
G05
X311.741Y-91.341G85X309.741Y-91.341
G05
M30
