M48
; DRILL file {KiCad 9.0.7} date 2026-04-01T14:38:56-0400
; FORMAT={-:-/ absolute / metric / decimal}
; #@! TF.CreationDate,2026-04-01T14:38:56-04:00
; #@! TF.GenerationSoftware,Kicad,Pcbnew,9.0.7
; #@! TF.FileFunction,NonPlated,1,4,NPTH
FMAT,2
METRIC
; #@! TA.AperFunction,NonPlated,NPTH,ComponentDrill
T1C1.300
; #@! TA.AperFunction,NonPlated,NPTH,ComponentDrill
T2C1.600
; #@! TA.AperFunction,NonPlated,NPTH,ComponentDrill
T3C3.200
%
G90
G05
T1
X187.254Y-80.691
X192.254Y-85.691
X197.254Y-80.691
X200.704Y-80.691
X205.704Y-85.691
X210.704Y-80.691
T2
X69.991Y-84.016
X75.706Y-87.191
X81.421Y-84.016
X96.698Y-83.991
X102.413Y-87.166
X108.128Y-83.991
X130.031Y-84.006
X135.746Y-87.181
X141.461Y-84.006
X156.761Y-84.006
X162.476Y-87.181
X168.191Y-84.006
T3
X59.091Y-137.391
X119.091Y-137.441
X199.241Y-112.341
X319.091Y-82.391
X319.091Y-137.391
M30
